M48
; DRILL file {KiCad 9.0.0} date 2025-06-15T18:58:17-0400
; FORMAT={-:-/ absolute / inch / decimal}
; #@! TF.CreationDate,2025-06-15T18:58:17-04:00
; #@! TF.GenerationSoftware,Kicad,Pcbnew,9.0.0
; #@! TF.FileFunction,Plated,1,2,PTH
FMAT,2
INCH
; #@! TA.AperFunction,Plated,PTH,ViaDrill
T1C0.0118
; #@! TA.AperFunction,Plated,PTH,ComponentDrill
T2C0.0118
; #@! TA.AperFunction,Plated,PTH,ComponentDrill
T3C0.0394
; #@! TA.AperFunction,Plated,PTH,ComponentDrill
T4C0.0433
%
G90
G05
T1
X4.28Y-3.45
X4.28Y-3.92
X4.47Y-4.17
X4.47Y-4.47
X4.47Y-4.77
X4.67Y-4.41
X4.67Y-4.71
X4.67Y-5.01
X4.676Y-4.89
X4.78Y-3.92
X4.782Y-4.415
X4.795Y-3.8646
X4.8187Y-3.8154
X5.09Y-5.3805
X5.21Y-5.1
X5.35Y-5.39
X5.4Y-5.39
X5.44Y-5.39
X6.08Y-4.08
T2
X4.4313Y-5.1806
X4.4313Y-5.22
X4.4313Y-5.2594
X4.4509Y-5.2003
X4.4509Y-5.2397
X4.4706Y-5.1806
X4.4706Y-5.22
X4.4706Y-5.2594
X4.4898Y-5.2396
X4.4903Y-5.2003
X4.51Y-5.1806
X4.51Y-5.22
X4.51Y-5.2594
X4.5297Y-5.2003
X4.5297Y-5.2397
X4.5494Y-5.1806
X4.5494Y-5.22
X4.5494Y-5.2594
X4.5691Y-5.2003
X4.5691Y-5.2397
X4.5887Y-5.1806
X4.5887Y-5.22
X4.5887Y-5.2594
X4.6913Y-5.1806
X4.6913Y-5.22
X4.6913Y-5.2594
X4.7109Y-5.2003
X4.7109Y-5.2397
X4.7306Y-5.1806
X4.7306Y-5.22
X4.7306Y-5.2594
X4.7498Y-5.2396
X4.7503Y-5.2003
X4.77Y-5.1806
X4.77Y-5.22
X4.77Y-5.2594
X4.7897Y-5.2003
X4.7897Y-5.2397
X4.8094Y-5.1806
X4.8094Y-5.22
X4.8094Y-5.2594
X4.8291Y-5.2003
X4.8291Y-5.2397
X4.8487Y-5.1806
X4.8487Y-5.22
X4.8487Y-5.2594
X6.0913Y-3.2006
X6.0913Y-3.24
X6.0913Y-3.2794
X6.0913Y-3.4906
X6.0913Y-3.53
X6.0913Y-3.5694
X6.0913Y-3.7806
X6.0913Y-3.82
X6.0913Y-3.8594
X6.1109Y-3.2203
X6.1109Y-3.2597
X6.1109Y-3.5103
X6.1109Y-3.5497
X6.1109Y-3.8003
X6.1109Y-3.8397
X6.1306Y-3.2006
X6.1306Y-3.24
X6.1306Y-3.2794
X6.1306Y-3.4906
X6.1306Y-3.53
X6.1306Y-3.5694
X6.1306Y-3.7806
X6.1306Y-3.82
X6.1306Y-3.8594
X6.1498Y-3.2596
X6.1498Y-3.5496
X6.1498Y-3.8396
X6.1503Y-3.2203
X6.1503Y-3.5103
X6.1503Y-3.8003
X6.17Y-3.2006
X6.17Y-3.24
X6.17Y-3.2794
X6.17Y-3.4906
X6.17Y-3.53
X6.17Y-3.5694
X6.17Y-3.7806
X6.17Y-3.82
X6.17Y-3.8594
X6.1897Y-3.2203
X6.1897Y-3.2597
X6.1897Y-3.5103
X6.1897Y-3.5497
X6.1897Y-3.8003
X6.1897Y-3.8397
X6.2094Y-3.2006
X6.2094Y-3.24
X6.2094Y-3.2794
X6.2094Y-3.4906
X6.2094Y-3.53
X6.2094Y-3.5694
X6.2094Y-3.7806
X6.2094Y-3.82
X6.2094Y-3.8594
X6.2291Y-3.2203
X6.2291Y-3.2597
X6.2291Y-3.5103
X6.2291Y-3.5497
X6.2291Y-3.8003
X6.2291Y-3.8397
X6.2487Y-3.2006
X6.2487Y-3.24
X6.2487Y-3.2794
X6.2487Y-3.4906
X6.2487Y-3.53
X6.2487Y-3.5694
X6.2487Y-3.7806
X6.2487Y-3.82
X6.2487Y-3.8594
T3
X4.691Y-3.2204
X4.691Y-3.3204
X4.691Y-3.4204
X4.691Y-3.5204
X5.1446Y-2.9376
X5.1446Y-3.0376
X5.1446Y-3.1376
X5.1446Y-3.2376
X5.1446Y-3.3376
X5.1446Y-3.4376
X5.1446Y-3.5376
X5.1446Y-3.6376
X5.1446Y-3.7376
X5.1446Y-3.8376
X5.1446Y-3.9376
X5.1446Y-4.0376
X5.1446Y-4.1376
X5.1446Y-4.2376
X5.1446Y-4.3376
X5.1446Y-4.4376
X5.1446Y-4.5376
X5.1446Y-4.6376
X5.1446Y-4.7376
X5.1446Y-4.8376
X5.8446Y-2.9376
X5.8446Y-3.0376
X5.8446Y-3.1376
X5.8446Y-3.2376
X5.8446Y-3.3376
X5.8446Y-3.4376
X5.8446Y-3.5376
X5.8446Y-3.6376
X5.8446Y-3.7376
X5.8446Y-3.8376
X5.8446Y-3.9376
X5.8446Y-4.0376
X5.8446Y-4.1376
X5.8446Y-4.2376
X5.8446Y-4.3376
X5.8446Y-4.4376
X5.8446Y-4.5376
X5.8446Y-4.6376
X5.8446Y-4.7376
X5.8446Y-4.8376
T4
X4.1452Y-4.21
X4.1452Y-4.31
X4.1452Y-4.51
X4.1452Y-4.61
X4.1452Y-4.81
X4.1452Y-4.91
M30
