%TF.GenerationSoftware,KiCad,Pcbnew,9.0.0*%
%TF.CreationDate,2025-06-15T18:58:11-04:00*%
%TF.ProjectId,data-logger,64617461-2d6c-46f6-9767-65722e6b6963,rev?*%
%TF.SameCoordinates,Original*%
%TF.FileFunction,Paste,Top*%
%TF.FilePolarity,Positive*%
%FSLAX46Y46*%
G04 Gerber Fmt 4.6, Leading zero omitted, Abs format (unit mm)*
G04 Created by KiCad (PCBNEW 9.0.0) date 2025-06-15 18:58:11*
%MOMM*%
%LPD*%
G01*
G04 APERTURE LIST*
G04 Aperture macros list*
%AMRoundRect*
0 Rectangle with rounded corners*
0 $1 Rounding radius*
0 $2 $3 $4 $5 $6 $7 $8 $9 X,Y pos of 4 corners*
0 Add a 4 corners polygon primitive as box body*
4,1,4,$2,$3,$4,$5,$6,$7,$8,$9,$2,$3,0*
0 Add four circle primitives for the rounded corners*
1,1,$1+$1,$2,$3*
1,1,$1+$1,$4,$5*
1,1,$1+$1,$6,$7*
1,1,$1+$1,$8,$9*
0 Add four rect primitives between the rounded corners*
20,1,$1+$1,$2,$3,$4,$5,0*
20,1,$1+$1,$4,$5,$6,$7,0*
20,1,$1+$1,$6,$7,$8,$9,0*
20,1,$1+$1,$8,$9,$2,$3,0*%
G04 Aperture macros list end*
%ADD10R,4.699000X3.429000*%
%ADD11RoundRect,0.225000X-0.225000X-0.250000X0.225000X-0.250000X0.225000X0.250000X-0.225000X0.250000X0*%
%ADD12R,0.700000X1.750000*%
%ADD13R,1.450000X1.000000*%
%ADD14R,1.000000X1.550000*%
%ADD15R,0.800000X1.500000*%
%ADD16R,1.300000X1.500000*%
%ADD17R,1.500000X1.500000*%
%ADD18R,0.800000X1.400000*%
%ADD19RoundRect,0.150000X-0.825000X-0.150000X0.825000X-0.150000X0.825000X0.150000X-0.825000X0.150000X0*%
%ADD20RoundRect,0.237500X0.250000X0.237500X-0.250000X0.237500X-0.250000X-0.237500X0.250000X-0.237500X0*%
%ADD21RoundRect,0.237500X-0.250000X-0.237500X0.250000X-0.237500X0.250000X0.237500X-0.250000X0.237500X0*%
%ADD22RoundRect,0.150000X-0.700000X0.150000X-0.700000X-0.150000X0.700000X-0.150000X0.700000X0.150000X0*%
%ADD23RoundRect,0.250000X-1.100000X0.250000X-1.100000X-0.250000X1.100000X-0.250000X1.100000X0.250000X0*%
%ADD24RoundRect,0.225000X-0.250000X0.225000X-0.250000X-0.225000X0.250000X-0.225000X0.250000X0.225000X0*%
%ADD25RoundRect,0.225000X0.250000X-0.225000X0.250000X0.225000X-0.250000X0.225000X-0.250000X-0.225000X0*%
%ADD26RoundRect,0.150000X0.700000X-0.150000X0.700000X0.150000X-0.700000X0.150000X-0.700000X-0.150000X0*%
%ADD27RoundRect,0.250000X1.100000X-0.250000X1.100000X0.250000X-1.100000X0.250000X-1.100000X-0.250000X0*%
G04 APERTURE END LIST*
D10*
%TO.C,TP5*%
X121158000Y-132588000D03*
%TD*%
D11*
%TO.C,C10*%
X115811000Y-112014000D03*
X117361000Y-112014000D03*
%TD*%
D10*
%TO.C,TP3*%
X114554000Y-132588000D03*
%TD*%
%TO.C,TP4*%
X156718000Y-82296000D03*
%TD*%
D12*
%TO.C,J7*%
X142621000Y-138700000D03*
X141521000Y-138700000D03*
X140421000Y-138700000D03*
X139321000Y-138700000D03*
X138221000Y-138700000D03*
X137121000Y-138700000D03*
X136021000Y-138700000D03*
X134921000Y-138700000D03*
D13*
X133796000Y-129475000D03*
D14*
X145021000Y-127900000D03*
D15*
X133471000Y-130975000D03*
D16*
X133721000Y-138575000D03*
D17*
X145071000Y-138575000D03*
D18*
X145421000Y-130325000D03*
%TD*%
D19*
%TO.C,U5*%
X115635000Y-121745000D03*
X115635000Y-123015000D03*
X115635000Y-124285000D03*
X115635000Y-125555000D03*
X120585000Y-125555000D03*
X120585000Y-124285000D03*
X120585000Y-123015000D03*
X120585000Y-121745000D03*
%TD*%
D10*
%TO.C,TP2*%
X156718000Y-97028000D03*
%TD*%
D11*
%TO.C,C8*%
X115811000Y-119634000D03*
X117361000Y-119634000D03*
%TD*%
D20*
%TO.C,R3*%
X125118500Y-96012000D03*
X123293500Y-96012000D03*
%TD*%
D21*
%TO.C,R5*%
X113895500Y-84358000D03*
X115720500Y-84358000D03*
%TD*%
D10*
%TO.C,TP1*%
X156718000Y-89662000D03*
%TD*%
D20*
%TO.C,R2*%
X125118500Y-89408000D03*
X123293500Y-89408000D03*
%TD*%
D11*
%TO.C,C5*%
X115811000Y-127254000D03*
X117361000Y-127254000D03*
%TD*%
D20*
%TO.C,R1*%
X125118500Y-86868000D03*
X123293500Y-86868000D03*
%TD*%
D22*
%TO.C,J8*%
X106752000Y-95661000D03*
X106752000Y-96911000D03*
X106752000Y-98161000D03*
X106752000Y-99411000D03*
D23*
X103552000Y-93811000D03*
X103552000Y-101261000D03*
%TD*%
D19*
%TO.C,U4*%
X115635000Y-114149000D03*
X115635000Y-115419000D03*
X115635000Y-116689000D03*
X115635000Y-117959000D03*
X120585000Y-117959000D03*
X120585000Y-116689000D03*
X120585000Y-115419000D03*
X120585000Y-114149000D03*
%TD*%
D22*
%TO.C,J5*%
X106752000Y-83723000D03*
X106752000Y-84973000D03*
X106752000Y-86223000D03*
X106752000Y-87473000D03*
D23*
X103552000Y-81873000D03*
X103552000Y-89323000D03*
%TD*%
D24*
%TO.C,C12*%
X127762000Y-135115000D03*
X127762000Y-136665000D03*
%TD*%
D25*
%TO.C,C9*%
X112268000Y-124219000D03*
X112268000Y-122669000D03*
%TD*%
D19*
%TO.C,U3*%
X115635000Y-106553000D03*
X115635000Y-107823000D03*
X115635000Y-109093000D03*
X115635000Y-110363000D03*
X120585000Y-110363000D03*
X120585000Y-109093000D03*
X120585000Y-107823000D03*
X120585000Y-106553000D03*
%TD*%
D25*
%TO.C,C7*%
X112268000Y-116599000D03*
X112268000Y-115049000D03*
%TD*%
D26*
%TO.C,J6*%
X154868000Y-108555000D03*
X154868000Y-107305000D03*
X154868000Y-106055000D03*
X154868000Y-104805000D03*
D27*
X158068000Y-110405000D03*
X158068000Y-102955000D03*
%TD*%
D22*
%TO.C,J4*%
X119452000Y-95661000D03*
X119452000Y-96911000D03*
X119452000Y-98161000D03*
X119452000Y-99411000D03*
D23*
X116252000Y-93811000D03*
X116252000Y-101261000D03*
%TD*%
D20*
%TO.C,R4*%
X125118500Y-98522000D03*
X123293500Y-98522000D03*
%TD*%
D24*
%TO.C,C11*%
X130556000Y-135115000D03*
X130556000Y-136665000D03*
%TD*%
D25*
%TO.C,C6*%
X112268000Y-108979000D03*
X112268000Y-107429000D03*
%TD*%
D20*
%TO.C,R6*%
X125118500Y-84328000D03*
X123293500Y-84328000D03*
%TD*%
M02*
