%TF.GenerationSoftware,KiCad,Pcbnew,9.0.0*%
%TF.CreationDate,2025-06-15T18:58:11-04:00*%
%TF.ProjectId,data-logger,64617461-2d6c-46f6-9767-65722e6b6963,rev?*%
%TF.SameCoordinates,Original*%
%TF.FileFunction,Legend,Top*%
%TF.FilePolarity,Positive*%
%FSLAX46Y46*%
G04 Gerber Fmt 4.6, Leading zero omitted, Abs format (unit mm)*
G04 Created by KiCad (PCBNEW 9.0.0) date 2025-06-15 18:58:11*
%MOMM*%
%LPD*%
G01*
G04 APERTURE LIST*
%ADD10C,0.200000*%
%ADD11C,0.100000*%
%ADD12C,0.177000*%
%ADD13C,0.150000*%
%ADD14C,0.120000*%
G04 APERTURE END LIST*
D10*
G36*
X150142479Y-127950473D02*
G01*
X150135686Y-127990115D01*
X150083217Y-128241345D01*
X150029133Y-128451348D01*
X149974140Y-128625039D01*
X149907758Y-128794383D01*
X149828366Y-128961091D01*
X149735543Y-129125497D01*
X149593656Y-129339402D01*
X149455143Y-129512311D01*
X149319813Y-129649439D01*
X149187211Y-129755354D01*
X149056590Y-129833890D01*
X148926905Y-129888044D01*
X148796836Y-129919879D01*
X148664835Y-129930436D01*
X148554575Y-129923481D01*
X148445842Y-129902597D01*
X148337834Y-129867437D01*
X148235078Y-129819412D01*
X148147526Y-129763071D01*
X148073460Y-129698539D01*
X148005079Y-129614038D01*
X147956492Y-129520343D01*
X147926763Y-129415605D01*
X147916474Y-129297280D01*
X147924049Y-129204103D01*
X147946178Y-129119025D01*
X147982647Y-129040522D01*
X148034143Y-128967426D01*
X148102215Y-128898998D01*
X148199172Y-128830065D01*
X148307134Y-128780495D01*
X148428154Y-128749927D01*
X148564892Y-128739313D01*
X148702995Y-128748027D01*
X148847983Y-128774917D01*
X149001162Y-128821501D01*
X149163838Y-128889800D01*
X149337300Y-128982289D01*
X149522816Y-129101861D01*
X149401842Y-129182355D01*
X149257892Y-129085525D01*
X149100375Y-128999563D01*
X148928185Y-128924588D01*
X148749188Y-128864968D01*
X148597965Y-128832593D01*
X148470160Y-128822691D01*
X148364365Y-128830570D01*
X148271814Y-128853122D01*
X148190334Y-128889415D01*
X148118221Y-128939477D01*
X148056891Y-129002709D01*
X148014223Y-129072154D01*
X147988500Y-129149190D01*
X147979659Y-129235955D01*
X147985758Y-129312655D01*
X148004293Y-129389761D01*
X148036052Y-129468132D01*
X148078488Y-129541485D01*
X148130298Y-129607482D01*
X148192014Y-129666714D01*
X148251643Y-129709393D01*
X148327071Y-129748601D01*
X148421120Y-129783779D01*
X148566046Y-129817987D01*
X148708571Y-129829191D01*
X148838587Y-129820066D01*
X148962217Y-129793036D01*
X149080813Y-129748054D01*
X149195509Y-129684328D01*
X149307172Y-129600355D01*
X149416373Y-129493971D01*
X149523374Y-129362419D01*
X149604901Y-129239618D01*
X149685200Y-129096926D01*
X149764018Y-128932219D01*
X149832726Y-128762857D01*
X149883201Y-128609135D01*
X149917469Y-128469542D01*
X149964369Y-128234016D01*
X149992472Y-128091546D01*
X149999079Y-128054789D01*
X149907884Y-128060372D01*
X149811105Y-128060372D01*
X149764321Y-128063508D01*
X149720282Y-128072749D01*
X149658909Y-128100987D01*
X149611499Y-128145798D01*
X149580735Y-128202752D01*
X149570461Y-128266958D01*
X149578800Y-128329688D01*
X149603961Y-128388676D01*
X149646248Y-128446662D01*
X149724655Y-128528633D01*
X149776475Y-128587361D01*
X149803005Y-128636864D01*
X149810919Y-128679943D01*
X149803994Y-128739088D01*
X149782676Y-128798579D01*
X149745128Y-128859728D01*
X149696770Y-128912280D01*
X149652849Y-128939453D01*
X149611220Y-128947759D01*
X149561481Y-128937902D01*
X149522537Y-128908862D01*
X149497412Y-128865216D01*
X149488478Y-128807337D01*
X149491642Y-128775419D01*
X149544257Y-128836969D01*
X149588693Y-128867392D01*
X149627877Y-128876292D01*
X149670597Y-128869645D01*
X149698636Y-128851843D01*
X149716082Y-128822537D01*
X149722701Y-128777001D01*
X149714450Y-128739867D01*
X149684517Y-128690492D01*
X149621642Y-128623644D01*
X149564408Y-128560816D01*
X149525383Y-128495890D01*
X149502421Y-128427869D01*
X149494713Y-128355269D01*
X149502342Y-128274682D01*
X149524754Y-128200936D01*
X149562122Y-128132471D01*
X149615779Y-128068189D01*
X149680198Y-128014544D01*
X149748685Y-127977206D01*
X149822329Y-127954828D01*
X149902673Y-127947216D01*
X149998521Y-127947216D01*
X150087018Y-127947216D01*
X150142479Y-127950473D01*
G37*
G36*
X150660525Y-129216414D02*
G01*
X150682393Y-129248053D01*
X150604099Y-129297302D01*
X150503534Y-129341701D01*
X150376330Y-129380193D01*
X150388447Y-129307388D01*
X150426508Y-129191021D01*
X150503352Y-129014388D01*
X150411515Y-129117397D01*
X150319935Y-129204952D01*
X150228463Y-129278389D01*
X150128795Y-129342325D01*
X150055461Y-129373729D01*
X150001592Y-129382520D01*
X149968657Y-129376666D01*
X149946157Y-129360447D01*
X149931486Y-129332433D01*
X149925751Y-129287230D01*
X149933416Y-129212423D01*
X149957572Y-129131935D01*
X150000828Y-129044047D01*
X150066824Y-128947108D01*
X150168081Y-128833374D01*
X150285558Y-128733547D01*
X150420718Y-128647094D01*
X150544389Y-128586879D01*
X150664687Y-128545328D01*
X150782562Y-128521001D01*
X150899029Y-128512999D01*
X150927059Y-128520505D01*
X150935321Y-128540451D01*
X150929413Y-128565403D01*
X150902658Y-128621317D01*
X150830627Y-128611459D01*
X150763632Y-128608289D01*
X150640421Y-128618100D01*
X150525925Y-128646961D01*
X150418391Y-128694816D01*
X150316443Y-128762677D01*
X150219158Y-128852563D01*
X150141110Y-128948582D01*
X150089716Y-129038657D01*
X150060717Y-129124344D01*
X150051377Y-129207480D01*
X150059150Y-129255043D01*
X150078390Y-129279057D01*
X150109816Y-129287230D01*
X150141795Y-129280342D01*
X150188981Y-129254338D01*
X150258055Y-129198361D01*
X150349535Y-129103050D01*
X150432164Y-128991868D01*
X150495938Y-128880255D01*
X150544078Y-128766401D01*
X150577332Y-128649606D01*
X150604218Y-128673597D01*
X150620958Y-128707310D01*
X150627118Y-128754202D01*
X150617767Y-128819398D01*
X150586965Y-128894487D01*
X150528664Y-128982749D01*
X150575587Y-128974557D01*
X150651685Y-128952133D01*
X150640425Y-128975956D01*
X150556731Y-129176206D01*
X150541785Y-129232512D01*
X150548166Y-129252292D01*
X150566724Y-129257452D01*
X150596314Y-129248972D01*
X150660525Y-129216414D01*
G37*
G36*
X151465092Y-129224230D02*
G01*
X151484820Y-129257638D01*
X151396382Y-129311452D01*
X151295942Y-129354138D01*
X151181828Y-129385311D01*
X151207859Y-129269224D01*
X151270544Y-129099243D01*
X151384691Y-128858425D01*
X151452343Y-128729356D01*
X151480532Y-128668365D01*
X151486309Y-128645326D01*
X151480943Y-128626012D01*
X151466394Y-128620200D01*
X151430361Y-128632712D01*
X151345607Y-128692691D01*
X151258336Y-128769842D01*
X151170847Y-128860845D01*
X151061600Y-128998278D01*
X150962597Y-129156050D01*
X150874090Y-129336270D01*
X150818702Y-129353230D01*
X150727246Y-129389685D01*
X150824068Y-129180888D01*
X150923689Y-128942827D01*
X151005767Y-128720779D01*
X151020933Y-128654724D01*
X151013579Y-128628176D01*
X150993667Y-128620200D01*
X150926853Y-128636299D01*
X150912243Y-128640487D01*
X150904891Y-128601217D01*
X151048570Y-128555346D01*
X151170568Y-128506951D01*
X151187597Y-128499041D01*
X151190389Y-128522119D01*
X151180893Y-128585837D01*
X151141818Y-128707651D01*
X151053689Y-128917795D01*
X151036380Y-128947759D01*
X151051828Y-128926077D01*
X151223412Y-128745069D01*
X151367475Y-128619270D01*
X151469013Y-128549850D01*
X151542068Y-128516291D01*
X151594440Y-128507044D01*
X151624993Y-128513438D01*
X151642036Y-128530690D01*
X151648413Y-128561947D01*
X151640342Y-128601011D01*
X151603118Y-128694818D01*
X151511620Y-128882341D01*
X151371230Y-129168979D01*
X151348585Y-129236235D01*
X151355029Y-129256788D01*
X151373710Y-129263407D01*
X151405790Y-129256673D01*
X151457368Y-129230372D01*
X151465092Y-129224230D01*
G37*
G36*
X152294411Y-129224230D02*
G01*
X152314139Y-129257638D01*
X152225702Y-129311452D01*
X152125261Y-129354138D01*
X152011147Y-129385311D01*
X152037179Y-129269224D01*
X152099863Y-129099243D01*
X152214011Y-128858425D01*
X152281663Y-128729356D01*
X152309852Y-128668365D01*
X152315628Y-128645326D01*
X152310263Y-128626012D01*
X152295714Y-128620200D01*
X152259680Y-128632712D01*
X152174927Y-128692691D01*
X152087656Y-128769842D01*
X152000167Y-128860845D01*
X151890920Y-128998278D01*
X151791917Y-129156050D01*
X151703409Y-129336270D01*
X151648021Y-129353230D01*
X151556566Y-129389685D01*
X151653388Y-129180888D01*
X151753009Y-128942827D01*
X151835087Y-128720779D01*
X151850253Y-128654724D01*
X151842898Y-128628176D01*
X151822987Y-128620200D01*
X151756172Y-128636299D01*
X151741563Y-128640487D01*
X151734211Y-128601217D01*
X151877890Y-128555346D01*
X151999887Y-128506951D01*
X152016917Y-128499041D01*
X152019709Y-128522119D01*
X152010213Y-128585837D01*
X151971138Y-128707651D01*
X151883008Y-128917795D01*
X151865700Y-128947759D01*
X151881147Y-128926077D01*
X152052732Y-128745069D01*
X152196795Y-128619270D01*
X152298333Y-128549850D01*
X152371387Y-128516291D01*
X152423760Y-128507044D01*
X152454313Y-128513438D01*
X152471356Y-128530690D01*
X152477733Y-128561947D01*
X152469661Y-128601011D01*
X152432438Y-128694818D01*
X152340940Y-128882341D01*
X152200550Y-129168979D01*
X152177905Y-129236235D01*
X152184348Y-129256788D01*
X152203030Y-129263407D01*
X152235109Y-129256673D01*
X152286688Y-129230372D01*
X152294411Y-129224230D01*
G37*
G36*
X153000896Y-128911467D02*
G01*
X153014815Y-128946079D01*
X153018670Y-128970744D01*
X153011888Y-129016856D01*
X152989597Y-129069429D01*
X152947404Y-129130751D01*
X152879272Y-129203013D01*
X152768141Y-129296882D01*
X152675943Y-129354859D01*
X152598989Y-129385279D01*
X152533660Y-129394431D01*
X152478347Y-129385292D01*
X152441391Y-129360449D01*
X152417906Y-129318664D01*
X152408871Y-129252613D01*
X152418740Y-129149882D01*
X152449630Y-129040495D01*
X152504440Y-128922448D01*
X152574943Y-128812844D01*
X152656462Y-128718228D01*
X152749458Y-128637323D01*
X152846481Y-128572731D01*
X152931547Y-128531061D01*
X153006694Y-128508211D01*
X153073946Y-128501088D01*
X153124593Y-128509522D01*
X153150354Y-128530528D01*
X153159186Y-128565111D01*
X153150551Y-128606519D01*
X153119171Y-128662820D01*
X153074771Y-128716372D01*
X153019508Y-128765276D01*
X152959247Y-128803467D01*
X152878713Y-128841396D01*
X152797332Y-128869074D01*
X152747131Y-128876292D01*
X152717324Y-128869817D01*
X152693728Y-128850349D01*
X152675013Y-128813944D01*
X152749272Y-128822691D01*
X152816151Y-128816004D01*
X152879083Y-128796095D01*
X152939293Y-128762391D01*
X152990880Y-128717477D01*
X153017896Y-128674814D01*
X153026301Y-128632484D01*
X153019812Y-128606373D01*
X153001094Y-128590701D01*
X152964698Y-128584467D01*
X152912148Y-128591837D01*
X152856730Y-128615209D01*
X152796677Y-128657978D01*
X152730567Y-128725261D01*
X152653901Y-128831991D01*
X152590610Y-128957996D01*
X152558648Y-129048195D01*
X152541067Y-129126491D01*
X152535614Y-129194731D01*
X152542045Y-129243898D01*
X152558602Y-129274621D01*
X152584259Y-129292601D01*
X152622156Y-129299141D01*
X152682798Y-129288926D01*
X152749043Y-129255636D01*
X152823810Y-129192498D01*
X152887800Y-129117127D01*
X152946944Y-129024315D01*
X153000896Y-128911467D01*
G37*
G36*
X153623724Y-128512999D02*
G01*
X153607439Y-128548733D01*
X153460596Y-128548733D01*
X153453058Y-128564739D01*
X153345857Y-128807616D01*
X153245914Y-129033930D01*
X153183044Y-129188234D01*
X153170166Y-129245540D01*
X153175132Y-129269103D01*
X153188565Y-129282285D01*
X153212972Y-129287230D01*
X153247928Y-129281829D01*
X153296933Y-129262341D01*
X153364934Y-129222462D01*
X153384569Y-129254474D01*
X153316348Y-129299593D01*
X153239028Y-129337294D01*
X153160989Y-129363358D01*
X153105771Y-129370608D01*
X153058015Y-129362318D01*
X153033324Y-129341383D01*
X153024719Y-129306306D01*
X153039003Y-129244875D01*
X153112471Y-129059893D01*
X153220696Y-128813665D01*
X153325757Y-128568554D01*
X153334411Y-128548733D01*
X153197897Y-128548733D01*
X153215299Y-128512999D01*
X153230746Y-128512999D01*
X153310509Y-128504545D01*
X153349114Y-128485268D01*
X153378657Y-128443120D01*
X153432865Y-128324467D01*
X153455571Y-128328375D01*
X153505393Y-128324353D01*
X153559422Y-128311718D01*
X153516709Y-128417244D01*
X153485349Y-128492899D01*
X153476788Y-128512999D01*
X153623724Y-128512999D01*
G37*
G36*
X154046573Y-128512999D02*
G01*
X154030288Y-128548733D01*
X153883445Y-128548733D01*
X153875907Y-128564739D01*
X153768706Y-128807616D01*
X153668763Y-129033930D01*
X153605893Y-129188234D01*
X153593015Y-129245540D01*
X153597981Y-129269103D01*
X153611414Y-129282285D01*
X153635821Y-129287230D01*
X153670777Y-129281829D01*
X153719782Y-129262341D01*
X153787782Y-129222462D01*
X153807417Y-129254474D01*
X153739197Y-129299593D01*
X153661877Y-129337294D01*
X153583837Y-129363358D01*
X153528620Y-129370608D01*
X153480864Y-129362318D01*
X153456173Y-129341383D01*
X153447568Y-129306306D01*
X153461851Y-129244875D01*
X153535320Y-129059893D01*
X153643545Y-128813665D01*
X153748606Y-128568554D01*
X153757260Y-128548733D01*
X153620746Y-128548733D01*
X153638148Y-128512999D01*
X153653595Y-128512999D01*
X153733358Y-128504545D01*
X153771963Y-128485268D01*
X153801506Y-128443120D01*
X153855714Y-128324467D01*
X153878420Y-128328375D01*
X153928242Y-128324353D01*
X153982271Y-128311718D01*
X153939558Y-128417244D01*
X153908198Y-128492899D01*
X153899636Y-128512999D01*
X154046573Y-128512999D01*
G37*
G36*
X157458664Y-127924931D02*
G01*
X157520951Y-127946150D01*
X157573322Y-127980437D01*
X157614455Y-128026604D01*
X157638753Y-128079703D01*
X157647116Y-128142076D01*
X157636893Y-128224210D01*
X157605765Y-128303956D01*
X157551256Y-128383314D01*
X157468726Y-128463586D01*
X157376831Y-128528966D01*
X157271726Y-128584278D01*
X157151786Y-128629277D01*
X157015076Y-128663286D01*
X156897380Y-128822084D01*
X156711991Y-129041188D01*
X156510830Y-129257755D01*
X156327295Y-129436213D01*
X156328412Y-129330501D01*
X156318187Y-129037310D01*
X156287839Y-128752713D01*
X156285699Y-128738475D01*
X156255548Y-128774953D01*
X156162864Y-128884202D01*
X156007832Y-129070315D01*
X155749693Y-129396943D01*
X155724568Y-129425884D01*
X155716744Y-129104995D01*
X155691254Y-128720795D01*
X155675664Y-128570306D01*
X155664546Y-128513185D01*
X155645104Y-128481115D01*
X155616157Y-128471310D01*
X155589765Y-128476380D01*
X155538827Y-128497645D01*
X155517517Y-128457724D01*
X155536687Y-128445626D01*
X155645842Y-128383372D01*
X155747832Y-128320279D01*
X155775470Y-128303157D01*
X155807539Y-128527055D01*
X155829513Y-128823455D01*
X155837725Y-129207108D01*
X156013601Y-128991682D01*
X156266622Y-128690923D01*
X156275090Y-128680594D01*
X156271703Y-128663844D01*
X156396622Y-128663844D01*
X156423141Y-128805648D01*
X156441126Y-128989447D01*
X156447803Y-129223486D01*
X156447803Y-129253078D01*
X156577190Y-129123265D01*
X156715806Y-128964137D01*
X156841467Y-128800396D01*
X156922578Y-128674266D01*
X156724926Y-128679757D01*
X156417560Y-128665333D01*
X156396622Y-128663844D01*
X156271703Y-128663844D01*
X156271647Y-128663565D01*
X156179737Y-128671482D01*
X156110366Y-128692846D01*
X156058421Y-128725471D01*
X156020359Y-128769233D01*
X155994655Y-128826086D01*
X155982055Y-128899742D01*
X155957174Y-128869324D01*
X155949392Y-128836371D01*
X155958625Y-128786584D01*
X155988879Y-128732669D01*
X156047009Y-128672033D01*
X156115392Y-128622413D01*
X156182475Y-128590767D01*
X156244309Y-128576092D01*
X156435334Y-128576092D01*
X156664887Y-128591662D01*
X156850831Y-128596378D01*
X156963616Y-128593214D01*
X156995947Y-128516854D01*
X157005119Y-128459306D01*
X156996904Y-128432889D01*
X156970423Y-128413967D01*
X156914203Y-128403379D01*
X156889543Y-128402262D01*
X156889543Y-128358153D01*
X157161733Y-128358153D01*
X157127071Y-128466355D01*
X157066164Y-128582699D01*
X157203360Y-128551157D01*
X157302433Y-128514515D01*
X157371668Y-128474567D01*
X157444525Y-128411200D01*
X157493497Y-128344094D01*
X157522156Y-128272095D01*
X157531819Y-128193071D01*
X157524693Y-128138482D01*
X157504167Y-128092799D01*
X157469750Y-128053858D01*
X157425594Y-128025224D01*
X157371478Y-128007246D01*
X157304761Y-128000816D01*
X157214430Y-128009265D01*
X157116098Y-128035974D01*
X157007772Y-128083816D01*
X156887470Y-128156660D01*
X156753248Y-128259233D01*
X156603179Y-128397000D01*
X156435334Y-128576092D01*
X156244309Y-128576092D01*
X156249407Y-128574882D01*
X156197000Y-128445540D01*
X156130488Y-128333525D01*
X156049855Y-128236808D01*
X155954324Y-128153987D01*
X155846855Y-128087531D01*
X155730659Y-128039929D01*
X155604116Y-128010818D01*
X155465219Y-128000816D01*
X155335413Y-128009000D01*
X155219521Y-128032554D01*
X155115574Y-128070487D01*
X155021924Y-128122515D01*
X154937310Y-128189070D01*
X154863849Y-128268665D01*
X154807372Y-128355747D01*
X154766754Y-128451382D01*
X154741777Y-128557122D01*
X154733144Y-128674918D01*
X154740783Y-128785125D01*
X154762959Y-128885101D01*
X154799087Y-128976430D01*
X154849294Y-129060406D01*
X154914418Y-129137967D01*
X154990816Y-129204747D01*
X155073227Y-129256001D01*
X155162548Y-129292740D01*
X155260053Y-129315229D01*
X155367324Y-129322963D01*
X155467267Y-129312727D01*
X155475176Y-129337666D01*
X155373009Y-129361792D01*
X155244489Y-129370608D01*
X155137990Y-129363076D01*
X155041791Y-129341242D01*
X154954274Y-129305705D01*
X154874129Y-129256322D01*
X154800424Y-129192219D01*
X154737711Y-129117559D01*
X154689215Y-129036135D01*
X154654205Y-128946979D01*
X154632645Y-128848766D01*
X154625198Y-128739871D01*
X154635919Y-128602402D01*
X154667098Y-128477946D01*
X154718166Y-128364228D01*
X154789785Y-128259481D01*
X154883802Y-128162548D01*
X154990621Y-128082161D01*
X155108098Y-128019308D01*
X155237704Y-127973523D01*
X155381338Y-127945143D01*
X155541247Y-127935304D01*
X155673208Y-127942511D01*
X155791770Y-127963263D01*
X155898616Y-127996602D01*
X155995207Y-128042054D01*
X156082742Y-128099642D01*
X156179559Y-128188346D01*
X156260812Y-128294862D01*
X156327013Y-128421478D01*
X156377639Y-128571346D01*
X156595323Y-128345685D01*
X156777024Y-128183029D01*
X156927975Y-128071539D01*
X157051297Y-128001063D01*
X157167444Y-127953528D01*
X157277810Y-127926266D01*
X157383859Y-127917438D01*
X157458664Y-127924931D01*
G37*
D11*
X147090484Y-126897819D02*
X147090484Y-125897819D01*
X147090484Y-125897819D02*
X147328579Y-125897819D01*
X147328579Y-125897819D02*
X147471436Y-125945438D01*
X147471436Y-125945438D02*
X147566674Y-126040676D01*
X147566674Y-126040676D02*
X147614293Y-126135914D01*
X147614293Y-126135914D02*
X147661912Y-126326390D01*
X147661912Y-126326390D02*
X147661912Y-126469247D01*
X147661912Y-126469247D02*
X147614293Y-126659723D01*
X147614293Y-126659723D02*
X147566674Y-126754961D01*
X147566674Y-126754961D02*
X147471436Y-126850200D01*
X147471436Y-126850200D02*
X147328579Y-126897819D01*
X147328579Y-126897819D02*
X147090484Y-126897819D01*
X148519055Y-126897819D02*
X148519055Y-126374009D01*
X148519055Y-126374009D02*
X148471436Y-126278771D01*
X148471436Y-126278771D02*
X148376198Y-126231152D01*
X148376198Y-126231152D02*
X148185722Y-126231152D01*
X148185722Y-126231152D02*
X148090484Y-126278771D01*
X148519055Y-126850200D02*
X148423817Y-126897819D01*
X148423817Y-126897819D02*
X148185722Y-126897819D01*
X148185722Y-126897819D02*
X148090484Y-126850200D01*
X148090484Y-126850200D02*
X148042865Y-126754961D01*
X148042865Y-126754961D02*
X148042865Y-126659723D01*
X148042865Y-126659723D02*
X148090484Y-126564485D01*
X148090484Y-126564485D02*
X148185722Y-126516866D01*
X148185722Y-126516866D02*
X148423817Y-126516866D01*
X148423817Y-126516866D02*
X148519055Y-126469247D01*
X148852389Y-126231152D02*
X149233341Y-126231152D01*
X148995246Y-125897819D02*
X148995246Y-126754961D01*
X148995246Y-126754961D02*
X149042865Y-126850200D01*
X149042865Y-126850200D02*
X149138103Y-126897819D01*
X149138103Y-126897819D02*
X149233341Y-126897819D01*
X149995246Y-126897819D02*
X149995246Y-126374009D01*
X149995246Y-126374009D02*
X149947627Y-126278771D01*
X149947627Y-126278771D02*
X149852389Y-126231152D01*
X149852389Y-126231152D02*
X149661913Y-126231152D01*
X149661913Y-126231152D02*
X149566675Y-126278771D01*
X149995246Y-126850200D02*
X149900008Y-126897819D01*
X149900008Y-126897819D02*
X149661913Y-126897819D01*
X149661913Y-126897819D02*
X149566675Y-126850200D01*
X149566675Y-126850200D02*
X149519056Y-126754961D01*
X149519056Y-126754961D02*
X149519056Y-126659723D01*
X149519056Y-126659723D02*
X149566675Y-126564485D01*
X149566675Y-126564485D02*
X149661913Y-126516866D01*
X149661913Y-126516866D02*
X149900008Y-126516866D01*
X149900008Y-126516866D02*
X149995246Y-126469247D01*
X151709532Y-126897819D02*
X151233342Y-126897819D01*
X151233342Y-126897819D02*
X151233342Y-125897819D01*
X152185723Y-126897819D02*
X152090485Y-126850200D01*
X152090485Y-126850200D02*
X152042866Y-126802580D01*
X152042866Y-126802580D02*
X151995247Y-126707342D01*
X151995247Y-126707342D02*
X151995247Y-126421628D01*
X151995247Y-126421628D02*
X152042866Y-126326390D01*
X152042866Y-126326390D02*
X152090485Y-126278771D01*
X152090485Y-126278771D02*
X152185723Y-126231152D01*
X152185723Y-126231152D02*
X152328580Y-126231152D01*
X152328580Y-126231152D02*
X152423818Y-126278771D01*
X152423818Y-126278771D02*
X152471437Y-126326390D01*
X152471437Y-126326390D02*
X152519056Y-126421628D01*
X152519056Y-126421628D02*
X152519056Y-126707342D01*
X152519056Y-126707342D02*
X152471437Y-126802580D01*
X152471437Y-126802580D02*
X152423818Y-126850200D01*
X152423818Y-126850200D02*
X152328580Y-126897819D01*
X152328580Y-126897819D02*
X152185723Y-126897819D01*
X153376199Y-126231152D02*
X153376199Y-127040676D01*
X153376199Y-127040676D02*
X153328580Y-127135914D01*
X153328580Y-127135914D02*
X153280961Y-127183533D01*
X153280961Y-127183533D02*
X153185723Y-127231152D01*
X153185723Y-127231152D02*
X153042866Y-127231152D01*
X153042866Y-127231152D02*
X152947628Y-127183533D01*
X153376199Y-126850200D02*
X153280961Y-126897819D01*
X153280961Y-126897819D02*
X153090485Y-126897819D01*
X153090485Y-126897819D02*
X152995247Y-126850200D01*
X152995247Y-126850200D02*
X152947628Y-126802580D01*
X152947628Y-126802580D02*
X152900009Y-126707342D01*
X152900009Y-126707342D02*
X152900009Y-126421628D01*
X152900009Y-126421628D02*
X152947628Y-126326390D01*
X152947628Y-126326390D02*
X152995247Y-126278771D01*
X152995247Y-126278771D02*
X153090485Y-126231152D01*
X153090485Y-126231152D02*
X153280961Y-126231152D01*
X153280961Y-126231152D02*
X153376199Y-126278771D01*
X154280961Y-126231152D02*
X154280961Y-127040676D01*
X154280961Y-127040676D02*
X154233342Y-127135914D01*
X154233342Y-127135914D02*
X154185723Y-127183533D01*
X154185723Y-127183533D02*
X154090485Y-127231152D01*
X154090485Y-127231152D02*
X153947628Y-127231152D01*
X153947628Y-127231152D02*
X153852390Y-127183533D01*
X154280961Y-126850200D02*
X154185723Y-126897819D01*
X154185723Y-126897819D02*
X153995247Y-126897819D01*
X153995247Y-126897819D02*
X153900009Y-126850200D01*
X153900009Y-126850200D02*
X153852390Y-126802580D01*
X153852390Y-126802580D02*
X153804771Y-126707342D01*
X153804771Y-126707342D02*
X153804771Y-126421628D01*
X153804771Y-126421628D02*
X153852390Y-126326390D01*
X153852390Y-126326390D02*
X153900009Y-126278771D01*
X153900009Y-126278771D02*
X153995247Y-126231152D01*
X153995247Y-126231152D02*
X154185723Y-126231152D01*
X154185723Y-126231152D02*
X154280961Y-126278771D01*
X155138104Y-126850200D02*
X155042866Y-126897819D01*
X155042866Y-126897819D02*
X154852390Y-126897819D01*
X154852390Y-126897819D02*
X154757152Y-126850200D01*
X154757152Y-126850200D02*
X154709533Y-126754961D01*
X154709533Y-126754961D02*
X154709533Y-126374009D01*
X154709533Y-126374009D02*
X154757152Y-126278771D01*
X154757152Y-126278771D02*
X154852390Y-126231152D01*
X154852390Y-126231152D02*
X155042866Y-126231152D01*
X155042866Y-126231152D02*
X155138104Y-126278771D01*
X155138104Y-126278771D02*
X155185723Y-126374009D01*
X155185723Y-126374009D02*
X155185723Y-126469247D01*
X155185723Y-126469247D02*
X154709533Y-126564485D01*
X155614295Y-126897819D02*
X155614295Y-126231152D01*
X155614295Y-126421628D02*
X155661914Y-126326390D01*
X155661914Y-126326390D02*
X155709533Y-126278771D01*
X155709533Y-126278771D02*
X155804771Y-126231152D01*
X155804771Y-126231152D02*
X155900009Y-126231152D01*
X156852391Y-125897819D02*
X157185724Y-126897819D01*
X157185724Y-126897819D02*
X157519057Y-125897819D01*
X158042867Y-125897819D02*
X158138105Y-125897819D01*
X158138105Y-125897819D02*
X158233343Y-125945438D01*
X158233343Y-125945438D02*
X158280962Y-125993057D01*
X158280962Y-125993057D02*
X158328581Y-126088295D01*
X158328581Y-126088295D02*
X158376200Y-126278771D01*
X158376200Y-126278771D02*
X158376200Y-126516866D01*
X158376200Y-126516866D02*
X158328581Y-126707342D01*
X158328581Y-126707342D02*
X158280962Y-126802580D01*
X158280962Y-126802580D02*
X158233343Y-126850200D01*
X158233343Y-126850200D02*
X158138105Y-126897819D01*
X158138105Y-126897819D02*
X158042867Y-126897819D01*
X158042867Y-126897819D02*
X157947629Y-126850200D01*
X157947629Y-126850200D02*
X157900010Y-126802580D01*
X157900010Y-126802580D02*
X157852391Y-126707342D01*
X157852391Y-126707342D02*
X157804772Y-126516866D01*
X157804772Y-126516866D02*
X157804772Y-126278771D01*
X157804772Y-126278771D02*
X157852391Y-126088295D01*
X157852391Y-126088295D02*
X157900010Y-125993057D01*
X157900010Y-125993057D02*
X157947629Y-125945438D01*
X157947629Y-125945438D02*
X158042867Y-125897819D01*
X159328581Y-126897819D02*
X158757153Y-126897819D01*
X159042867Y-126897819D02*
X159042867Y-125897819D01*
X159042867Y-125897819D02*
X158947629Y-126040676D01*
X158947629Y-126040676D02*
X158852391Y-126135914D01*
X158852391Y-126135914D02*
X158757153Y-126183533D01*
D12*
X143573100Y-138760200D02*
G75*
G02*
X143396100Y-138760200I-88500J0D01*
G01*
X143396100Y-138760200D02*
G75*
G02*
X143573100Y-138760200I88500J0D01*
G01*
X114464700Y-121183400D02*
G75*
G02*
X114287700Y-121183400I-88500J0D01*
G01*
X114287700Y-121183400D02*
G75*
G02*
X114464700Y-121183400I88500J0D01*
G01*
X114439300Y-113639600D02*
G75*
G02*
X114262300Y-113639600I-88500J0D01*
G01*
X114262300Y-113639600D02*
G75*
G02*
X114439300Y-113639600I88500J0D01*
G01*
X114388500Y-105993000D02*
G75*
G02*
X114211500Y-105993000I-88500J0D01*
G01*
X114211500Y-105993000D02*
G75*
G02*
X114388500Y-105993000I88500J0D01*
G01*
X121119500Y-80162400D02*
G75*
G02*
X120942500Y-80162400I-88500J0D01*
G01*
X120942500Y-80162400D02*
G75*
G02*
X121119500Y-80162400I88500J0D01*
G01*
X108216300Y-83743800D02*
G75*
G02*
X108039300Y-83743800I-88500J0D01*
G01*
X108039300Y-83743800D02*
G75*
G02*
X108216300Y-83743800I88500J0D01*
G01*
X120916300Y-95681800D02*
G75*
G02*
X120739300Y-95681800I-88500J0D01*
G01*
X120739300Y-95681800D02*
G75*
G02*
X120916300Y-95681800I88500J0D01*
G01*
X108292500Y-95707200D02*
G75*
G02*
X108115500Y-95707200I-88500J0D01*
G01*
X108115500Y-95707200D02*
G75*
G02*
X108292500Y-95707200I88500J0D01*
G01*
X153606100Y-108661200D02*
G75*
G02*
X153429100Y-108661200I-88500J0D01*
G01*
X153429100Y-108661200D02*
G75*
G02*
X153606100Y-108661200I88500J0D01*
G01*
D13*
X109874207Y-107987875D02*
X109540874Y-107511684D01*
X109302779Y-107987875D02*
X109302779Y-106987875D01*
X109302779Y-106987875D02*
X109683731Y-106987875D01*
X109683731Y-106987875D02*
X109778969Y-107035494D01*
X109778969Y-107035494D02*
X109826588Y-107083113D01*
X109826588Y-107083113D02*
X109874207Y-107178351D01*
X109874207Y-107178351D02*
X109874207Y-107321208D01*
X109874207Y-107321208D02*
X109826588Y-107416446D01*
X109826588Y-107416446D02*
X109778969Y-107464065D01*
X109778969Y-107464065D02*
X109683731Y-107511684D01*
X109683731Y-107511684D02*
X109302779Y-107511684D01*
X110302779Y-107606922D02*
X111064684Y-107606922D01*
X109493255Y-109121628D02*
X109493255Y-109597819D01*
X109159922Y-108597819D02*
X109493255Y-109121628D01*
X109493255Y-109121628D02*
X109826588Y-108597819D01*
X110159922Y-109216866D02*
X110921827Y-109216866D01*
X110540874Y-109597819D02*
X110540874Y-108835914D01*
X109874207Y-115607875D02*
X109540874Y-115131684D01*
X109302779Y-115607875D02*
X109302779Y-114607875D01*
X109302779Y-114607875D02*
X109683731Y-114607875D01*
X109683731Y-114607875D02*
X109778969Y-114655494D01*
X109778969Y-114655494D02*
X109826588Y-114703113D01*
X109826588Y-114703113D02*
X109874207Y-114798351D01*
X109874207Y-114798351D02*
X109874207Y-114941208D01*
X109874207Y-114941208D02*
X109826588Y-115036446D01*
X109826588Y-115036446D02*
X109778969Y-115084065D01*
X109778969Y-115084065D02*
X109683731Y-115131684D01*
X109683731Y-115131684D02*
X109302779Y-115131684D01*
X110302779Y-115226922D02*
X111064684Y-115226922D01*
X109493255Y-116741628D02*
X109493255Y-117217819D01*
X109159922Y-116217819D02*
X109493255Y-116741628D01*
X109493255Y-116741628D02*
X109826588Y-116217819D01*
X110159922Y-116836866D02*
X110921827Y-116836866D01*
X110540874Y-117217819D02*
X110540874Y-116455914D01*
X155133922Y-91833819D02*
X155467255Y-92833819D01*
X155467255Y-92833819D02*
X155800588Y-91833819D01*
X156086303Y-92786200D02*
X156229160Y-92833819D01*
X156229160Y-92833819D02*
X156467255Y-92833819D01*
X156467255Y-92833819D02*
X156562493Y-92786200D01*
X156562493Y-92786200D02*
X156610112Y-92738580D01*
X156610112Y-92738580D02*
X156657731Y-92643342D01*
X156657731Y-92643342D02*
X156657731Y-92548104D01*
X156657731Y-92548104D02*
X156610112Y-92452866D01*
X156610112Y-92452866D02*
X156562493Y-92405247D01*
X156562493Y-92405247D02*
X156467255Y-92357628D01*
X156467255Y-92357628D02*
X156276779Y-92310009D01*
X156276779Y-92310009D02*
X156181541Y-92262390D01*
X156181541Y-92262390D02*
X156133922Y-92214771D01*
X156133922Y-92214771D02*
X156086303Y-92119533D01*
X156086303Y-92119533D02*
X156086303Y-92024295D01*
X156086303Y-92024295D02*
X156133922Y-91929057D01*
X156133922Y-91929057D02*
X156181541Y-91881438D01*
X156181541Y-91881438D02*
X156276779Y-91833819D01*
X156276779Y-91833819D02*
X156514874Y-91833819D01*
X156514874Y-91833819D02*
X156657731Y-91881438D01*
X157276779Y-92357628D02*
X157276779Y-92833819D01*
X156943446Y-91833819D02*
X157276779Y-92357628D01*
X157276779Y-92357628D02*
X157610112Y-91833819D01*
X157895827Y-92786200D02*
X158038684Y-92833819D01*
X158038684Y-92833819D02*
X158276779Y-92833819D01*
X158276779Y-92833819D02*
X158372017Y-92786200D01*
X158372017Y-92786200D02*
X158419636Y-92738580D01*
X158419636Y-92738580D02*
X158467255Y-92643342D01*
X158467255Y-92643342D02*
X158467255Y-92548104D01*
X158467255Y-92548104D02*
X158419636Y-92452866D01*
X158419636Y-92452866D02*
X158372017Y-92405247D01*
X158372017Y-92405247D02*
X158276779Y-92357628D01*
X158276779Y-92357628D02*
X158086303Y-92310009D01*
X158086303Y-92310009D02*
X157991065Y-92262390D01*
X157991065Y-92262390D02*
X157943446Y-92214771D01*
X157943446Y-92214771D02*
X157895827Y-92119533D01*
X157895827Y-92119533D02*
X157895827Y-92024295D01*
X157895827Y-92024295D02*
X157943446Y-91929057D01*
X157943446Y-91929057D02*
X157991065Y-91881438D01*
X157991065Y-91881438D02*
X158086303Y-91833819D01*
X158086303Y-91833819D02*
X158324398Y-91833819D01*
X158324398Y-91833819D02*
X158467255Y-91881438D01*
X110334588Y-95369987D02*
X109763160Y-95369987D01*
X110048874Y-95369987D02*
X110048874Y-94369987D01*
X110048874Y-94369987D02*
X109953636Y-94512844D01*
X109953636Y-94512844D02*
X109858398Y-94608082D01*
X109858398Y-94608082D02*
X109763160Y-94655701D01*
X112001255Y-94369987D02*
X111525065Y-94369987D01*
X111525065Y-94369987D02*
X111477446Y-94846177D01*
X111477446Y-94846177D02*
X111525065Y-94798558D01*
X111525065Y-94798558D02*
X111620303Y-94750939D01*
X111620303Y-94750939D02*
X111858398Y-94750939D01*
X111858398Y-94750939D02*
X111953636Y-94798558D01*
X111953636Y-94798558D02*
X112001255Y-94846177D01*
X112001255Y-94846177D02*
X112048874Y-94941415D01*
X112048874Y-94941415D02*
X112048874Y-95179510D01*
X112048874Y-95179510D02*
X112001255Y-95274748D01*
X112001255Y-95274748D02*
X111953636Y-95322368D01*
X111953636Y-95322368D02*
X111858398Y-95369987D01*
X111858398Y-95369987D02*
X111620303Y-95369987D01*
X111620303Y-95369987D02*
X111525065Y-95322368D01*
X111525065Y-95322368D02*
X111477446Y-95274748D01*
X112334589Y-94369987D02*
X112667922Y-95369987D01*
X112667922Y-95369987D02*
X113001255Y-94369987D01*
X109763160Y-96075169D02*
X109810779Y-96027550D01*
X109810779Y-96027550D02*
X109906017Y-95979931D01*
X109906017Y-95979931D02*
X110144112Y-95979931D01*
X110144112Y-95979931D02*
X110239350Y-96027550D01*
X110239350Y-96027550D02*
X110286969Y-96075169D01*
X110286969Y-96075169D02*
X110334588Y-96170407D01*
X110334588Y-96170407D02*
X110334588Y-96265645D01*
X110334588Y-96265645D02*
X110286969Y-96408502D01*
X110286969Y-96408502D02*
X109715541Y-96979931D01*
X109715541Y-96979931D02*
X110334588Y-96979931D01*
X111477446Y-96932312D02*
X111620303Y-96979931D01*
X111620303Y-96979931D02*
X111858398Y-96979931D01*
X111858398Y-96979931D02*
X111953636Y-96932312D01*
X111953636Y-96932312D02*
X112001255Y-96884692D01*
X112001255Y-96884692D02*
X112048874Y-96789454D01*
X112048874Y-96789454D02*
X112048874Y-96694216D01*
X112048874Y-96694216D02*
X112001255Y-96598978D01*
X112001255Y-96598978D02*
X111953636Y-96551359D01*
X111953636Y-96551359D02*
X111858398Y-96503740D01*
X111858398Y-96503740D02*
X111667922Y-96456121D01*
X111667922Y-96456121D02*
X111572684Y-96408502D01*
X111572684Y-96408502D02*
X111525065Y-96360883D01*
X111525065Y-96360883D02*
X111477446Y-96265645D01*
X111477446Y-96265645D02*
X111477446Y-96170407D01*
X111477446Y-96170407D02*
X111525065Y-96075169D01*
X111525065Y-96075169D02*
X111572684Y-96027550D01*
X111572684Y-96027550D02*
X111667922Y-95979931D01*
X111667922Y-95979931D02*
X111906017Y-95979931D01*
X111906017Y-95979931D02*
X112048874Y-96027550D01*
X113048874Y-96884692D02*
X113001255Y-96932312D01*
X113001255Y-96932312D02*
X112858398Y-96979931D01*
X112858398Y-96979931D02*
X112763160Y-96979931D01*
X112763160Y-96979931D02*
X112620303Y-96932312D01*
X112620303Y-96932312D02*
X112525065Y-96837073D01*
X112525065Y-96837073D02*
X112477446Y-96741835D01*
X112477446Y-96741835D02*
X112429827Y-96551359D01*
X112429827Y-96551359D02*
X112429827Y-96408502D01*
X112429827Y-96408502D02*
X112477446Y-96218026D01*
X112477446Y-96218026D02*
X112525065Y-96122788D01*
X112525065Y-96122788D02*
X112620303Y-96027550D01*
X112620303Y-96027550D02*
X112763160Y-95979931D01*
X112763160Y-95979931D02*
X112858398Y-95979931D01*
X112858398Y-95979931D02*
X113001255Y-96027550D01*
X113001255Y-96027550D02*
X113048874Y-96075169D01*
X113953636Y-96979931D02*
X113477446Y-96979931D01*
X113477446Y-96979931D02*
X113477446Y-95979931D01*
X109715541Y-97589875D02*
X110334588Y-97589875D01*
X110334588Y-97589875D02*
X110001255Y-97970827D01*
X110001255Y-97970827D02*
X110144112Y-97970827D01*
X110144112Y-97970827D02*
X110239350Y-98018446D01*
X110239350Y-98018446D02*
X110286969Y-98066065D01*
X110286969Y-98066065D02*
X110334588Y-98161303D01*
X110334588Y-98161303D02*
X110334588Y-98399398D01*
X110334588Y-98399398D02*
X110286969Y-98494636D01*
X110286969Y-98494636D02*
X110239350Y-98542256D01*
X110239350Y-98542256D02*
X110144112Y-98589875D01*
X110144112Y-98589875D02*
X109858398Y-98589875D01*
X109858398Y-98589875D02*
X109763160Y-98542256D01*
X109763160Y-98542256D02*
X109715541Y-98494636D01*
X111477446Y-98542256D02*
X111620303Y-98589875D01*
X111620303Y-98589875D02*
X111858398Y-98589875D01*
X111858398Y-98589875D02*
X111953636Y-98542256D01*
X111953636Y-98542256D02*
X112001255Y-98494636D01*
X112001255Y-98494636D02*
X112048874Y-98399398D01*
X112048874Y-98399398D02*
X112048874Y-98304160D01*
X112048874Y-98304160D02*
X112001255Y-98208922D01*
X112001255Y-98208922D02*
X111953636Y-98161303D01*
X111953636Y-98161303D02*
X111858398Y-98113684D01*
X111858398Y-98113684D02*
X111667922Y-98066065D01*
X111667922Y-98066065D02*
X111572684Y-98018446D01*
X111572684Y-98018446D02*
X111525065Y-97970827D01*
X111525065Y-97970827D02*
X111477446Y-97875589D01*
X111477446Y-97875589D02*
X111477446Y-97780351D01*
X111477446Y-97780351D02*
X111525065Y-97685113D01*
X111525065Y-97685113D02*
X111572684Y-97637494D01*
X111572684Y-97637494D02*
X111667922Y-97589875D01*
X111667922Y-97589875D02*
X111906017Y-97589875D01*
X111906017Y-97589875D02*
X112048874Y-97637494D01*
X112477446Y-98589875D02*
X112477446Y-97589875D01*
X112477446Y-97589875D02*
X112715541Y-97589875D01*
X112715541Y-97589875D02*
X112858398Y-97637494D01*
X112858398Y-97637494D02*
X112953636Y-97732732D01*
X112953636Y-97732732D02*
X113001255Y-97827970D01*
X113001255Y-97827970D02*
X113048874Y-98018446D01*
X113048874Y-98018446D02*
X113048874Y-98161303D01*
X113048874Y-98161303D02*
X113001255Y-98351779D01*
X113001255Y-98351779D02*
X112953636Y-98447017D01*
X112953636Y-98447017D02*
X112858398Y-98542256D01*
X112858398Y-98542256D02*
X112715541Y-98589875D01*
X112715541Y-98589875D02*
X112477446Y-98589875D01*
X113429827Y-98304160D02*
X113906017Y-98304160D01*
X113334589Y-98589875D02*
X113667922Y-97589875D01*
X113667922Y-97589875D02*
X114001255Y-98589875D01*
X110239350Y-99533152D02*
X110239350Y-100199819D01*
X110001255Y-99152200D02*
X109763160Y-99866485D01*
X109763160Y-99866485D02*
X110382207Y-99866485D01*
X112048874Y-99247438D02*
X111953636Y-99199819D01*
X111953636Y-99199819D02*
X111810779Y-99199819D01*
X111810779Y-99199819D02*
X111667922Y-99247438D01*
X111667922Y-99247438D02*
X111572684Y-99342676D01*
X111572684Y-99342676D02*
X111525065Y-99437914D01*
X111525065Y-99437914D02*
X111477446Y-99628390D01*
X111477446Y-99628390D02*
X111477446Y-99771247D01*
X111477446Y-99771247D02*
X111525065Y-99961723D01*
X111525065Y-99961723D02*
X111572684Y-100056961D01*
X111572684Y-100056961D02*
X111667922Y-100152200D01*
X111667922Y-100152200D02*
X111810779Y-100199819D01*
X111810779Y-100199819D02*
X111906017Y-100199819D01*
X111906017Y-100199819D02*
X112048874Y-100152200D01*
X112048874Y-100152200D02*
X112096493Y-100104580D01*
X112096493Y-100104580D02*
X112096493Y-99771247D01*
X112096493Y-99771247D02*
X111906017Y-99771247D01*
X112525065Y-100199819D02*
X112525065Y-99199819D01*
X112525065Y-99199819D02*
X113096493Y-100199819D01*
X113096493Y-100199819D02*
X113096493Y-99199819D01*
X113572684Y-100199819D02*
X113572684Y-99199819D01*
X113572684Y-99199819D02*
X113810779Y-99199819D01*
X113810779Y-99199819D02*
X113953636Y-99247438D01*
X113953636Y-99247438D02*
X114048874Y-99342676D01*
X114048874Y-99342676D02*
X114096493Y-99437914D01*
X114096493Y-99437914D02*
X114144112Y-99628390D01*
X114144112Y-99628390D02*
X114144112Y-99771247D01*
X114144112Y-99771247D02*
X114096493Y-99961723D01*
X114096493Y-99961723D02*
X114048874Y-100056961D01*
X114048874Y-100056961D02*
X113953636Y-100152200D01*
X113953636Y-100152200D02*
X113810779Y-100199819D01*
X113810779Y-100199819D02*
X113572684Y-100199819D01*
X156054588Y-99247438D02*
X155959350Y-99199819D01*
X155959350Y-99199819D02*
X155816493Y-99199819D01*
X155816493Y-99199819D02*
X155673636Y-99247438D01*
X155673636Y-99247438D02*
X155578398Y-99342676D01*
X155578398Y-99342676D02*
X155530779Y-99437914D01*
X155530779Y-99437914D02*
X155483160Y-99628390D01*
X155483160Y-99628390D02*
X155483160Y-99771247D01*
X155483160Y-99771247D02*
X155530779Y-99961723D01*
X155530779Y-99961723D02*
X155578398Y-100056961D01*
X155578398Y-100056961D02*
X155673636Y-100152200D01*
X155673636Y-100152200D02*
X155816493Y-100199819D01*
X155816493Y-100199819D02*
X155911731Y-100199819D01*
X155911731Y-100199819D02*
X156054588Y-100152200D01*
X156054588Y-100152200D02*
X156102207Y-100104580D01*
X156102207Y-100104580D02*
X156102207Y-99771247D01*
X156102207Y-99771247D02*
X155911731Y-99771247D01*
X156530779Y-100199819D02*
X156530779Y-99199819D01*
X156530779Y-99199819D02*
X157102207Y-100199819D01*
X157102207Y-100199819D02*
X157102207Y-99199819D01*
X157578398Y-100199819D02*
X157578398Y-99199819D01*
X157578398Y-99199819D02*
X157816493Y-99199819D01*
X157816493Y-99199819D02*
X157959350Y-99247438D01*
X157959350Y-99247438D02*
X158054588Y-99342676D01*
X158054588Y-99342676D02*
X158102207Y-99437914D01*
X158102207Y-99437914D02*
X158149826Y-99628390D01*
X158149826Y-99628390D02*
X158149826Y-99771247D01*
X158149826Y-99771247D02*
X158102207Y-99961723D01*
X158102207Y-99961723D02*
X158054588Y-100056961D01*
X158054588Y-100056961D02*
X157959350Y-100152200D01*
X157959350Y-100152200D02*
X157816493Y-100199819D01*
X157816493Y-100199819D02*
X157578398Y-100199819D01*
X113890588Y-135061438D02*
X113795350Y-135013819D01*
X113795350Y-135013819D02*
X113652493Y-135013819D01*
X113652493Y-135013819D02*
X113509636Y-135061438D01*
X113509636Y-135061438D02*
X113414398Y-135156676D01*
X113414398Y-135156676D02*
X113366779Y-135251914D01*
X113366779Y-135251914D02*
X113319160Y-135442390D01*
X113319160Y-135442390D02*
X113319160Y-135585247D01*
X113319160Y-135585247D02*
X113366779Y-135775723D01*
X113366779Y-135775723D02*
X113414398Y-135870961D01*
X113414398Y-135870961D02*
X113509636Y-135966200D01*
X113509636Y-135966200D02*
X113652493Y-136013819D01*
X113652493Y-136013819D02*
X113747731Y-136013819D01*
X113747731Y-136013819D02*
X113890588Y-135966200D01*
X113890588Y-135966200D02*
X113938207Y-135918580D01*
X113938207Y-135918580D02*
X113938207Y-135585247D01*
X113938207Y-135585247D02*
X113747731Y-135585247D01*
X114366779Y-136013819D02*
X114366779Y-135013819D01*
X114366779Y-135013819D02*
X114938207Y-136013819D01*
X114938207Y-136013819D02*
X114938207Y-135013819D01*
X115414398Y-136013819D02*
X115414398Y-135013819D01*
X115414398Y-135013819D02*
X115652493Y-135013819D01*
X115652493Y-135013819D02*
X115795350Y-135061438D01*
X115795350Y-135061438D02*
X115890588Y-135156676D01*
X115890588Y-135156676D02*
X115938207Y-135251914D01*
X115938207Y-135251914D02*
X115985826Y-135442390D01*
X115985826Y-135442390D02*
X115985826Y-135585247D01*
X115985826Y-135585247D02*
X115938207Y-135775723D01*
X115938207Y-135775723D02*
X115890588Y-135870961D01*
X115890588Y-135870961D02*
X115795350Y-135966200D01*
X115795350Y-135966200D02*
X115652493Y-136013819D01*
X115652493Y-136013819D02*
X115414398Y-136013819D01*
X156514969Y-84467819D02*
X156038779Y-84467819D01*
X156038779Y-84467819D02*
X155991160Y-84944009D01*
X155991160Y-84944009D02*
X156038779Y-84896390D01*
X156038779Y-84896390D02*
X156134017Y-84848771D01*
X156134017Y-84848771D02*
X156372112Y-84848771D01*
X156372112Y-84848771D02*
X156467350Y-84896390D01*
X156467350Y-84896390D02*
X156514969Y-84944009D01*
X156514969Y-84944009D02*
X156562588Y-85039247D01*
X156562588Y-85039247D02*
X156562588Y-85277342D01*
X156562588Y-85277342D02*
X156514969Y-85372580D01*
X156514969Y-85372580D02*
X156467350Y-85420200D01*
X156467350Y-85420200D02*
X156372112Y-85467819D01*
X156372112Y-85467819D02*
X156134017Y-85467819D01*
X156134017Y-85467819D02*
X156038779Y-85420200D01*
X156038779Y-85420200D02*
X155991160Y-85372580D01*
X156848303Y-84467819D02*
X157181636Y-85467819D01*
X157181636Y-85467819D02*
X157514969Y-84467819D01*
X109874207Y-123227875D02*
X109540874Y-122751684D01*
X109302779Y-123227875D02*
X109302779Y-122227875D01*
X109302779Y-122227875D02*
X109683731Y-122227875D01*
X109683731Y-122227875D02*
X109778969Y-122275494D01*
X109778969Y-122275494D02*
X109826588Y-122323113D01*
X109826588Y-122323113D02*
X109874207Y-122418351D01*
X109874207Y-122418351D02*
X109874207Y-122561208D01*
X109874207Y-122561208D02*
X109826588Y-122656446D01*
X109826588Y-122656446D02*
X109778969Y-122704065D01*
X109778969Y-122704065D02*
X109683731Y-122751684D01*
X109683731Y-122751684D02*
X109302779Y-122751684D01*
X110302779Y-122846922D02*
X111064684Y-122846922D01*
X109493255Y-124361628D02*
X109493255Y-124837819D01*
X109159922Y-123837819D02*
X109493255Y-124361628D01*
X109493255Y-124361628D02*
X109826588Y-123837819D01*
X110159922Y-124456866D02*
X110921827Y-124456866D01*
X110540874Y-124837819D02*
X110540874Y-124075914D01*
X154530588Y-112895987D02*
X153959160Y-112895987D01*
X154244874Y-112895987D02*
X154244874Y-111895987D01*
X154244874Y-111895987D02*
X154149636Y-112038844D01*
X154149636Y-112038844D02*
X154054398Y-112134082D01*
X154054398Y-112134082D02*
X153959160Y-112181701D01*
X156197255Y-111895987D02*
X155721065Y-111895987D01*
X155721065Y-111895987D02*
X155673446Y-112372177D01*
X155673446Y-112372177D02*
X155721065Y-112324558D01*
X155721065Y-112324558D02*
X155816303Y-112276939D01*
X155816303Y-112276939D02*
X156054398Y-112276939D01*
X156054398Y-112276939D02*
X156149636Y-112324558D01*
X156149636Y-112324558D02*
X156197255Y-112372177D01*
X156197255Y-112372177D02*
X156244874Y-112467415D01*
X156244874Y-112467415D02*
X156244874Y-112705510D01*
X156244874Y-112705510D02*
X156197255Y-112800748D01*
X156197255Y-112800748D02*
X156149636Y-112848368D01*
X156149636Y-112848368D02*
X156054398Y-112895987D01*
X156054398Y-112895987D02*
X155816303Y-112895987D01*
X155816303Y-112895987D02*
X155721065Y-112848368D01*
X155721065Y-112848368D02*
X155673446Y-112800748D01*
X156530589Y-111895987D02*
X156863922Y-112895987D01*
X156863922Y-112895987D02*
X157197255Y-111895987D01*
X153959160Y-113601169D02*
X154006779Y-113553550D01*
X154006779Y-113553550D02*
X154102017Y-113505931D01*
X154102017Y-113505931D02*
X154340112Y-113505931D01*
X154340112Y-113505931D02*
X154435350Y-113553550D01*
X154435350Y-113553550D02*
X154482969Y-113601169D01*
X154482969Y-113601169D02*
X154530588Y-113696407D01*
X154530588Y-113696407D02*
X154530588Y-113791645D01*
X154530588Y-113791645D02*
X154482969Y-113934502D01*
X154482969Y-113934502D02*
X153911541Y-114505931D01*
X153911541Y-114505931D02*
X154530588Y-114505931D01*
X155673446Y-114220216D02*
X156149636Y-114220216D01*
X155578208Y-114505931D02*
X155911541Y-113505931D01*
X155911541Y-113505931D02*
X156244874Y-114505931D01*
X156578208Y-114505931D02*
X156578208Y-113505931D01*
X156578208Y-113505931D02*
X156816303Y-113505931D01*
X156816303Y-113505931D02*
X156959160Y-113553550D01*
X156959160Y-113553550D02*
X157054398Y-113648788D01*
X157054398Y-113648788D02*
X157102017Y-113744026D01*
X157102017Y-113744026D02*
X157149636Y-113934502D01*
X157149636Y-113934502D02*
X157149636Y-114077359D01*
X157149636Y-114077359D02*
X157102017Y-114267835D01*
X157102017Y-114267835D02*
X157054398Y-114363073D01*
X157054398Y-114363073D02*
X156959160Y-114458312D01*
X156959160Y-114458312D02*
X156816303Y-114505931D01*
X156816303Y-114505931D02*
X156578208Y-114505931D01*
X158149636Y-114410692D02*
X158102017Y-114458312D01*
X158102017Y-114458312D02*
X157959160Y-114505931D01*
X157959160Y-114505931D02*
X157863922Y-114505931D01*
X157863922Y-114505931D02*
X157721065Y-114458312D01*
X157721065Y-114458312D02*
X157625827Y-114363073D01*
X157625827Y-114363073D02*
X157578208Y-114267835D01*
X157578208Y-114267835D02*
X157530589Y-114077359D01*
X157530589Y-114077359D02*
X157530589Y-113934502D01*
X157530589Y-113934502D02*
X157578208Y-113744026D01*
X157578208Y-113744026D02*
X157625827Y-113648788D01*
X157625827Y-113648788D02*
X157721065Y-113553550D01*
X157721065Y-113553550D02*
X157863922Y-113505931D01*
X157863922Y-113505931D02*
X157959160Y-113505931D01*
X157959160Y-113505931D02*
X158102017Y-113553550D01*
X158102017Y-113553550D02*
X158149636Y-113601169D01*
X159102017Y-114505931D02*
X158530589Y-114505931D01*
X158816303Y-114505931D02*
X158816303Y-113505931D01*
X158816303Y-113505931D02*
X158721065Y-113648788D01*
X158721065Y-113648788D02*
X158625827Y-113744026D01*
X158625827Y-113744026D02*
X158530589Y-113791645D01*
X153911541Y-115115875D02*
X154530588Y-115115875D01*
X154530588Y-115115875D02*
X154197255Y-115496827D01*
X154197255Y-115496827D02*
X154340112Y-115496827D01*
X154340112Y-115496827D02*
X154435350Y-115544446D01*
X154435350Y-115544446D02*
X154482969Y-115592065D01*
X154482969Y-115592065D02*
X154530588Y-115687303D01*
X154530588Y-115687303D02*
X154530588Y-115925398D01*
X154530588Y-115925398D02*
X154482969Y-116020636D01*
X154482969Y-116020636D02*
X154435350Y-116068256D01*
X154435350Y-116068256D02*
X154340112Y-116115875D01*
X154340112Y-116115875D02*
X154054398Y-116115875D01*
X154054398Y-116115875D02*
X153959160Y-116068256D01*
X153959160Y-116068256D02*
X153911541Y-116020636D01*
X155673446Y-115830160D02*
X156149636Y-115830160D01*
X155578208Y-116115875D02*
X155911541Y-115115875D01*
X155911541Y-115115875D02*
X156244874Y-116115875D01*
X156578208Y-116115875D02*
X156578208Y-115115875D01*
X156578208Y-115115875D02*
X156816303Y-115115875D01*
X156816303Y-115115875D02*
X156959160Y-115163494D01*
X156959160Y-115163494D02*
X157054398Y-115258732D01*
X157054398Y-115258732D02*
X157102017Y-115353970D01*
X157102017Y-115353970D02*
X157149636Y-115544446D01*
X157149636Y-115544446D02*
X157149636Y-115687303D01*
X157149636Y-115687303D02*
X157102017Y-115877779D01*
X157102017Y-115877779D02*
X157054398Y-115973017D01*
X157054398Y-115973017D02*
X156959160Y-116068256D01*
X156959160Y-116068256D02*
X156816303Y-116115875D01*
X156816303Y-116115875D02*
X156578208Y-116115875D01*
X158149636Y-116020636D02*
X158102017Y-116068256D01*
X158102017Y-116068256D02*
X157959160Y-116115875D01*
X157959160Y-116115875D02*
X157863922Y-116115875D01*
X157863922Y-116115875D02*
X157721065Y-116068256D01*
X157721065Y-116068256D02*
X157625827Y-115973017D01*
X157625827Y-115973017D02*
X157578208Y-115877779D01*
X157578208Y-115877779D02*
X157530589Y-115687303D01*
X157530589Y-115687303D02*
X157530589Y-115544446D01*
X157530589Y-115544446D02*
X157578208Y-115353970D01*
X157578208Y-115353970D02*
X157625827Y-115258732D01*
X157625827Y-115258732D02*
X157721065Y-115163494D01*
X157721065Y-115163494D02*
X157863922Y-115115875D01*
X157863922Y-115115875D02*
X157959160Y-115115875D01*
X157959160Y-115115875D02*
X158102017Y-115163494D01*
X158102017Y-115163494D02*
X158149636Y-115211113D01*
X158768684Y-115115875D02*
X158863922Y-115115875D01*
X158863922Y-115115875D02*
X158959160Y-115163494D01*
X158959160Y-115163494D02*
X159006779Y-115211113D01*
X159006779Y-115211113D02*
X159054398Y-115306351D01*
X159054398Y-115306351D02*
X159102017Y-115496827D01*
X159102017Y-115496827D02*
X159102017Y-115734922D01*
X159102017Y-115734922D02*
X159054398Y-115925398D01*
X159054398Y-115925398D02*
X159006779Y-116020636D01*
X159006779Y-116020636D02*
X158959160Y-116068256D01*
X158959160Y-116068256D02*
X158863922Y-116115875D01*
X158863922Y-116115875D02*
X158768684Y-116115875D01*
X158768684Y-116115875D02*
X158673446Y-116068256D01*
X158673446Y-116068256D02*
X158625827Y-116020636D01*
X158625827Y-116020636D02*
X158578208Y-115925398D01*
X158578208Y-115925398D02*
X158530589Y-115734922D01*
X158530589Y-115734922D02*
X158530589Y-115496827D01*
X158530589Y-115496827D02*
X158578208Y-115306351D01*
X158578208Y-115306351D02*
X158625827Y-115211113D01*
X158625827Y-115211113D02*
X158673446Y-115163494D01*
X158673446Y-115163494D02*
X158768684Y-115115875D01*
X154435350Y-117059152D02*
X154435350Y-117725819D01*
X154197255Y-116678200D02*
X153959160Y-117392485D01*
X153959160Y-117392485D02*
X154578207Y-117392485D01*
X156244874Y-116773438D02*
X156149636Y-116725819D01*
X156149636Y-116725819D02*
X156006779Y-116725819D01*
X156006779Y-116725819D02*
X155863922Y-116773438D01*
X155863922Y-116773438D02*
X155768684Y-116868676D01*
X155768684Y-116868676D02*
X155721065Y-116963914D01*
X155721065Y-116963914D02*
X155673446Y-117154390D01*
X155673446Y-117154390D02*
X155673446Y-117297247D01*
X155673446Y-117297247D02*
X155721065Y-117487723D01*
X155721065Y-117487723D02*
X155768684Y-117582961D01*
X155768684Y-117582961D02*
X155863922Y-117678200D01*
X155863922Y-117678200D02*
X156006779Y-117725819D01*
X156006779Y-117725819D02*
X156102017Y-117725819D01*
X156102017Y-117725819D02*
X156244874Y-117678200D01*
X156244874Y-117678200D02*
X156292493Y-117630580D01*
X156292493Y-117630580D02*
X156292493Y-117297247D01*
X156292493Y-117297247D02*
X156102017Y-117297247D01*
X156721065Y-117725819D02*
X156721065Y-116725819D01*
X156721065Y-116725819D02*
X157292493Y-117725819D01*
X157292493Y-117725819D02*
X157292493Y-116725819D01*
X157768684Y-117725819D02*
X157768684Y-116725819D01*
X157768684Y-116725819D02*
X158006779Y-116725819D01*
X158006779Y-116725819D02*
X158149636Y-116773438D01*
X158149636Y-116773438D02*
X158244874Y-116868676D01*
X158244874Y-116868676D02*
X158292493Y-116963914D01*
X158292493Y-116963914D02*
X158340112Y-117154390D01*
X158340112Y-117154390D02*
X158340112Y-117297247D01*
X158340112Y-117297247D02*
X158292493Y-117487723D01*
X158292493Y-117487723D02*
X158244874Y-117582961D01*
X158244874Y-117582961D02*
X158149636Y-117678200D01*
X158149636Y-117678200D02*
X158006779Y-117725819D01*
X158006779Y-117725819D02*
X157768684Y-117725819D01*
X124583819Y-82975220D02*
X123583819Y-82975220D01*
X123917152Y-82499030D02*
X124583819Y-82499030D01*
X124012390Y-82499030D02*
X123964771Y-82451411D01*
X123964771Y-82451411D02*
X123917152Y-82356173D01*
X123917152Y-82356173D02*
X123917152Y-82213316D01*
X123917152Y-82213316D02*
X123964771Y-82118078D01*
X123964771Y-82118078D02*
X124060009Y-82070459D01*
X124060009Y-82070459D02*
X124583819Y-82070459D01*
X124536200Y-81641887D02*
X124583819Y-81546649D01*
X124583819Y-81546649D02*
X124583819Y-81356173D01*
X124583819Y-81356173D02*
X124536200Y-81260935D01*
X124536200Y-81260935D02*
X124440961Y-81213316D01*
X124440961Y-81213316D02*
X124393342Y-81213316D01*
X124393342Y-81213316D02*
X124298104Y-81260935D01*
X124298104Y-81260935D02*
X124250485Y-81356173D01*
X124250485Y-81356173D02*
X124250485Y-81499030D01*
X124250485Y-81499030D02*
X124202866Y-81594268D01*
X124202866Y-81594268D02*
X124107628Y-81641887D01*
X124107628Y-81641887D02*
X124060009Y-81641887D01*
X124060009Y-81641887D02*
X123964771Y-81594268D01*
X123964771Y-81594268D02*
X123917152Y-81499030D01*
X123917152Y-81499030D02*
X123917152Y-81356173D01*
X123917152Y-81356173D02*
X123964771Y-81260935D01*
X123917152Y-80927601D02*
X123917152Y-80546649D01*
X123583819Y-80784744D02*
X124440961Y-80784744D01*
X124440961Y-80784744D02*
X124536200Y-80737125D01*
X124536200Y-80737125D02*
X124583819Y-80641887D01*
X124583819Y-80641887D02*
X124583819Y-80546649D01*
X124583819Y-79784744D02*
X124060009Y-79784744D01*
X124060009Y-79784744D02*
X123964771Y-79832363D01*
X123964771Y-79832363D02*
X123917152Y-79927601D01*
X123917152Y-79927601D02*
X123917152Y-80118077D01*
X123917152Y-80118077D02*
X123964771Y-80213315D01*
X124536200Y-79784744D02*
X124583819Y-79879982D01*
X124583819Y-79879982D02*
X124583819Y-80118077D01*
X124583819Y-80118077D02*
X124536200Y-80213315D01*
X124536200Y-80213315D02*
X124440961Y-80260934D01*
X124440961Y-80260934D02*
X124345723Y-80260934D01*
X124345723Y-80260934D02*
X124250485Y-80213315D01*
X124250485Y-80213315D02*
X124202866Y-80118077D01*
X124202866Y-80118077D02*
X124202866Y-79879982D01*
X124202866Y-79879982D02*
X124155247Y-79784744D01*
X124583819Y-79165696D02*
X124536200Y-79260934D01*
X124536200Y-79260934D02*
X124440961Y-79308553D01*
X124440961Y-79308553D02*
X123583819Y-79308553D01*
X124583819Y-78641886D02*
X124536200Y-78737124D01*
X124536200Y-78737124D02*
X124440961Y-78784743D01*
X124440961Y-78784743D02*
X123583819Y-78784743D01*
X123917152Y-77641885D02*
X123917152Y-77260933D01*
X124583819Y-77499028D02*
X123726676Y-77499028D01*
X123726676Y-77499028D02*
X123631438Y-77451409D01*
X123631438Y-77451409D02*
X123583819Y-77356171D01*
X123583819Y-77356171D02*
X123583819Y-77260933D01*
X124583819Y-76784742D02*
X124536200Y-76879980D01*
X124536200Y-76879980D02*
X124488580Y-76927599D01*
X124488580Y-76927599D02*
X124393342Y-76975218D01*
X124393342Y-76975218D02*
X124107628Y-76975218D01*
X124107628Y-76975218D02*
X124012390Y-76927599D01*
X124012390Y-76927599D02*
X123964771Y-76879980D01*
X123964771Y-76879980D02*
X123917152Y-76784742D01*
X123917152Y-76784742D02*
X123917152Y-76641885D01*
X123917152Y-76641885D02*
X123964771Y-76546647D01*
X123964771Y-76546647D02*
X124012390Y-76499028D01*
X124012390Y-76499028D02*
X124107628Y-76451409D01*
X124107628Y-76451409D02*
X124393342Y-76451409D01*
X124393342Y-76451409D02*
X124488580Y-76499028D01*
X124488580Y-76499028D02*
X124536200Y-76546647D01*
X124536200Y-76546647D02*
X124583819Y-76641885D01*
X124583819Y-76641885D02*
X124583819Y-76784742D01*
X124583819Y-76022837D02*
X123917152Y-76022837D01*
X124107628Y-76022837D02*
X124012390Y-75975218D01*
X124012390Y-75975218D02*
X123964771Y-75927599D01*
X123964771Y-75927599D02*
X123917152Y-75832361D01*
X123917152Y-75832361D02*
X123917152Y-75737123D01*
X123583819Y-74737122D02*
X123583819Y-74118075D01*
X123583819Y-74118075D02*
X123964771Y-74451408D01*
X123964771Y-74451408D02*
X123964771Y-74308551D01*
X123964771Y-74308551D02*
X124012390Y-74213313D01*
X124012390Y-74213313D02*
X124060009Y-74165694D01*
X124060009Y-74165694D02*
X124155247Y-74118075D01*
X124155247Y-74118075D02*
X124393342Y-74118075D01*
X124393342Y-74118075D02*
X124488580Y-74165694D01*
X124488580Y-74165694D02*
X124536200Y-74213313D01*
X124536200Y-74213313D02*
X124583819Y-74308551D01*
X124583819Y-74308551D02*
X124583819Y-74594265D01*
X124583819Y-74594265D02*
X124536200Y-74689503D01*
X124536200Y-74689503D02*
X124488580Y-74737122D01*
X124488580Y-73689503D02*
X124536200Y-73641884D01*
X124536200Y-73641884D02*
X124583819Y-73689503D01*
X124583819Y-73689503D02*
X124536200Y-73737122D01*
X124536200Y-73737122D02*
X124488580Y-73689503D01*
X124488580Y-73689503D02*
X124583819Y-73689503D01*
X123583819Y-73308551D02*
X123583819Y-72689504D01*
X123583819Y-72689504D02*
X123964771Y-73022837D01*
X123964771Y-73022837D02*
X123964771Y-72879980D01*
X123964771Y-72879980D02*
X124012390Y-72784742D01*
X124012390Y-72784742D02*
X124060009Y-72737123D01*
X124060009Y-72737123D02*
X124155247Y-72689504D01*
X124155247Y-72689504D02*
X124393342Y-72689504D01*
X124393342Y-72689504D02*
X124488580Y-72737123D01*
X124488580Y-72737123D02*
X124536200Y-72784742D01*
X124536200Y-72784742D02*
X124583819Y-72879980D01*
X124583819Y-72879980D02*
X124583819Y-73165694D01*
X124583819Y-73165694D02*
X124536200Y-73260932D01*
X124536200Y-73260932D02*
X124488580Y-73308551D01*
X123583819Y-72403789D02*
X124583819Y-72070456D01*
X124583819Y-72070456D02*
X123583819Y-71737123D01*
X119875541Y-135013819D02*
X120494588Y-135013819D01*
X120494588Y-135013819D02*
X120161255Y-135394771D01*
X120161255Y-135394771D02*
X120304112Y-135394771D01*
X120304112Y-135394771D02*
X120399350Y-135442390D01*
X120399350Y-135442390D02*
X120446969Y-135490009D01*
X120446969Y-135490009D02*
X120494588Y-135585247D01*
X120494588Y-135585247D02*
X120494588Y-135823342D01*
X120494588Y-135823342D02*
X120446969Y-135918580D01*
X120446969Y-135918580D02*
X120399350Y-135966200D01*
X120399350Y-135966200D02*
X120304112Y-136013819D01*
X120304112Y-136013819D02*
X120018398Y-136013819D01*
X120018398Y-136013819D02*
X119923160Y-135966200D01*
X119923160Y-135966200D02*
X119875541Y-135918580D01*
X120923160Y-135918580D02*
X120970779Y-135966200D01*
X120970779Y-135966200D02*
X120923160Y-136013819D01*
X120923160Y-136013819D02*
X120875541Y-135966200D01*
X120875541Y-135966200D02*
X120923160Y-135918580D01*
X120923160Y-135918580D02*
X120923160Y-136013819D01*
X121304112Y-135013819D02*
X121923159Y-135013819D01*
X121923159Y-135013819D02*
X121589826Y-135394771D01*
X121589826Y-135394771D02*
X121732683Y-135394771D01*
X121732683Y-135394771D02*
X121827921Y-135442390D01*
X121827921Y-135442390D02*
X121875540Y-135490009D01*
X121875540Y-135490009D02*
X121923159Y-135585247D01*
X121923159Y-135585247D02*
X121923159Y-135823342D01*
X121923159Y-135823342D02*
X121875540Y-135918580D01*
X121875540Y-135918580D02*
X121827921Y-135966200D01*
X121827921Y-135966200D02*
X121732683Y-136013819D01*
X121732683Y-136013819D02*
X121446969Y-136013819D01*
X121446969Y-136013819D02*
X121351731Y-135966200D01*
X121351731Y-135966200D02*
X121304112Y-135918580D01*
X122208874Y-135013819D02*
X122542207Y-136013819D01*
X122542207Y-136013819D02*
X122875540Y-135013819D01*
X115439819Y-81451220D02*
X114439819Y-81451220D01*
X114773152Y-80975030D02*
X115439819Y-80975030D01*
X114868390Y-80975030D02*
X114820771Y-80927411D01*
X114820771Y-80927411D02*
X114773152Y-80832173D01*
X114773152Y-80832173D02*
X114773152Y-80689316D01*
X114773152Y-80689316D02*
X114820771Y-80594078D01*
X114820771Y-80594078D02*
X114916009Y-80546459D01*
X114916009Y-80546459D02*
X115439819Y-80546459D01*
X115392200Y-80117887D02*
X115439819Y-80022649D01*
X115439819Y-80022649D02*
X115439819Y-79832173D01*
X115439819Y-79832173D02*
X115392200Y-79736935D01*
X115392200Y-79736935D02*
X115296961Y-79689316D01*
X115296961Y-79689316D02*
X115249342Y-79689316D01*
X115249342Y-79689316D02*
X115154104Y-79736935D01*
X115154104Y-79736935D02*
X115106485Y-79832173D01*
X115106485Y-79832173D02*
X115106485Y-79975030D01*
X115106485Y-79975030D02*
X115058866Y-80070268D01*
X115058866Y-80070268D02*
X114963628Y-80117887D01*
X114963628Y-80117887D02*
X114916009Y-80117887D01*
X114916009Y-80117887D02*
X114820771Y-80070268D01*
X114820771Y-80070268D02*
X114773152Y-79975030D01*
X114773152Y-79975030D02*
X114773152Y-79832173D01*
X114773152Y-79832173D02*
X114820771Y-79736935D01*
X114773152Y-79403601D02*
X114773152Y-79022649D01*
X114439819Y-79260744D02*
X115296961Y-79260744D01*
X115296961Y-79260744D02*
X115392200Y-79213125D01*
X115392200Y-79213125D02*
X115439819Y-79117887D01*
X115439819Y-79117887D02*
X115439819Y-79022649D01*
X115439819Y-78260744D02*
X114916009Y-78260744D01*
X114916009Y-78260744D02*
X114820771Y-78308363D01*
X114820771Y-78308363D02*
X114773152Y-78403601D01*
X114773152Y-78403601D02*
X114773152Y-78594077D01*
X114773152Y-78594077D02*
X114820771Y-78689315D01*
X115392200Y-78260744D02*
X115439819Y-78355982D01*
X115439819Y-78355982D02*
X115439819Y-78594077D01*
X115439819Y-78594077D02*
X115392200Y-78689315D01*
X115392200Y-78689315D02*
X115296961Y-78736934D01*
X115296961Y-78736934D02*
X115201723Y-78736934D01*
X115201723Y-78736934D02*
X115106485Y-78689315D01*
X115106485Y-78689315D02*
X115058866Y-78594077D01*
X115058866Y-78594077D02*
X115058866Y-78355982D01*
X115058866Y-78355982D02*
X115011247Y-78260744D01*
X115439819Y-77641696D02*
X115392200Y-77736934D01*
X115392200Y-77736934D02*
X115296961Y-77784553D01*
X115296961Y-77784553D02*
X114439819Y-77784553D01*
X115439819Y-77117886D02*
X115392200Y-77213124D01*
X115392200Y-77213124D02*
X115296961Y-77260743D01*
X115296961Y-77260743D02*
X114439819Y-77260743D01*
X114773152Y-76117885D02*
X114773152Y-75736933D01*
X115439819Y-75975028D02*
X114582676Y-75975028D01*
X114582676Y-75975028D02*
X114487438Y-75927409D01*
X114487438Y-75927409D02*
X114439819Y-75832171D01*
X114439819Y-75832171D02*
X114439819Y-75736933D01*
X115439819Y-75260742D02*
X115392200Y-75355980D01*
X115392200Y-75355980D02*
X115344580Y-75403599D01*
X115344580Y-75403599D02*
X115249342Y-75451218D01*
X115249342Y-75451218D02*
X114963628Y-75451218D01*
X114963628Y-75451218D02*
X114868390Y-75403599D01*
X114868390Y-75403599D02*
X114820771Y-75355980D01*
X114820771Y-75355980D02*
X114773152Y-75260742D01*
X114773152Y-75260742D02*
X114773152Y-75117885D01*
X114773152Y-75117885D02*
X114820771Y-75022647D01*
X114820771Y-75022647D02*
X114868390Y-74975028D01*
X114868390Y-74975028D02*
X114963628Y-74927409D01*
X114963628Y-74927409D02*
X115249342Y-74927409D01*
X115249342Y-74927409D02*
X115344580Y-74975028D01*
X115344580Y-74975028D02*
X115392200Y-75022647D01*
X115392200Y-75022647D02*
X115439819Y-75117885D01*
X115439819Y-75117885D02*
X115439819Y-75260742D01*
X115439819Y-74498837D02*
X114773152Y-74498837D01*
X114963628Y-74498837D02*
X114868390Y-74451218D01*
X114868390Y-74451218D02*
X114820771Y-74403599D01*
X114820771Y-74403599D02*
X114773152Y-74308361D01*
X114773152Y-74308361D02*
X114773152Y-74213123D01*
X114439819Y-72641694D02*
X114439819Y-73117884D01*
X114439819Y-73117884D02*
X114916009Y-73165503D01*
X114916009Y-73165503D02*
X114868390Y-73117884D01*
X114868390Y-73117884D02*
X114820771Y-73022646D01*
X114820771Y-73022646D02*
X114820771Y-72784551D01*
X114820771Y-72784551D02*
X114868390Y-72689313D01*
X114868390Y-72689313D02*
X114916009Y-72641694D01*
X114916009Y-72641694D02*
X115011247Y-72594075D01*
X115011247Y-72594075D02*
X115249342Y-72594075D01*
X115249342Y-72594075D02*
X115344580Y-72641694D01*
X115344580Y-72641694D02*
X115392200Y-72689313D01*
X115392200Y-72689313D02*
X115439819Y-72784551D01*
X115439819Y-72784551D02*
X115439819Y-73022646D01*
X115439819Y-73022646D02*
X115392200Y-73117884D01*
X115392200Y-73117884D02*
X115344580Y-73165503D01*
X114439819Y-72308360D02*
X115439819Y-71975027D01*
X115439819Y-71975027D02*
X114439819Y-71641694D01*
X110334588Y-86225987D02*
X109763160Y-86225987D01*
X110048874Y-86225987D02*
X110048874Y-85225987D01*
X110048874Y-85225987D02*
X109953636Y-85368844D01*
X109953636Y-85368844D02*
X109858398Y-85464082D01*
X109858398Y-85464082D02*
X109763160Y-85511701D01*
X112001255Y-85225987D02*
X111525065Y-85225987D01*
X111525065Y-85225987D02*
X111477446Y-85702177D01*
X111477446Y-85702177D02*
X111525065Y-85654558D01*
X111525065Y-85654558D02*
X111620303Y-85606939D01*
X111620303Y-85606939D02*
X111858398Y-85606939D01*
X111858398Y-85606939D02*
X111953636Y-85654558D01*
X111953636Y-85654558D02*
X112001255Y-85702177D01*
X112001255Y-85702177D02*
X112048874Y-85797415D01*
X112048874Y-85797415D02*
X112048874Y-86035510D01*
X112048874Y-86035510D02*
X112001255Y-86130748D01*
X112001255Y-86130748D02*
X111953636Y-86178368D01*
X111953636Y-86178368D02*
X111858398Y-86225987D01*
X111858398Y-86225987D02*
X111620303Y-86225987D01*
X111620303Y-86225987D02*
X111525065Y-86178368D01*
X111525065Y-86178368D02*
X111477446Y-86130748D01*
X112334589Y-85225987D02*
X112667922Y-86225987D01*
X112667922Y-86225987D02*
X113001255Y-85225987D01*
X109763160Y-86931169D02*
X109810779Y-86883550D01*
X109810779Y-86883550D02*
X109906017Y-86835931D01*
X109906017Y-86835931D02*
X110144112Y-86835931D01*
X110144112Y-86835931D02*
X110239350Y-86883550D01*
X110239350Y-86883550D02*
X110286969Y-86931169D01*
X110286969Y-86931169D02*
X110334588Y-87026407D01*
X110334588Y-87026407D02*
X110334588Y-87121645D01*
X110334588Y-87121645D02*
X110286969Y-87264502D01*
X110286969Y-87264502D02*
X109715541Y-87835931D01*
X109715541Y-87835931D02*
X110334588Y-87835931D01*
X111382208Y-86835931D02*
X111953636Y-86835931D01*
X111667922Y-87835931D02*
X111667922Y-86835931D01*
X112191732Y-86835931D02*
X112858398Y-87835931D01*
X112858398Y-86835931D02*
X112191732Y-87835931D01*
X109715541Y-88445875D02*
X110334588Y-88445875D01*
X110334588Y-88445875D02*
X110001255Y-88826827D01*
X110001255Y-88826827D02*
X110144112Y-88826827D01*
X110144112Y-88826827D02*
X110239350Y-88874446D01*
X110239350Y-88874446D02*
X110286969Y-88922065D01*
X110286969Y-88922065D02*
X110334588Y-89017303D01*
X110334588Y-89017303D02*
X110334588Y-89255398D01*
X110334588Y-89255398D02*
X110286969Y-89350636D01*
X110286969Y-89350636D02*
X110239350Y-89398256D01*
X110239350Y-89398256D02*
X110144112Y-89445875D01*
X110144112Y-89445875D02*
X109858398Y-89445875D01*
X109858398Y-89445875D02*
X109763160Y-89398256D01*
X109763160Y-89398256D02*
X109715541Y-89350636D01*
X112096493Y-89445875D02*
X111763160Y-88969684D01*
X111525065Y-89445875D02*
X111525065Y-88445875D01*
X111525065Y-88445875D02*
X111906017Y-88445875D01*
X111906017Y-88445875D02*
X112001255Y-88493494D01*
X112001255Y-88493494D02*
X112048874Y-88541113D01*
X112048874Y-88541113D02*
X112096493Y-88636351D01*
X112096493Y-88636351D02*
X112096493Y-88779208D01*
X112096493Y-88779208D02*
X112048874Y-88874446D01*
X112048874Y-88874446D02*
X112001255Y-88922065D01*
X112001255Y-88922065D02*
X111906017Y-88969684D01*
X111906017Y-88969684D02*
X111525065Y-88969684D01*
X112429827Y-88445875D02*
X113096493Y-89445875D01*
X113096493Y-88445875D02*
X112429827Y-89445875D01*
X110239350Y-90389152D02*
X110239350Y-91055819D01*
X110001255Y-90008200D02*
X109763160Y-90722485D01*
X109763160Y-90722485D02*
X110382207Y-90722485D01*
X112048874Y-90103438D02*
X111953636Y-90055819D01*
X111953636Y-90055819D02*
X111810779Y-90055819D01*
X111810779Y-90055819D02*
X111667922Y-90103438D01*
X111667922Y-90103438D02*
X111572684Y-90198676D01*
X111572684Y-90198676D02*
X111525065Y-90293914D01*
X111525065Y-90293914D02*
X111477446Y-90484390D01*
X111477446Y-90484390D02*
X111477446Y-90627247D01*
X111477446Y-90627247D02*
X111525065Y-90817723D01*
X111525065Y-90817723D02*
X111572684Y-90912961D01*
X111572684Y-90912961D02*
X111667922Y-91008200D01*
X111667922Y-91008200D02*
X111810779Y-91055819D01*
X111810779Y-91055819D02*
X111906017Y-91055819D01*
X111906017Y-91055819D02*
X112048874Y-91008200D01*
X112048874Y-91008200D02*
X112096493Y-90960580D01*
X112096493Y-90960580D02*
X112096493Y-90627247D01*
X112096493Y-90627247D02*
X111906017Y-90627247D01*
X112525065Y-91055819D02*
X112525065Y-90055819D01*
X112525065Y-90055819D02*
X113096493Y-91055819D01*
X113096493Y-91055819D02*
X113096493Y-90055819D01*
X113572684Y-91055819D02*
X113572684Y-90055819D01*
X113572684Y-90055819D02*
X113810779Y-90055819D01*
X113810779Y-90055819D02*
X113953636Y-90103438D01*
X113953636Y-90103438D02*
X114048874Y-90198676D01*
X114048874Y-90198676D02*
X114096493Y-90293914D01*
X114096493Y-90293914D02*
X114144112Y-90484390D01*
X114144112Y-90484390D02*
X114144112Y-90627247D01*
X114144112Y-90627247D02*
X114096493Y-90817723D01*
X114096493Y-90817723D02*
X114048874Y-90912961D01*
X114048874Y-90912961D02*
X113953636Y-91008200D01*
X113953636Y-91008200D02*
X113810779Y-91055819D01*
X113810779Y-91055819D02*
X113572684Y-91055819D01*
X119896095Y-129502819D02*
X120467523Y-129502819D01*
X120181809Y-130502819D02*
X120181809Y-129502819D01*
X120800857Y-130502819D02*
X120800857Y-129502819D01*
X120800857Y-129502819D02*
X121181809Y-129502819D01*
X121181809Y-129502819D02*
X121277047Y-129550438D01*
X121277047Y-129550438D02*
X121324666Y-129598057D01*
X121324666Y-129598057D02*
X121372285Y-129693295D01*
X121372285Y-129693295D02*
X121372285Y-129836152D01*
X121372285Y-129836152D02*
X121324666Y-129931390D01*
X121324666Y-129931390D02*
X121277047Y-129979009D01*
X121277047Y-129979009D02*
X121181809Y-130026628D01*
X121181809Y-130026628D02*
X120800857Y-130026628D01*
X122277047Y-129502819D02*
X121800857Y-129502819D01*
X121800857Y-129502819D02*
X121753238Y-129979009D01*
X121753238Y-129979009D02*
X121800857Y-129931390D01*
X121800857Y-129931390D02*
X121896095Y-129883771D01*
X121896095Y-129883771D02*
X122134190Y-129883771D01*
X122134190Y-129883771D02*
X122229428Y-129931390D01*
X122229428Y-129931390D02*
X122277047Y-129979009D01*
X122277047Y-129979009D02*
X122324666Y-130074247D01*
X122324666Y-130074247D02*
X122324666Y-130312342D01*
X122324666Y-130312342D02*
X122277047Y-130407580D01*
X122277047Y-130407580D02*
X122229428Y-130455200D01*
X122229428Y-130455200D02*
X122134190Y-130502819D01*
X122134190Y-130502819D02*
X121896095Y-130502819D01*
X121896095Y-130502819D02*
X121800857Y-130455200D01*
X121800857Y-130455200D02*
X121753238Y-130407580D01*
X118787942Y-112449780D02*
X118740323Y-112497400D01*
X118740323Y-112497400D02*
X118597466Y-112545019D01*
X118597466Y-112545019D02*
X118502228Y-112545019D01*
X118502228Y-112545019D02*
X118359371Y-112497400D01*
X118359371Y-112497400D02*
X118264133Y-112402161D01*
X118264133Y-112402161D02*
X118216514Y-112306923D01*
X118216514Y-112306923D02*
X118168895Y-112116447D01*
X118168895Y-112116447D02*
X118168895Y-111973590D01*
X118168895Y-111973590D02*
X118216514Y-111783114D01*
X118216514Y-111783114D02*
X118264133Y-111687876D01*
X118264133Y-111687876D02*
X118359371Y-111592638D01*
X118359371Y-111592638D02*
X118502228Y-111545019D01*
X118502228Y-111545019D02*
X118597466Y-111545019D01*
X118597466Y-111545019D02*
X118740323Y-111592638D01*
X118740323Y-111592638D02*
X118787942Y-111640257D01*
X119740323Y-112545019D02*
X119168895Y-112545019D01*
X119454609Y-112545019D02*
X119454609Y-111545019D01*
X119454609Y-111545019D02*
X119359371Y-111687876D01*
X119359371Y-111687876D02*
X119264133Y-111783114D01*
X119264133Y-111783114D02*
X119168895Y-111830733D01*
X120359371Y-111545019D02*
X120454609Y-111545019D01*
X120454609Y-111545019D02*
X120549847Y-111592638D01*
X120549847Y-111592638D02*
X120597466Y-111640257D01*
X120597466Y-111640257D02*
X120645085Y-111735495D01*
X120645085Y-111735495D02*
X120692704Y-111925971D01*
X120692704Y-111925971D02*
X120692704Y-112164066D01*
X120692704Y-112164066D02*
X120645085Y-112354542D01*
X120645085Y-112354542D02*
X120597466Y-112449780D01*
X120597466Y-112449780D02*
X120549847Y-112497400D01*
X120549847Y-112497400D02*
X120454609Y-112545019D01*
X120454609Y-112545019D02*
X120359371Y-112545019D01*
X120359371Y-112545019D02*
X120264133Y-112497400D01*
X120264133Y-112497400D02*
X120216514Y-112449780D01*
X120216514Y-112449780D02*
X120168895Y-112354542D01*
X120168895Y-112354542D02*
X120121276Y-112164066D01*
X120121276Y-112164066D02*
X120121276Y-111925971D01*
X120121276Y-111925971D02*
X120168895Y-111735495D01*
X120168895Y-111735495D02*
X120216514Y-111640257D01*
X120216514Y-111640257D02*
X120264133Y-111592638D01*
X120264133Y-111592638D02*
X120359371Y-111545019D01*
X113292095Y-129502819D02*
X113863523Y-129502819D01*
X113577809Y-130502819D02*
X113577809Y-129502819D01*
X114196857Y-130502819D02*
X114196857Y-129502819D01*
X114196857Y-129502819D02*
X114577809Y-129502819D01*
X114577809Y-129502819D02*
X114673047Y-129550438D01*
X114673047Y-129550438D02*
X114720666Y-129598057D01*
X114720666Y-129598057D02*
X114768285Y-129693295D01*
X114768285Y-129693295D02*
X114768285Y-129836152D01*
X114768285Y-129836152D02*
X114720666Y-129931390D01*
X114720666Y-129931390D02*
X114673047Y-129979009D01*
X114673047Y-129979009D02*
X114577809Y-130026628D01*
X114577809Y-130026628D02*
X114196857Y-130026628D01*
X115101619Y-129502819D02*
X115720666Y-129502819D01*
X115720666Y-129502819D02*
X115387333Y-129883771D01*
X115387333Y-129883771D02*
X115530190Y-129883771D01*
X115530190Y-129883771D02*
X115625428Y-129931390D01*
X115625428Y-129931390D02*
X115673047Y-129979009D01*
X115673047Y-129979009D02*
X115720666Y-130074247D01*
X115720666Y-130074247D02*
X115720666Y-130312342D01*
X115720666Y-130312342D02*
X115673047Y-130407580D01*
X115673047Y-130407580D02*
X115625428Y-130455200D01*
X115625428Y-130455200D02*
X115530190Y-130502819D01*
X115530190Y-130502819D02*
X115244476Y-130502819D01*
X115244476Y-130502819D02*
X115149238Y-130455200D01*
X115149238Y-130455200D02*
X115101619Y-130407580D01*
X155456095Y-79210819D02*
X156027523Y-79210819D01*
X155741809Y-80210819D02*
X155741809Y-79210819D01*
X156360857Y-80210819D02*
X156360857Y-79210819D01*
X156360857Y-79210819D02*
X156741809Y-79210819D01*
X156741809Y-79210819D02*
X156837047Y-79258438D01*
X156837047Y-79258438D02*
X156884666Y-79306057D01*
X156884666Y-79306057D02*
X156932285Y-79401295D01*
X156932285Y-79401295D02*
X156932285Y-79544152D01*
X156932285Y-79544152D02*
X156884666Y-79639390D01*
X156884666Y-79639390D02*
X156837047Y-79687009D01*
X156837047Y-79687009D02*
X156741809Y-79734628D01*
X156741809Y-79734628D02*
X156360857Y-79734628D01*
X157789428Y-79544152D02*
X157789428Y-80210819D01*
X157551333Y-79163200D02*
X157313238Y-79877485D01*
X157313238Y-79877485D02*
X157932285Y-79877485D01*
X109216866Y-120231819D02*
X109216866Y-120946104D01*
X109216866Y-120946104D02*
X109169247Y-121088961D01*
X109169247Y-121088961D02*
X109074009Y-121184200D01*
X109074009Y-121184200D02*
X108931152Y-121231819D01*
X108931152Y-121231819D02*
X108835914Y-121231819D01*
X109597819Y-120231819D02*
X110216866Y-120231819D01*
X110216866Y-120231819D02*
X109883533Y-120612771D01*
X109883533Y-120612771D02*
X110026390Y-120612771D01*
X110026390Y-120612771D02*
X110121628Y-120660390D01*
X110121628Y-120660390D02*
X110169247Y-120708009D01*
X110169247Y-120708009D02*
X110216866Y-120803247D01*
X110216866Y-120803247D02*
X110216866Y-121041342D01*
X110216866Y-121041342D02*
X110169247Y-121136580D01*
X110169247Y-121136580D02*
X110121628Y-121184200D01*
X110121628Y-121184200D02*
X110026390Y-121231819D01*
X110026390Y-121231819D02*
X109740676Y-121231819D01*
X109740676Y-121231819D02*
X109645438Y-121184200D01*
X109645438Y-121184200D02*
X109597819Y-121136580D01*
X146910466Y-136843419D02*
X146910466Y-137557704D01*
X146910466Y-137557704D02*
X146862847Y-137700561D01*
X146862847Y-137700561D02*
X146767609Y-137795800D01*
X146767609Y-137795800D02*
X146624752Y-137843419D01*
X146624752Y-137843419D02*
X146529514Y-137843419D01*
X147291419Y-136843419D02*
X147958085Y-136843419D01*
X147958085Y-136843419D02*
X147529514Y-137843419D01*
X113157095Y-119598819D02*
X113157095Y-120408342D01*
X113157095Y-120408342D02*
X113204714Y-120503580D01*
X113204714Y-120503580D02*
X113252333Y-120551200D01*
X113252333Y-120551200D02*
X113347571Y-120598819D01*
X113347571Y-120598819D02*
X113538047Y-120598819D01*
X113538047Y-120598819D02*
X113633285Y-120551200D01*
X113633285Y-120551200D02*
X113680904Y-120503580D01*
X113680904Y-120503580D02*
X113728523Y-120408342D01*
X113728523Y-120408342D02*
X113728523Y-119598819D01*
X114680904Y-119598819D02*
X114204714Y-119598819D01*
X114204714Y-119598819D02*
X114157095Y-120075009D01*
X114157095Y-120075009D02*
X114204714Y-120027390D01*
X114204714Y-120027390D02*
X114299952Y-119979771D01*
X114299952Y-119979771D02*
X114538047Y-119979771D01*
X114538047Y-119979771D02*
X114633285Y-120027390D01*
X114633285Y-120027390D02*
X114680904Y-120075009D01*
X114680904Y-120075009D02*
X114728523Y-120170247D01*
X114728523Y-120170247D02*
X114728523Y-120408342D01*
X114728523Y-120408342D02*
X114680904Y-120503580D01*
X114680904Y-120503580D02*
X114633285Y-120551200D01*
X114633285Y-120551200D02*
X114538047Y-120598819D01*
X114538047Y-120598819D02*
X114299952Y-120598819D01*
X114299952Y-120598819D02*
X114204714Y-120551200D01*
X114204714Y-120551200D02*
X114157095Y-120503580D01*
X109216866Y-112561019D02*
X109216866Y-113275304D01*
X109216866Y-113275304D02*
X109169247Y-113418161D01*
X109169247Y-113418161D02*
X109074009Y-113513400D01*
X109074009Y-113513400D02*
X108931152Y-113561019D01*
X108931152Y-113561019D02*
X108835914Y-113561019D01*
X109645438Y-112656257D02*
X109693057Y-112608638D01*
X109693057Y-112608638D02*
X109788295Y-112561019D01*
X109788295Y-112561019D02*
X110026390Y-112561019D01*
X110026390Y-112561019D02*
X110121628Y-112608638D01*
X110121628Y-112608638D02*
X110169247Y-112656257D01*
X110169247Y-112656257D02*
X110216866Y-112751495D01*
X110216866Y-112751495D02*
X110216866Y-112846733D01*
X110216866Y-112846733D02*
X110169247Y-112989590D01*
X110169247Y-112989590D02*
X109597819Y-113561019D01*
X109597819Y-113561019D02*
X110216866Y-113561019D01*
X155456095Y-93942819D02*
X156027523Y-93942819D01*
X155741809Y-94942819D02*
X155741809Y-93942819D01*
X156360857Y-94942819D02*
X156360857Y-93942819D01*
X156360857Y-93942819D02*
X156741809Y-93942819D01*
X156741809Y-93942819D02*
X156837047Y-93990438D01*
X156837047Y-93990438D02*
X156884666Y-94038057D01*
X156884666Y-94038057D02*
X156932285Y-94133295D01*
X156932285Y-94133295D02*
X156932285Y-94276152D01*
X156932285Y-94276152D02*
X156884666Y-94371390D01*
X156884666Y-94371390D02*
X156837047Y-94419009D01*
X156837047Y-94419009D02*
X156741809Y-94466628D01*
X156741809Y-94466628D02*
X156360857Y-94466628D01*
X157313238Y-94038057D02*
X157360857Y-93990438D01*
X157360857Y-93990438D02*
X157456095Y-93942819D01*
X157456095Y-93942819D02*
X157694190Y-93942819D01*
X157694190Y-93942819D02*
X157789428Y-93990438D01*
X157789428Y-93990438D02*
X157837047Y-94038057D01*
X157837047Y-94038057D02*
X157884666Y-94133295D01*
X157884666Y-94133295D02*
X157884666Y-94228533D01*
X157884666Y-94228533D02*
X157837047Y-94371390D01*
X157837047Y-94371390D02*
X157265619Y-94942819D01*
X157265619Y-94942819D02*
X157884666Y-94942819D01*
X118781533Y-120044380D02*
X118733914Y-120092000D01*
X118733914Y-120092000D02*
X118591057Y-120139619D01*
X118591057Y-120139619D02*
X118495819Y-120139619D01*
X118495819Y-120139619D02*
X118352962Y-120092000D01*
X118352962Y-120092000D02*
X118257724Y-119996761D01*
X118257724Y-119996761D02*
X118210105Y-119901523D01*
X118210105Y-119901523D02*
X118162486Y-119711047D01*
X118162486Y-119711047D02*
X118162486Y-119568190D01*
X118162486Y-119568190D02*
X118210105Y-119377714D01*
X118210105Y-119377714D02*
X118257724Y-119282476D01*
X118257724Y-119282476D02*
X118352962Y-119187238D01*
X118352962Y-119187238D02*
X118495819Y-119139619D01*
X118495819Y-119139619D02*
X118591057Y-119139619D01*
X118591057Y-119139619D02*
X118733914Y-119187238D01*
X118733914Y-119187238D02*
X118781533Y-119234857D01*
X119352962Y-119568190D02*
X119257724Y-119520571D01*
X119257724Y-119520571D02*
X119210105Y-119472952D01*
X119210105Y-119472952D02*
X119162486Y-119377714D01*
X119162486Y-119377714D02*
X119162486Y-119330095D01*
X119162486Y-119330095D02*
X119210105Y-119234857D01*
X119210105Y-119234857D02*
X119257724Y-119187238D01*
X119257724Y-119187238D02*
X119352962Y-119139619D01*
X119352962Y-119139619D02*
X119543438Y-119139619D01*
X119543438Y-119139619D02*
X119638676Y-119187238D01*
X119638676Y-119187238D02*
X119686295Y-119234857D01*
X119686295Y-119234857D02*
X119733914Y-119330095D01*
X119733914Y-119330095D02*
X119733914Y-119377714D01*
X119733914Y-119377714D02*
X119686295Y-119472952D01*
X119686295Y-119472952D02*
X119638676Y-119520571D01*
X119638676Y-119520571D02*
X119543438Y-119568190D01*
X119543438Y-119568190D02*
X119352962Y-119568190D01*
X119352962Y-119568190D02*
X119257724Y-119615809D01*
X119257724Y-119615809D02*
X119210105Y-119663428D01*
X119210105Y-119663428D02*
X119162486Y-119758666D01*
X119162486Y-119758666D02*
X119162486Y-119949142D01*
X119162486Y-119949142D02*
X119210105Y-120044380D01*
X119210105Y-120044380D02*
X119257724Y-120092000D01*
X119257724Y-120092000D02*
X119352962Y-120139619D01*
X119352962Y-120139619D02*
X119543438Y-120139619D01*
X119543438Y-120139619D02*
X119638676Y-120092000D01*
X119638676Y-120092000D02*
X119686295Y-120044380D01*
X119686295Y-120044380D02*
X119733914Y-119949142D01*
X119733914Y-119949142D02*
X119733914Y-119758666D01*
X119733914Y-119758666D02*
X119686295Y-119663428D01*
X119686295Y-119663428D02*
X119638676Y-119615809D01*
X119638676Y-119615809D02*
X119543438Y-119568190D01*
X126630133Y-96492219D02*
X126296800Y-96016028D01*
X126058705Y-96492219D02*
X126058705Y-95492219D01*
X126058705Y-95492219D02*
X126439657Y-95492219D01*
X126439657Y-95492219D02*
X126534895Y-95539838D01*
X126534895Y-95539838D02*
X126582514Y-95587457D01*
X126582514Y-95587457D02*
X126630133Y-95682695D01*
X126630133Y-95682695D02*
X126630133Y-95825552D01*
X126630133Y-95825552D02*
X126582514Y-95920790D01*
X126582514Y-95920790D02*
X126534895Y-95968409D01*
X126534895Y-95968409D02*
X126439657Y-96016028D01*
X126439657Y-96016028D02*
X126058705Y-96016028D01*
X126963467Y-95492219D02*
X127582514Y-95492219D01*
X127582514Y-95492219D02*
X127249181Y-95873171D01*
X127249181Y-95873171D02*
X127392038Y-95873171D01*
X127392038Y-95873171D02*
X127487276Y-95920790D01*
X127487276Y-95920790D02*
X127534895Y-95968409D01*
X127534895Y-95968409D02*
X127582514Y-96063647D01*
X127582514Y-96063647D02*
X127582514Y-96301742D01*
X127582514Y-96301742D02*
X127534895Y-96396980D01*
X127534895Y-96396980D02*
X127487276Y-96444600D01*
X127487276Y-96444600D02*
X127392038Y-96492219D01*
X127392038Y-96492219D02*
X127106324Y-96492219D01*
X127106324Y-96492219D02*
X127011086Y-96444600D01*
X127011086Y-96444600D02*
X126963467Y-96396980D01*
X114641333Y-83382819D02*
X114308000Y-82906628D01*
X114069905Y-83382819D02*
X114069905Y-82382819D01*
X114069905Y-82382819D02*
X114450857Y-82382819D01*
X114450857Y-82382819D02*
X114546095Y-82430438D01*
X114546095Y-82430438D02*
X114593714Y-82478057D01*
X114593714Y-82478057D02*
X114641333Y-82573295D01*
X114641333Y-82573295D02*
X114641333Y-82716152D01*
X114641333Y-82716152D02*
X114593714Y-82811390D01*
X114593714Y-82811390D02*
X114546095Y-82859009D01*
X114546095Y-82859009D02*
X114450857Y-82906628D01*
X114450857Y-82906628D02*
X114069905Y-82906628D01*
X115546095Y-82382819D02*
X115069905Y-82382819D01*
X115069905Y-82382819D02*
X115022286Y-82859009D01*
X115022286Y-82859009D02*
X115069905Y-82811390D01*
X115069905Y-82811390D02*
X115165143Y-82763771D01*
X115165143Y-82763771D02*
X115403238Y-82763771D01*
X115403238Y-82763771D02*
X115498476Y-82811390D01*
X115498476Y-82811390D02*
X115546095Y-82859009D01*
X115546095Y-82859009D02*
X115593714Y-82954247D01*
X115593714Y-82954247D02*
X115593714Y-83192342D01*
X115593714Y-83192342D02*
X115546095Y-83287580D01*
X115546095Y-83287580D02*
X115498476Y-83335200D01*
X115498476Y-83335200D02*
X115403238Y-83382819D01*
X115403238Y-83382819D02*
X115165143Y-83382819D01*
X115165143Y-83382819D02*
X115069905Y-83335200D01*
X115069905Y-83335200D02*
X115022286Y-83287580D01*
X155456095Y-86576819D02*
X156027523Y-86576819D01*
X155741809Y-87576819D02*
X155741809Y-86576819D01*
X156360857Y-87576819D02*
X156360857Y-86576819D01*
X156360857Y-86576819D02*
X156741809Y-86576819D01*
X156741809Y-86576819D02*
X156837047Y-86624438D01*
X156837047Y-86624438D02*
X156884666Y-86672057D01*
X156884666Y-86672057D02*
X156932285Y-86767295D01*
X156932285Y-86767295D02*
X156932285Y-86910152D01*
X156932285Y-86910152D02*
X156884666Y-87005390D01*
X156884666Y-87005390D02*
X156837047Y-87053009D01*
X156837047Y-87053009D02*
X156741809Y-87100628D01*
X156741809Y-87100628D02*
X156360857Y-87100628D01*
X157884666Y-87576819D02*
X157313238Y-87576819D01*
X157598952Y-87576819D02*
X157598952Y-86576819D01*
X157598952Y-86576819D02*
X157503714Y-86719676D01*
X157503714Y-86719676D02*
X157408476Y-86814914D01*
X157408476Y-86814914D02*
X157313238Y-86862533D01*
X126577960Y-74895904D02*
X127054150Y-74895904D01*
X126482722Y-75181619D02*
X126816055Y-74181619D01*
X126816055Y-74181619D02*
X127149388Y-75181619D01*
X128006531Y-75181619D02*
X127435103Y-75181619D01*
X127720817Y-75181619D02*
X127720817Y-74181619D01*
X127720817Y-74181619D02*
X127625579Y-74324476D01*
X127625579Y-74324476D02*
X127530341Y-74419714D01*
X127530341Y-74419714D02*
X127435103Y-74467333D01*
X126579333Y-89913619D02*
X126246000Y-89437428D01*
X126007905Y-89913619D02*
X126007905Y-88913619D01*
X126007905Y-88913619D02*
X126388857Y-88913619D01*
X126388857Y-88913619D02*
X126484095Y-88961238D01*
X126484095Y-88961238D02*
X126531714Y-89008857D01*
X126531714Y-89008857D02*
X126579333Y-89104095D01*
X126579333Y-89104095D02*
X126579333Y-89246952D01*
X126579333Y-89246952D02*
X126531714Y-89342190D01*
X126531714Y-89342190D02*
X126484095Y-89389809D01*
X126484095Y-89389809D02*
X126388857Y-89437428D01*
X126388857Y-89437428D02*
X126007905Y-89437428D01*
X126960286Y-89008857D02*
X127007905Y-88961238D01*
X127007905Y-88961238D02*
X127103143Y-88913619D01*
X127103143Y-88913619D02*
X127341238Y-88913619D01*
X127341238Y-88913619D02*
X127436476Y-88961238D01*
X127436476Y-88961238D02*
X127484095Y-89008857D01*
X127484095Y-89008857D02*
X127531714Y-89104095D01*
X127531714Y-89104095D02*
X127531714Y-89199333D01*
X127531714Y-89199333D02*
X127484095Y-89342190D01*
X127484095Y-89342190D02*
X126912667Y-89913619D01*
X126912667Y-89913619D02*
X127531714Y-89913619D01*
X113752333Y-127715180D02*
X113704714Y-127762800D01*
X113704714Y-127762800D02*
X113561857Y-127810419D01*
X113561857Y-127810419D02*
X113466619Y-127810419D01*
X113466619Y-127810419D02*
X113323762Y-127762800D01*
X113323762Y-127762800D02*
X113228524Y-127667561D01*
X113228524Y-127667561D02*
X113180905Y-127572323D01*
X113180905Y-127572323D02*
X113133286Y-127381847D01*
X113133286Y-127381847D02*
X113133286Y-127238990D01*
X113133286Y-127238990D02*
X113180905Y-127048514D01*
X113180905Y-127048514D02*
X113228524Y-126953276D01*
X113228524Y-126953276D02*
X113323762Y-126858038D01*
X113323762Y-126858038D02*
X113466619Y-126810419D01*
X113466619Y-126810419D02*
X113561857Y-126810419D01*
X113561857Y-126810419D02*
X113704714Y-126858038D01*
X113704714Y-126858038D02*
X113752333Y-126905657D01*
X114657095Y-126810419D02*
X114180905Y-126810419D01*
X114180905Y-126810419D02*
X114133286Y-127286609D01*
X114133286Y-127286609D02*
X114180905Y-127238990D01*
X114180905Y-127238990D02*
X114276143Y-127191371D01*
X114276143Y-127191371D02*
X114514238Y-127191371D01*
X114514238Y-127191371D02*
X114609476Y-127238990D01*
X114609476Y-127238990D02*
X114657095Y-127286609D01*
X114657095Y-127286609D02*
X114704714Y-127381847D01*
X114704714Y-127381847D02*
X114704714Y-127619942D01*
X114704714Y-127619942D02*
X114657095Y-127715180D01*
X114657095Y-127715180D02*
X114609476Y-127762800D01*
X114609476Y-127762800D02*
X114514238Y-127810419D01*
X114514238Y-127810419D02*
X114276143Y-127810419D01*
X114276143Y-127810419D02*
X114180905Y-127762800D01*
X114180905Y-127762800D02*
X114133286Y-127715180D01*
X126604733Y-87373619D02*
X126271400Y-86897428D01*
X126033305Y-87373619D02*
X126033305Y-86373619D01*
X126033305Y-86373619D02*
X126414257Y-86373619D01*
X126414257Y-86373619D02*
X126509495Y-86421238D01*
X126509495Y-86421238D02*
X126557114Y-86468857D01*
X126557114Y-86468857D02*
X126604733Y-86564095D01*
X126604733Y-86564095D02*
X126604733Y-86706952D01*
X126604733Y-86706952D02*
X126557114Y-86802190D01*
X126557114Y-86802190D02*
X126509495Y-86849809D01*
X126509495Y-86849809D02*
X126414257Y-86897428D01*
X126414257Y-86897428D02*
X126033305Y-86897428D01*
X127557114Y-87373619D02*
X126985686Y-87373619D01*
X127271400Y-87373619D02*
X127271400Y-86373619D01*
X127271400Y-86373619D02*
X127176162Y-86516476D01*
X127176162Y-86516476D02*
X127080924Y-86611714D01*
X127080924Y-86611714D02*
X126985686Y-86659333D01*
X107591266Y-93511019D02*
X107591266Y-94225304D01*
X107591266Y-94225304D02*
X107543647Y-94368161D01*
X107543647Y-94368161D02*
X107448409Y-94463400D01*
X107448409Y-94463400D02*
X107305552Y-94511019D01*
X107305552Y-94511019D02*
X107210314Y-94511019D01*
X108210314Y-93939590D02*
X108115076Y-93891971D01*
X108115076Y-93891971D02*
X108067457Y-93844352D01*
X108067457Y-93844352D02*
X108019838Y-93749114D01*
X108019838Y-93749114D02*
X108019838Y-93701495D01*
X108019838Y-93701495D02*
X108067457Y-93606257D01*
X108067457Y-93606257D02*
X108115076Y-93558638D01*
X108115076Y-93558638D02*
X108210314Y-93511019D01*
X108210314Y-93511019D02*
X108400790Y-93511019D01*
X108400790Y-93511019D02*
X108496028Y-93558638D01*
X108496028Y-93558638D02*
X108543647Y-93606257D01*
X108543647Y-93606257D02*
X108591266Y-93701495D01*
X108591266Y-93701495D02*
X108591266Y-93749114D01*
X108591266Y-93749114D02*
X108543647Y-93844352D01*
X108543647Y-93844352D02*
X108496028Y-93891971D01*
X108496028Y-93891971D02*
X108400790Y-93939590D01*
X108400790Y-93939590D02*
X108210314Y-93939590D01*
X108210314Y-93939590D02*
X108115076Y-93987209D01*
X108115076Y-93987209D02*
X108067457Y-94034828D01*
X108067457Y-94034828D02*
X108019838Y-94130066D01*
X108019838Y-94130066D02*
X108019838Y-94320542D01*
X108019838Y-94320542D02*
X108067457Y-94415780D01*
X108067457Y-94415780D02*
X108115076Y-94463400D01*
X108115076Y-94463400D02*
X108210314Y-94511019D01*
X108210314Y-94511019D02*
X108400790Y-94511019D01*
X108400790Y-94511019D02*
X108496028Y-94463400D01*
X108496028Y-94463400D02*
X108543647Y-94415780D01*
X108543647Y-94415780D02*
X108591266Y-94320542D01*
X108591266Y-94320542D02*
X108591266Y-94130066D01*
X108591266Y-94130066D02*
X108543647Y-94034828D01*
X108543647Y-94034828D02*
X108496028Y-93987209D01*
X108496028Y-93987209D02*
X108400790Y-93939590D01*
X113436495Y-112103819D02*
X113436495Y-112913342D01*
X113436495Y-112913342D02*
X113484114Y-113008580D01*
X113484114Y-113008580D02*
X113531733Y-113056200D01*
X113531733Y-113056200D02*
X113626971Y-113103819D01*
X113626971Y-113103819D02*
X113817447Y-113103819D01*
X113817447Y-113103819D02*
X113912685Y-113056200D01*
X113912685Y-113056200D02*
X113960304Y-113008580D01*
X113960304Y-113008580D02*
X114007923Y-112913342D01*
X114007923Y-112913342D02*
X114007923Y-112103819D01*
X114912685Y-112437152D02*
X114912685Y-113103819D01*
X114674590Y-112056200D02*
X114436495Y-112770485D01*
X114436495Y-112770485D02*
X115055542Y-112770485D01*
X107591266Y-81649219D02*
X107591266Y-82363504D01*
X107591266Y-82363504D02*
X107543647Y-82506361D01*
X107543647Y-82506361D02*
X107448409Y-82601600D01*
X107448409Y-82601600D02*
X107305552Y-82649219D01*
X107305552Y-82649219D02*
X107210314Y-82649219D01*
X108543647Y-81649219D02*
X108067457Y-81649219D01*
X108067457Y-81649219D02*
X108019838Y-82125409D01*
X108019838Y-82125409D02*
X108067457Y-82077790D01*
X108067457Y-82077790D02*
X108162695Y-82030171D01*
X108162695Y-82030171D02*
X108400790Y-82030171D01*
X108400790Y-82030171D02*
X108496028Y-82077790D01*
X108496028Y-82077790D02*
X108543647Y-82125409D01*
X108543647Y-82125409D02*
X108591266Y-82220647D01*
X108591266Y-82220647D02*
X108591266Y-82458742D01*
X108591266Y-82458742D02*
X108543647Y-82553980D01*
X108543647Y-82553980D02*
X108496028Y-82601600D01*
X108496028Y-82601600D02*
X108400790Y-82649219D01*
X108400790Y-82649219D02*
X108162695Y-82649219D01*
X108162695Y-82649219D02*
X108067457Y-82601600D01*
X108067457Y-82601600D02*
X108019838Y-82553980D01*
X128096180Y-133561057D02*
X128143800Y-133608676D01*
X128143800Y-133608676D02*
X128191419Y-133751533D01*
X128191419Y-133751533D02*
X128191419Y-133846771D01*
X128191419Y-133846771D02*
X128143800Y-133989628D01*
X128143800Y-133989628D02*
X128048561Y-134084866D01*
X128048561Y-134084866D02*
X127953323Y-134132485D01*
X127953323Y-134132485D02*
X127762847Y-134180104D01*
X127762847Y-134180104D02*
X127619990Y-134180104D01*
X127619990Y-134180104D02*
X127429514Y-134132485D01*
X127429514Y-134132485D02*
X127334276Y-134084866D01*
X127334276Y-134084866D02*
X127239038Y-133989628D01*
X127239038Y-133989628D02*
X127191419Y-133846771D01*
X127191419Y-133846771D02*
X127191419Y-133751533D01*
X127191419Y-133751533D02*
X127239038Y-133608676D01*
X127239038Y-133608676D02*
X127286657Y-133561057D01*
X128191419Y-132608676D02*
X128191419Y-133180104D01*
X128191419Y-132894390D02*
X127191419Y-132894390D01*
X127191419Y-132894390D02*
X127334276Y-132989628D01*
X127334276Y-132989628D02*
X127429514Y-133084866D01*
X127429514Y-133084866D02*
X127477133Y-133180104D01*
X127286657Y-132227723D02*
X127239038Y-132180104D01*
X127239038Y-132180104D02*
X127191419Y-132084866D01*
X127191419Y-132084866D02*
X127191419Y-131846771D01*
X127191419Y-131846771D02*
X127239038Y-131751533D01*
X127239038Y-131751533D02*
X127286657Y-131703914D01*
X127286657Y-131703914D02*
X127381895Y-131656295D01*
X127381895Y-131656295D02*
X127477133Y-131656295D01*
X127477133Y-131656295D02*
X127619990Y-131703914D01*
X127619990Y-131703914D02*
X128191419Y-132275342D01*
X128191419Y-132275342D02*
X128191419Y-131656295D01*
X113973780Y-123559866D02*
X114021400Y-123607485D01*
X114021400Y-123607485D02*
X114069019Y-123750342D01*
X114069019Y-123750342D02*
X114069019Y-123845580D01*
X114069019Y-123845580D02*
X114021400Y-123988437D01*
X114021400Y-123988437D02*
X113926161Y-124083675D01*
X113926161Y-124083675D02*
X113830923Y-124131294D01*
X113830923Y-124131294D02*
X113640447Y-124178913D01*
X113640447Y-124178913D02*
X113497590Y-124178913D01*
X113497590Y-124178913D02*
X113307114Y-124131294D01*
X113307114Y-124131294D02*
X113211876Y-124083675D01*
X113211876Y-124083675D02*
X113116638Y-123988437D01*
X113116638Y-123988437D02*
X113069019Y-123845580D01*
X113069019Y-123845580D02*
X113069019Y-123750342D01*
X113069019Y-123750342D02*
X113116638Y-123607485D01*
X113116638Y-123607485D02*
X113164257Y-123559866D01*
X114069019Y-123083675D02*
X114069019Y-122893199D01*
X114069019Y-122893199D02*
X114021400Y-122797961D01*
X114021400Y-122797961D02*
X113973780Y-122750342D01*
X113973780Y-122750342D02*
X113830923Y-122655104D01*
X113830923Y-122655104D02*
X113640447Y-122607485D01*
X113640447Y-122607485D02*
X113259495Y-122607485D01*
X113259495Y-122607485D02*
X113164257Y-122655104D01*
X113164257Y-122655104D02*
X113116638Y-122702723D01*
X113116638Y-122702723D02*
X113069019Y-122797961D01*
X113069019Y-122797961D02*
X113069019Y-122988437D01*
X113069019Y-122988437D02*
X113116638Y-123083675D01*
X113116638Y-123083675D02*
X113164257Y-123131294D01*
X113164257Y-123131294D02*
X113259495Y-123178913D01*
X113259495Y-123178913D02*
X113497590Y-123178913D01*
X113497590Y-123178913D02*
X113592828Y-123131294D01*
X113592828Y-123131294D02*
X113640447Y-123083675D01*
X113640447Y-123083675D02*
X113688066Y-122988437D01*
X113688066Y-122988437D02*
X113688066Y-122797961D01*
X113688066Y-122797961D02*
X113640447Y-122702723D01*
X113640447Y-122702723D02*
X113592828Y-122655104D01*
X113592828Y-122655104D02*
X113497590Y-122607485D01*
X114655695Y-104382219D02*
X114655695Y-105191742D01*
X114655695Y-105191742D02*
X114703314Y-105286980D01*
X114703314Y-105286980D02*
X114750933Y-105334600D01*
X114750933Y-105334600D02*
X114846171Y-105382219D01*
X114846171Y-105382219D02*
X115036647Y-105382219D01*
X115036647Y-105382219D02*
X115131885Y-105334600D01*
X115131885Y-105334600D02*
X115179504Y-105286980D01*
X115179504Y-105286980D02*
X115227123Y-105191742D01*
X115227123Y-105191742D02*
X115227123Y-104382219D01*
X115608076Y-104382219D02*
X116227123Y-104382219D01*
X116227123Y-104382219D02*
X115893790Y-104763171D01*
X115893790Y-104763171D02*
X116036647Y-104763171D01*
X116036647Y-104763171D02*
X116131885Y-104810790D01*
X116131885Y-104810790D02*
X116179504Y-104858409D01*
X116179504Y-104858409D02*
X116227123Y-104953647D01*
X116227123Y-104953647D02*
X116227123Y-105191742D01*
X116227123Y-105191742D02*
X116179504Y-105286980D01*
X116179504Y-105286980D02*
X116131885Y-105334600D01*
X116131885Y-105334600D02*
X116036647Y-105382219D01*
X116036647Y-105382219D02*
X115750933Y-105382219D01*
X115750933Y-105382219D02*
X115655695Y-105334600D01*
X115655695Y-105334600D02*
X115608076Y-105286980D01*
X113922980Y-115965266D02*
X113970600Y-116012885D01*
X113970600Y-116012885D02*
X114018219Y-116155742D01*
X114018219Y-116155742D02*
X114018219Y-116250980D01*
X114018219Y-116250980D02*
X113970600Y-116393837D01*
X113970600Y-116393837D02*
X113875361Y-116489075D01*
X113875361Y-116489075D02*
X113780123Y-116536694D01*
X113780123Y-116536694D02*
X113589647Y-116584313D01*
X113589647Y-116584313D02*
X113446790Y-116584313D01*
X113446790Y-116584313D02*
X113256314Y-116536694D01*
X113256314Y-116536694D02*
X113161076Y-116489075D01*
X113161076Y-116489075D02*
X113065838Y-116393837D01*
X113065838Y-116393837D02*
X113018219Y-116250980D01*
X113018219Y-116250980D02*
X113018219Y-116155742D01*
X113018219Y-116155742D02*
X113065838Y-116012885D01*
X113065838Y-116012885D02*
X113113457Y-115965266D01*
X113018219Y-115631932D02*
X113018219Y-114965266D01*
X113018219Y-114965266D02*
X114018219Y-115393837D01*
X109267666Y-104839419D02*
X109267666Y-105553704D01*
X109267666Y-105553704D02*
X109220047Y-105696561D01*
X109220047Y-105696561D02*
X109124809Y-105791800D01*
X109124809Y-105791800D02*
X108981952Y-105839419D01*
X108981952Y-105839419D02*
X108886714Y-105839419D01*
X110267666Y-105839419D02*
X109696238Y-105839419D01*
X109981952Y-105839419D02*
X109981952Y-104839419D01*
X109981952Y-104839419D02*
X109886714Y-104982276D01*
X109886714Y-104982276D02*
X109791476Y-105077514D01*
X109791476Y-105077514D02*
X109696238Y-105125133D01*
X153209666Y-109817819D02*
X153209666Y-110532104D01*
X153209666Y-110532104D02*
X153162047Y-110674961D01*
X153162047Y-110674961D02*
X153066809Y-110770200D01*
X153066809Y-110770200D02*
X152923952Y-110817819D01*
X152923952Y-110817819D02*
X152828714Y-110817819D01*
X154114428Y-109817819D02*
X153923952Y-109817819D01*
X153923952Y-109817819D02*
X153828714Y-109865438D01*
X153828714Y-109865438D02*
X153781095Y-109913057D01*
X153781095Y-109913057D02*
X153685857Y-110055914D01*
X153685857Y-110055914D02*
X153638238Y-110246390D01*
X153638238Y-110246390D02*
X153638238Y-110627342D01*
X153638238Y-110627342D02*
X153685857Y-110722580D01*
X153685857Y-110722580D02*
X153733476Y-110770200D01*
X153733476Y-110770200D02*
X153828714Y-110817819D01*
X153828714Y-110817819D02*
X154019190Y-110817819D01*
X154019190Y-110817819D02*
X154114428Y-110770200D01*
X154114428Y-110770200D02*
X154162047Y-110722580D01*
X154162047Y-110722580D02*
X154209666Y-110627342D01*
X154209666Y-110627342D02*
X154209666Y-110389247D01*
X154209666Y-110389247D02*
X154162047Y-110294009D01*
X154162047Y-110294009D02*
X154114428Y-110246390D01*
X154114428Y-110246390D02*
X154019190Y-110198771D01*
X154019190Y-110198771D02*
X153828714Y-110198771D01*
X153828714Y-110198771D02*
X153733476Y-110246390D01*
X153733476Y-110246390D02*
X153685857Y-110294009D01*
X153685857Y-110294009D02*
X153638238Y-110389247D01*
X118817666Y-78482819D02*
X118817666Y-79197104D01*
X118817666Y-79197104D02*
X118770047Y-79339961D01*
X118770047Y-79339961D02*
X118674809Y-79435200D01*
X118674809Y-79435200D02*
X118531952Y-79482819D01*
X118531952Y-79482819D02*
X118436714Y-79482819D01*
X119341476Y-79482819D02*
X119531952Y-79482819D01*
X119531952Y-79482819D02*
X119627190Y-79435200D01*
X119627190Y-79435200D02*
X119674809Y-79387580D01*
X119674809Y-79387580D02*
X119770047Y-79244723D01*
X119770047Y-79244723D02*
X119817666Y-79054247D01*
X119817666Y-79054247D02*
X119817666Y-78673295D01*
X119817666Y-78673295D02*
X119770047Y-78578057D01*
X119770047Y-78578057D02*
X119722428Y-78530438D01*
X119722428Y-78530438D02*
X119627190Y-78482819D01*
X119627190Y-78482819D02*
X119436714Y-78482819D01*
X119436714Y-78482819D02*
X119341476Y-78530438D01*
X119341476Y-78530438D02*
X119293857Y-78578057D01*
X119293857Y-78578057D02*
X119246238Y-78673295D01*
X119246238Y-78673295D02*
X119246238Y-78911390D01*
X119246238Y-78911390D02*
X119293857Y-79006628D01*
X119293857Y-79006628D02*
X119341476Y-79054247D01*
X119341476Y-79054247D02*
X119436714Y-79101866D01*
X119436714Y-79101866D02*
X119627190Y-79101866D01*
X119627190Y-79101866D02*
X119722428Y-79054247D01*
X119722428Y-79054247D02*
X119770047Y-79006628D01*
X119770047Y-79006628D02*
X119817666Y-78911390D01*
X120367466Y-93663419D02*
X120367466Y-94377704D01*
X120367466Y-94377704D02*
X120319847Y-94520561D01*
X120319847Y-94520561D02*
X120224609Y-94615800D01*
X120224609Y-94615800D02*
X120081752Y-94663419D01*
X120081752Y-94663419D02*
X119986514Y-94663419D01*
X121272228Y-93996752D02*
X121272228Y-94663419D01*
X121034133Y-93615800D02*
X120796038Y-94330085D01*
X120796038Y-94330085D02*
X121415085Y-94330085D01*
X126655533Y-98981419D02*
X126322200Y-98505228D01*
X126084105Y-98981419D02*
X126084105Y-97981419D01*
X126084105Y-97981419D02*
X126465057Y-97981419D01*
X126465057Y-97981419D02*
X126560295Y-98029038D01*
X126560295Y-98029038D02*
X126607914Y-98076657D01*
X126607914Y-98076657D02*
X126655533Y-98171895D01*
X126655533Y-98171895D02*
X126655533Y-98314752D01*
X126655533Y-98314752D02*
X126607914Y-98409990D01*
X126607914Y-98409990D02*
X126560295Y-98457609D01*
X126560295Y-98457609D02*
X126465057Y-98505228D01*
X126465057Y-98505228D02*
X126084105Y-98505228D01*
X127512676Y-98314752D02*
X127512676Y-98981419D01*
X127274581Y-97933800D02*
X127036486Y-98648085D01*
X127036486Y-98648085D02*
X127655533Y-98648085D01*
X130966380Y-133484857D02*
X131014000Y-133532476D01*
X131014000Y-133532476D02*
X131061619Y-133675333D01*
X131061619Y-133675333D02*
X131061619Y-133770571D01*
X131061619Y-133770571D02*
X131014000Y-133913428D01*
X131014000Y-133913428D02*
X130918761Y-134008666D01*
X130918761Y-134008666D02*
X130823523Y-134056285D01*
X130823523Y-134056285D02*
X130633047Y-134103904D01*
X130633047Y-134103904D02*
X130490190Y-134103904D01*
X130490190Y-134103904D02*
X130299714Y-134056285D01*
X130299714Y-134056285D02*
X130204476Y-134008666D01*
X130204476Y-134008666D02*
X130109238Y-133913428D01*
X130109238Y-133913428D02*
X130061619Y-133770571D01*
X130061619Y-133770571D02*
X130061619Y-133675333D01*
X130061619Y-133675333D02*
X130109238Y-133532476D01*
X130109238Y-133532476D02*
X130156857Y-133484857D01*
X131061619Y-132532476D02*
X131061619Y-133103904D01*
X131061619Y-132818190D02*
X130061619Y-132818190D01*
X130061619Y-132818190D02*
X130204476Y-132913428D01*
X130204476Y-132913428D02*
X130299714Y-133008666D01*
X130299714Y-133008666D02*
X130347333Y-133103904D01*
X131061619Y-131580095D02*
X131061619Y-132151523D01*
X131061619Y-131865809D02*
X130061619Y-131865809D01*
X130061619Y-131865809D02*
X130204476Y-131961047D01*
X130204476Y-131961047D02*
X130299714Y-132056285D01*
X130299714Y-132056285D02*
X130347333Y-132151523D01*
X113897580Y-108370666D02*
X113945200Y-108418285D01*
X113945200Y-108418285D02*
X113992819Y-108561142D01*
X113992819Y-108561142D02*
X113992819Y-108656380D01*
X113992819Y-108656380D02*
X113945200Y-108799237D01*
X113945200Y-108799237D02*
X113849961Y-108894475D01*
X113849961Y-108894475D02*
X113754723Y-108942094D01*
X113754723Y-108942094D02*
X113564247Y-108989713D01*
X113564247Y-108989713D02*
X113421390Y-108989713D01*
X113421390Y-108989713D02*
X113230914Y-108942094D01*
X113230914Y-108942094D02*
X113135676Y-108894475D01*
X113135676Y-108894475D02*
X113040438Y-108799237D01*
X113040438Y-108799237D02*
X112992819Y-108656380D01*
X112992819Y-108656380D02*
X112992819Y-108561142D01*
X112992819Y-108561142D02*
X113040438Y-108418285D01*
X113040438Y-108418285D02*
X113088057Y-108370666D01*
X112992819Y-107513523D02*
X112992819Y-107703999D01*
X112992819Y-107703999D02*
X113040438Y-107799237D01*
X113040438Y-107799237D02*
X113088057Y-107846856D01*
X113088057Y-107846856D02*
X113230914Y-107942094D01*
X113230914Y-107942094D02*
X113421390Y-107989713D01*
X113421390Y-107989713D02*
X113802342Y-107989713D01*
X113802342Y-107989713D02*
X113897580Y-107942094D01*
X113897580Y-107942094D02*
X113945200Y-107894475D01*
X113945200Y-107894475D02*
X113992819Y-107799237D01*
X113992819Y-107799237D02*
X113992819Y-107608761D01*
X113992819Y-107608761D02*
X113945200Y-107513523D01*
X113945200Y-107513523D02*
X113897580Y-107465904D01*
X113897580Y-107465904D02*
X113802342Y-107418285D01*
X113802342Y-107418285D02*
X113564247Y-107418285D01*
X113564247Y-107418285D02*
X113469009Y-107465904D01*
X113469009Y-107465904D02*
X113421390Y-107513523D01*
X113421390Y-107513523D02*
X113373771Y-107608761D01*
X113373771Y-107608761D02*
X113373771Y-107799237D01*
X113373771Y-107799237D02*
X113421390Y-107894475D01*
X113421390Y-107894475D02*
X113469009Y-107942094D01*
X113469009Y-107942094D02*
X113564247Y-107989713D01*
X126630133Y-84884419D02*
X126296800Y-84408228D01*
X126058705Y-84884419D02*
X126058705Y-83884419D01*
X126058705Y-83884419D02*
X126439657Y-83884419D01*
X126439657Y-83884419D02*
X126534895Y-83932038D01*
X126534895Y-83932038D02*
X126582514Y-83979657D01*
X126582514Y-83979657D02*
X126630133Y-84074895D01*
X126630133Y-84074895D02*
X126630133Y-84217752D01*
X126630133Y-84217752D02*
X126582514Y-84312990D01*
X126582514Y-84312990D02*
X126534895Y-84360609D01*
X126534895Y-84360609D02*
X126439657Y-84408228D01*
X126439657Y-84408228D02*
X126058705Y-84408228D01*
X127487276Y-83884419D02*
X127296800Y-83884419D01*
X127296800Y-83884419D02*
X127201562Y-83932038D01*
X127201562Y-83932038D02*
X127153943Y-83979657D01*
X127153943Y-83979657D02*
X127058705Y-84122514D01*
X127058705Y-84122514D02*
X127011086Y-84312990D01*
X127011086Y-84312990D02*
X127011086Y-84693942D01*
X127011086Y-84693942D02*
X127058705Y-84789180D01*
X127058705Y-84789180D02*
X127106324Y-84836800D01*
X127106324Y-84836800D02*
X127201562Y-84884419D01*
X127201562Y-84884419D02*
X127392038Y-84884419D01*
X127392038Y-84884419D02*
X127487276Y-84836800D01*
X127487276Y-84836800D02*
X127534895Y-84789180D01*
X127534895Y-84789180D02*
X127582514Y-84693942D01*
X127582514Y-84693942D02*
X127582514Y-84455847D01*
X127582514Y-84455847D02*
X127534895Y-84360609D01*
X127534895Y-84360609D02*
X127487276Y-84312990D01*
X127487276Y-84312990D02*
X127392038Y-84265371D01*
X127392038Y-84265371D02*
X127201562Y-84265371D01*
X127201562Y-84265371D02*
X127106324Y-84312990D01*
X127106324Y-84312990D02*
X127058705Y-84360609D01*
X127058705Y-84360609D02*
X127011086Y-84455847D01*
%TO.C,TP5*%
X118618000Y-130683000D02*
X123698000Y-130683000D01*
X118618000Y-134493000D02*
X118618000Y-130683000D01*
X123698000Y-130683000D02*
X123698000Y-134493000D01*
X123698000Y-134493000D02*
X118618000Y-134493000D01*
D14*
%TO.C,C10*%
X116445420Y-111504000D02*
X116726580Y-111504000D01*
X116445420Y-112524000D02*
X116726580Y-112524000D01*
D13*
%TO.C,TP3*%
X112014000Y-130683000D02*
X117094000Y-130683000D01*
X112014000Y-134493000D02*
X112014000Y-130683000D01*
X117094000Y-130683000D02*
X117094000Y-134493000D01*
X117094000Y-134493000D02*
X112014000Y-134493000D01*
%TO.C,TP4*%
X154178000Y-80391000D02*
X159258000Y-80391000D01*
X154178000Y-84201000D02*
X154178000Y-80391000D01*
X159258000Y-80391000D02*
X159258000Y-84201000D01*
X159258000Y-84201000D02*
X154178000Y-84201000D01*
D14*
%TO.C,J3*%
X102068500Y-120554000D02*
X102068500Y-121144000D01*
X102068500Y-123204000D02*
X102068500Y-123684000D01*
X102068500Y-125744000D02*
X102068500Y-126334000D01*
X102688500Y-120554000D02*
X102688500Y-121144000D01*
X102688500Y-123204000D02*
X102688500Y-123684000D01*
X102688500Y-125744000D02*
X102688500Y-126334000D01*
X107988500Y-120554000D02*
X107988500Y-126334000D01*
X108508500Y-120554000D02*
X102068500Y-120554000D01*
X108508500Y-120554000D02*
X108508500Y-126334000D01*
X108508500Y-126334000D02*
X102068500Y-126334000D01*
X102068500Y-122174000D02*
X101458500Y-122614000D01*
X101458500Y-121734000D01*
X102068500Y-122174000D01*
G36*
X102068500Y-122174000D02*
G01*
X101458500Y-122614000D01*
X101458500Y-121734000D01*
X102068500Y-122174000D01*
G37*
%TO.C,J7*%
X133011000Y-127565000D02*
X144271000Y-127565000D01*
X133011000Y-128725000D02*
X133011000Y-127565000D01*
X133011000Y-131975000D02*
X133011000Y-137575000D01*
X145771000Y-127565000D02*
X145881000Y-127565000D01*
X145881000Y-127565000D02*
X145881000Y-129375000D01*
X145881000Y-131275000D02*
X145881000Y-137575000D01*
%TO.C,U5*%
X118110000Y-121090000D02*
X116160000Y-121090000D01*
X118110000Y-121090000D02*
X120060000Y-121090000D01*
X118110000Y-126210000D02*
X116160000Y-126210000D01*
X118110000Y-126210000D02*
X120060000Y-126210000D01*
X115410000Y-121185000D02*
X115170000Y-120855000D01*
X115650000Y-120855000D01*
X115410000Y-121185000D01*
G36*
X115410000Y-121185000D02*
G01*
X115170000Y-120855000D01*
X115650000Y-120855000D01*
X115410000Y-121185000D01*
G37*
%TO.C,J2*%
X102068500Y-112934000D02*
X102068500Y-113524000D01*
X102068500Y-115584000D02*
X102068500Y-116064000D01*
X102068500Y-118124000D02*
X102068500Y-118714000D01*
X102688500Y-112934000D02*
X102688500Y-113524000D01*
X102688500Y-115584000D02*
X102688500Y-116064000D01*
X102688500Y-118124000D02*
X102688500Y-118714000D01*
X107988500Y-112934000D02*
X107988500Y-118714000D01*
X108508500Y-112934000D02*
X102068500Y-112934000D01*
X108508500Y-112934000D02*
X108508500Y-118714000D01*
X108508500Y-118714000D02*
X102068500Y-118714000D01*
X102068500Y-114554000D02*
X101458500Y-114994000D01*
X101458500Y-114114000D01*
X102068500Y-114554000D01*
G36*
X102068500Y-114554000D02*
G01*
X101458500Y-114994000D01*
X101458500Y-114114000D01*
X102068500Y-114554000D01*
G37*
D13*
%TO.C,TP2*%
X154178000Y-95123000D02*
X159258000Y-95123000D01*
X154178000Y-98933000D02*
X154178000Y-95123000D01*
X159258000Y-95123000D02*
X159258000Y-98933000D01*
X159258000Y-98933000D02*
X154178000Y-98933000D01*
D14*
%TO.C,C8*%
X116445420Y-119124000D02*
X116726580Y-119124000D01*
X116445420Y-120144000D02*
X116726580Y-120144000D01*
%TO.C,R3*%
X124460724Y-95489500D02*
X123951276Y-95489500D01*
X124460724Y-96534500D02*
X123951276Y-96534500D01*
%TO.C,R5*%
X114553276Y-83835500D02*
X115062724Y-83835500D01*
X114553276Y-84880500D02*
X115062724Y-84880500D01*
D13*
%TO.C,TP1*%
X154178000Y-87757000D02*
X159258000Y-87757000D01*
X154178000Y-91567000D02*
X154178000Y-87757000D01*
X159258000Y-87757000D02*
X159258000Y-91567000D01*
X159258000Y-91567000D02*
X154178000Y-91567000D01*
D14*
%TO.C,A1*%
X128953000Y-75675000D02*
X128473000Y-75675000D01*
X128953000Y-75675000D02*
X128953000Y-76095000D01*
X128953000Y-78215000D02*
X128953000Y-78635000D01*
X128953000Y-80755000D02*
X128953000Y-81175000D01*
X128953000Y-83295000D02*
X128953000Y-83715000D01*
X128953000Y-85835000D02*
X128953000Y-86255000D01*
X128953000Y-88375000D02*
X128953000Y-88795000D01*
X128953000Y-90915000D02*
X128953000Y-91335000D01*
X128953000Y-93455000D02*
X128953000Y-93875000D01*
X128953000Y-95995000D02*
X128953000Y-96415000D01*
X128953000Y-98535000D02*
X128953000Y-98955000D01*
X128953000Y-101075000D02*
X128953000Y-101495000D01*
X128953000Y-103615000D02*
X128953000Y-104035000D01*
X128953000Y-106155000D02*
X128953000Y-106575000D01*
X128953000Y-108695000D02*
X128953000Y-109115000D01*
X128953000Y-111235000D02*
X128953000Y-111655000D01*
X128953000Y-113775000D02*
X128953000Y-114195000D01*
X128953000Y-116315000D02*
X128953000Y-116735000D01*
X128953000Y-118855000D02*
X128953000Y-119275000D01*
X128953000Y-121395000D02*
X128953000Y-121815000D01*
X128983324Y-73555000D02*
X128473000Y-73555000D01*
X129293000Y-73555063D02*
X129293000Y-73198000D01*
X129293000Y-75675000D02*
X129293000Y-76095000D01*
X129293000Y-78215000D02*
X129293000Y-78635000D01*
X129293000Y-80755000D02*
X129293000Y-81175000D01*
X129293000Y-83295000D02*
X129293000Y-83715000D01*
X129293000Y-85835000D02*
X129293000Y-86255000D01*
X129293000Y-88375000D02*
X129293000Y-88795000D01*
X129293000Y-90915000D02*
X129293000Y-91335000D01*
X129293000Y-93455000D02*
X129293000Y-93875000D01*
X129293000Y-95995000D02*
X129293000Y-96415000D01*
X129293000Y-98535000D02*
X129293000Y-98955000D01*
X129293000Y-101075000D02*
X129293000Y-101495000D01*
X129293000Y-103615000D02*
X129293000Y-104035000D01*
X129293000Y-106155000D02*
X129293000Y-106575000D01*
X129293000Y-108695000D02*
X129293000Y-109115000D01*
X129293000Y-111235000D02*
X129293000Y-111655000D01*
X129293000Y-113775000D02*
X129293000Y-114195000D01*
X129293000Y-116315000D02*
X129293000Y-116735000D01*
X129293000Y-118855000D02*
X129293000Y-119275000D01*
X129293000Y-121395000D02*
X129293000Y-121815000D01*
X129293000Y-123934937D02*
X129293000Y-124292000D01*
X129563000Y-73135000D02*
X132053000Y-73135000D01*
X129563000Y-124355000D02*
X133400939Y-124355000D01*
X132053000Y-73135000D02*
X132053000Y-74048520D01*
X132053000Y-73135000D02*
X133400940Y-73135000D01*
X132053000Y-76441480D02*
X132053000Y-121048520D01*
X132053000Y-123441480D02*
X132053000Y-124355000D01*
X134325061Y-73135000D02*
X135328000Y-73135000D01*
X135328000Y-73135000D02*
X143798000Y-73135000D01*
X135663000Y-73135000D02*
X135663000Y-74051000D01*
X135663000Y-76439000D02*
X135663000Y-77655000D01*
X135663000Y-77655000D02*
X135959090Y-77655000D01*
X135963000Y-124355000D02*
X134325061Y-124355000D01*
X138316910Y-77655000D02*
X140809090Y-77655000D01*
X143163000Y-124355000D02*
X135963000Y-124355000D01*
X143166910Y-77655000D02*
X143463000Y-77655000D01*
X143463000Y-73135000D02*
X143463000Y-74051000D01*
X143463000Y-76439000D02*
X143463000Y-77655000D01*
X143798000Y-73135000D02*
X144800939Y-73135000D01*
X144800939Y-124355000D02*
X143163000Y-124355000D01*
X145725061Y-73135000D02*
X147073000Y-73135000D01*
X145725061Y-124355000D02*
X149563000Y-124355000D01*
X147073000Y-73135000D02*
X147073000Y-74048520D01*
X147073000Y-76441480D02*
X147073000Y-121048520D01*
X147073000Y-123441480D02*
X147073000Y-124355000D01*
X149563000Y-73135000D02*
X147073000Y-73135000D01*
X149833000Y-73555063D02*
X149833000Y-73198000D01*
X149833000Y-75675000D02*
X149833000Y-76095000D01*
X149833000Y-78215000D02*
X149833000Y-78635000D01*
X149833000Y-80755000D02*
X149833000Y-81175000D01*
X149833000Y-83295000D02*
X149833000Y-83715000D01*
X149833000Y-85835000D02*
X149833000Y-86255000D01*
X149833000Y-88375000D02*
X149833000Y-88795000D01*
X149833000Y-90915000D02*
X149833000Y-91335000D01*
X149833000Y-93455000D02*
X149833000Y-93875000D01*
X149833000Y-95995000D02*
X149833000Y-96415000D01*
X149833000Y-98535000D02*
X149833000Y-98955000D01*
X149833000Y-101075000D02*
X149833000Y-101495000D01*
X149833000Y-103615000D02*
X149833000Y-104035000D01*
X149833000Y-106155000D02*
X149833000Y-106575000D01*
X149833000Y-108695000D02*
X149833000Y-109115000D01*
X149833000Y-111235000D02*
X149833000Y-111655000D01*
X149833000Y-113775000D02*
X149833000Y-114195000D01*
X149833000Y-116315000D02*
X149833000Y-116735000D01*
X149833000Y-118855000D02*
X149833000Y-119275000D01*
X149833000Y-121395000D02*
X149833000Y-121815000D01*
X149833000Y-123934937D02*
X149833000Y-124292000D01*
X150173000Y-75675000D02*
X150173000Y-76095000D01*
X150173000Y-78215000D02*
X150173000Y-78635000D01*
X150173000Y-80755000D02*
X150173000Y-81175000D01*
X150173000Y-83295000D02*
X150173000Y-83715000D01*
X150173000Y-85835000D02*
X150173000Y-86255000D01*
X150173000Y-88375000D02*
X150173000Y-88795000D01*
X150173000Y-90915000D02*
X150173000Y-91335000D01*
X150173000Y-93455000D02*
X150173000Y-93875000D01*
X150173000Y-95995000D02*
X150173000Y-96415000D01*
X150173000Y-98535000D02*
X150173000Y-98955000D01*
X150173000Y-101075000D02*
X150173000Y-101495000D01*
X150173000Y-103615000D02*
X150173000Y-104035000D01*
X150173000Y-106155000D02*
X150173000Y-106575000D01*
X150173000Y-108695000D02*
X150173000Y-109115000D01*
X150173000Y-111235000D02*
X150173000Y-111655000D01*
X150173000Y-113775000D02*
X150173000Y-114195000D01*
X150173000Y-116315000D02*
X150173000Y-116735000D01*
X150173000Y-118855000D02*
X150173000Y-119275000D01*
X150173000Y-121395000D02*
X150173000Y-121815000D01*
X128983324Y-73555000D02*
G75*
G02*
X129563000Y-73135000I579692J-190051D01*
G01*
X129563000Y-124355000D02*
G75*
G02*
X128983324Y-123934937I1J610002D01*
G01*
X149563000Y-73135000D02*
G75*
G02*
X150142676Y-73555063I0J-610000D01*
G01*
X150142676Y-123934937D02*
G75*
G02*
X149563000Y-124355069I-579676J189837D01*
G01*
%TO.C,R2*%
X124460724Y-88885500D02*
X123951276Y-88885500D01*
X124460724Y-89930500D02*
X123951276Y-89930500D01*
%TO.C,C5*%
X116445420Y-126744000D02*
X116726580Y-126744000D01*
X116445420Y-127764000D02*
X116726580Y-127764000D01*
%TO.C,R1*%
X124460724Y-86345500D02*
X123951276Y-86345500D01*
X124460724Y-87390500D02*
X123951276Y-87390500D01*
%TO.C,J8*%
X102342000Y-94571000D02*
X102342000Y-100501000D01*
X105162000Y-93301000D02*
X106612000Y-93301000D01*
X105162000Y-101771000D02*
X106612000Y-101771000D01*
X106612000Y-93301000D02*
X106612000Y-95101000D01*
X106612000Y-95101000D02*
X107602000Y-95101000D01*
X106612000Y-101771000D02*
X106612000Y-99971000D01*
%TO.C,U4*%
X118110000Y-113494000D02*
X116160000Y-113494000D01*
X118110000Y-113494000D02*
X120060000Y-113494000D01*
X118110000Y-118614000D02*
X116160000Y-118614000D01*
X118110000Y-118614000D02*
X120060000Y-118614000D01*
X115410000Y-113589000D02*
X115170000Y-113259000D01*
X115650000Y-113259000D01*
X115410000Y-113589000D01*
G36*
X115410000Y-113589000D02*
G01*
X115170000Y-113259000D01*
X115650000Y-113259000D01*
X115410000Y-113589000D01*
G37*
%TO.C,J5*%
X102342000Y-82633000D02*
X102342000Y-88563000D01*
X105162000Y-81363000D02*
X106612000Y-81363000D01*
X105162000Y-89833000D02*
X106612000Y-89833000D01*
X106612000Y-81363000D02*
X106612000Y-83163000D01*
X106612000Y-83163000D02*
X107602000Y-83163000D01*
X106612000Y-89833000D02*
X106612000Y-88033000D01*
%TO.C,C12*%
X127252000Y-135749420D02*
X127252000Y-136030580D01*
X128272000Y-135749420D02*
X128272000Y-136030580D01*
%TO.C,C9*%
X111758000Y-123584580D02*
X111758000Y-123303420D01*
X112778000Y-123584580D02*
X112778000Y-123303420D01*
%TO.C,U3*%
X118110000Y-105898000D02*
X116160000Y-105898000D01*
X118110000Y-105898000D02*
X120060000Y-105898000D01*
X118110000Y-111018000D02*
X116160000Y-111018000D01*
X118110000Y-111018000D02*
X120060000Y-111018000D01*
X115410000Y-105993000D02*
X115170000Y-105663000D01*
X115650000Y-105663000D01*
X115410000Y-105993000D01*
G36*
X115410000Y-105993000D02*
G01*
X115170000Y-105663000D01*
X115650000Y-105663000D01*
X115410000Y-105993000D01*
G37*
%TO.C,C7*%
X111758000Y-115964580D02*
X111758000Y-115683420D01*
X112778000Y-115964580D02*
X112778000Y-115683420D01*
%TO.C,J1*%
X102068500Y-105314000D02*
X102068500Y-105904000D01*
X102068500Y-107964000D02*
X102068500Y-108444000D01*
X102068500Y-110504000D02*
X102068500Y-111094000D01*
X102688500Y-105314000D02*
X102688500Y-105904000D01*
X102688500Y-107964000D02*
X102688500Y-108444000D01*
X102688500Y-110504000D02*
X102688500Y-111094000D01*
X107988500Y-105314000D02*
X107988500Y-111094000D01*
X108508500Y-105314000D02*
X102068500Y-105314000D01*
X108508500Y-105314000D02*
X108508500Y-111094000D01*
X108508500Y-111094000D02*
X102068500Y-111094000D01*
X102068500Y-106934000D02*
X101458500Y-107374000D01*
X101458500Y-106494000D01*
X102068500Y-106934000D01*
G36*
X102068500Y-106934000D02*
G01*
X101458500Y-107374000D01*
X101458500Y-106494000D01*
X102068500Y-106934000D01*
G37*
%TO.C,J6*%
X155008000Y-102445000D02*
X155008000Y-104245000D01*
X155008000Y-109115000D02*
X154018000Y-109115000D01*
X155008000Y-110915000D02*
X155008000Y-109115000D01*
X156458000Y-102445000D02*
X155008000Y-102445000D01*
X156458000Y-110915000D02*
X155008000Y-110915000D01*
X159278000Y-109645000D02*
X159278000Y-103715000D01*
%TO.C,J9*%
X117821000Y-83068000D02*
X117821000Y-90748000D01*
X117821000Y-83068000D02*
X120481000Y-83068000D01*
X117821000Y-90748000D02*
X120481000Y-90748000D01*
X119151000Y-80468000D02*
X120481000Y-80468000D01*
X120481000Y-80468000D02*
X120481000Y-81798000D01*
X120481000Y-83068000D02*
X120481000Y-90748000D01*
%TO.C,J4*%
X115042000Y-94571000D02*
X115042000Y-100501000D01*
X117862000Y-93301000D02*
X119312000Y-93301000D01*
X117862000Y-101771000D02*
X119312000Y-101771000D01*
X119312000Y-93301000D02*
X119312000Y-95101000D01*
X119312000Y-95101000D02*
X120302000Y-95101000D01*
X119312000Y-101771000D02*
X119312000Y-99971000D01*
%TO.C,R4*%
X124460724Y-97999500D02*
X123951276Y-97999500D01*
X124460724Y-99044500D02*
X123951276Y-99044500D01*
%TO.C,C11*%
X130046000Y-135749420D02*
X130046000Y-136030580D01*
X131066000Y-135749420D02*
X131066000Y-136030580D01*
%TO.C,C6*%
X111758000Y-108344580D02*
X111758000Y-108063420D01*
X112778000Y-108344580D02*
X112778000Y-108063420D01*
%TO.C,R6*%
X124460724Y-83805500D02*
X123951276Y-83805500D01*
X124460724Y-84850500D02*
X123951276Y-84850500D01*
%TD*%
M02*
