%TF.GenerationSoftware,KiCad,Pcbnew,9.0.0*%
%TF.CreationDate,2025-06-15T18:58:11-04:00*%
%TF.ProjectId,data-logger,64617461-2d6c-46f6-9767-65722e6b6963,rev?*%
%TF.SameCoordinates,Original*%
%TF.FileFunction,Copper,L2,Bot*%
%TF.FilePolarity,Positive*%
%FSLAX46Y46*%
G04 Gerber Fmt 4.6, Leading zero omitted, Abs format (unit mm)*
G04 Created by KiCad (PCBNEW 9.0.0) date 2025-06-15 18:58:11*
%MOMM*%
%LPD*%
G01*
G04 APERTURE LIST*
G04 Aperture macros list*
%AMRoundRect*
0 Rectangle with rounded corners*
0 $1 Rounding radius*
0 $2 $3 $4 $5 $6 $7 $8 $9 X,Y pos of 4 corners*
0 Add a 4 corners polygon primitive as box body*
4,1,4,$2,$3,$4,$5,$6,$7,$8,$9,$2,$3,0*
0 Add four circle primitives for the rounded corners*
1,1,$1+$1,$2,$3*
1,1,$1+$1,$4,$5*
1,1,$1+$1,$6,$7*
1,1,$1+$1,$8,$9*
0 Add four rect primitives between the rounded corners*
20,1,$1+$1,$2,$3,$4,$5,0*
20,1,$1+$1,$4,$5,$6,$7,0*
20,1,$1+$1,$6,$7,$8,$9,0*
20,1,$1+$1,$8,$9,$2,$3,0*%
%AMFreePoly0*
4,1,37,0.603843,0.796157,0.639018,0.796157,0.711114,0.766294,0.766294,0.711114,0.796157,0.639018,0.796157,0.603843,0.800000,0.600000,0.800000,-0.600000,0.796157,-0.603843,0.796157,-0.639018,0.766294,-0.711114,0.711114,-0.766294,0.639018,-0.796157,0.603843,-0.796157,0.600000,-0.800000,0.000000,-0.800000,0.000000,-0.796148,-0.078414,-0.796148,-0.232228,-0.765552,-0.377117,-0.705537,
-0.507515,-0.618408,-0.618408,-0.507515,-0.705537,-0.377117,-0.765552,-0.232228,-0.796148,-0.078414,-0.796148,0.078414,-0.765552,0.232228,-0.705537,0.377117,-0.618408,0.507515,-0.507515,0.618408,-0.377117,0.705537,-0.232228,0.765552,-0.078414,0.796148,0.000000,0.796148,0.000000,0.800000,0.600000,0.800000,0.603843,0.796157,0.603843,0.796157,$1*%
%AMFreePoly1*
4,1,37,0.000000,0.796148,0.078414,0.796148,0.232228,0.765552,0.377117,0.705537,0.507515,0.618408,0.618408,0.507515,0.705537,0.377117,0.765552,0.232228,0.796148,0.078414,0.796148,-0.078414,0.765552,-0.232228,0.705537,-0.377117,0.618408,-0.507515,0.507515,-0.618408,0.377117,-0.705537,0.232228,-0.765552,0.078414,-0.796148,0.000000,-0.796148,0.000000,-0.800000,-0.600000,-0.800000,
-0.603843,-0.796157,-0.639018,-0.796157,-0.711114,-0.766294,-0.766294,-0.711114,-0.796157,-0.639018,-0.796157,-0.603843,-0.800000,-0.600000,-0.800000,0.600000,-0.796157,0.603843,-0.796157,0.639018,-0.766294,0.711114,-0.711114,0.766294,-0.639018,0.796157,-0.603843,0.796157,-0.600000,0.800000,0.000000,0.800000,0.000000,0.796148,0.000000,0.796148,$1*%
G04 Aperture macros list end*
%TA.AperFunction,ComponentPad*%
%ADD10C,0.600000*%
%TD*%
%TA.AperFunction,ComponentPad*%
%ADD11RoundRect,0.249999X-0.850001X0.850001X-0.850001X-0.850001X0.850001X-0.850001X0.850001X0.850001X0*%
%TD*%
%TA.AperFunction,ComponentPad*%
%ADD12C,2.200000*%
%TD*%
%TA.AperFunction,ComponentPad*%
%ADD13RoundRect,0.200000X-0.600000X-0.600000X0.600000X-0.600000X0.600000X0.600000X-0.600000X0.600000X0*%
%TD*%
%TA.AperFunction,ComponentPad*%
%ADD14C,1.600000*%
%TD*%
%TA.AperFunction,ComponentPad*%
%ADD15FreePoly0,0.000000*%
%TD*%
%TA.AperFunction,ComponentPad*%
%ADD16FreePoly1,0.000000*%
%TD*%
%TA.AperFunction,ComponentPad*%
%ADD17R,1.700000X1.700000*%
%TD*%
%TA.AperFunction,ComponentPad*%
%ADD18O,1.700000X1.700000*%
%TD*%
%TA.AperFunction,ViaPad*%
%ADD19C,0.600000*%
%TD*%
%TA.AperFunction,Conductor*%
%ADD20C,0.200000*%
%TD*%
G04 APERTURE END LIST*
D10*
%TO.P,TP5,1,1*%
%TO.N,+3.3V*%
X119158000Y-131588000D03*
X119158000Y-132588000D03*
X119158000Y-133588000D03*
X119658000Y-132088000D03*
X119658000Y-133088000D03*
X120158000Y-131588000D03*
X120158000Y-132588000D03*
X120158000Y-133588000D03*
X120643900Y-133086281D03*
X120658000Y-132088000D03*
X121158000Y-131588000D03*
X121158000Y-132588000D03*
X121158000Y-133588000D03*
X121658000Y-132088000D03*
X121658000Y-133088000D03*
X122158000Y-131588000D03*
X122158000Y-132588000D03*
X122158000Y-133588000D03*
X122658000Y-132088000D03*
X122658000Y-133088000D03*
X123158000Y-131588000D03*
X123158000Y-132588000D03*
X123158000Y-133588000D03*
%TD*%
%TO.P,TP3,1,1*%
%TO.N,GND*%
X112554000Y-131588000D03*
X112554000Y-132588000D03*
X112554000Y-133588000D03*
X113054000Y-132088000D03*
X113054000Y-133088000D03*
X113554000Y-131588000D03*
X113554000Y-132588000D03*
X113554000Y-133588000D03*
X114039900Y-133086281D03*
X114054000Y-132088000D03*
X114554000Y-131588000D03*
X114554000Y-132588000D03*
X114554000Y-133588000D03*
X115054000Y-132088000D03*
X115054000Y-133088000D03*
X115554000Y-131588000D03*
X115554000Y-132588000D03*
X115554000Y-133588000D03*
X116054000Y-132088000D03*
X116054000Y-133088000D03*
X116554000Y-131588000D03*
X116554000Y-132588000D03*
X116554000Y-133588000D03*
%TD*%
%TO.P,TP4,1,1*%
%TO.N,+5V*%
X154718000Y-81296000D03*
X154718000Y-82296000D03*
X154718000Y-83296000D03*
X155218000Y-81796000D03*
X155218000Y-82796000D03*
X155718000Y-81296000D03*
X155718000Y-82296000D03*
X155718000Y-83296000D03*
X156203900Y-82794281D03*
X156218000Y-81796000D03*
X156718000Y-81296000D03*
X156718000Y-82296000D03*
X156718000Y-83296000D03*
X157218000Y-81796000D03*
X157218000Y-82796000D03*
X157718000Y-81296000D03*
X157718000Y-82296000D03*
X157718000Y-83296000D03*
X158218000Y-81796000D03*
X158218000Y-82796000D03*
X158718000Y-81296000D03*
X158718000Y-82296000D03*
X158718000Y-83296000D03*
%TD*%
D11*
%TO.P,J3,1,Pin_1*%
%TO.N,Net-(J3-Pin_1)*%
X105288500Y-122174000D03*
D12*
%TO.P,J3,2,Pin_2*%
%TO.N,Net-(J3-Pin_2)*%
X105288500Y-124714000D03*
%TD*%
D11*
%TO.P,J2,1,Pin_1*%
%TO.N,Net-(J2-Pin_1)*%
X105288500Y-114554000D03*
D12*
%TO.P,J2,2,Pin_2*%
%TO.N,Net-(J2-Pin_2)*%
X105288500Y-117094000D03*
%TD*%
D10*
%TO.P,TP2,1,1*%
%TO.N,GND*%
X154718000Y-96028000D03*
X154718000Y-97028000D03*
X154718000Y-98028000D03*
X155218000Y-96528000D03*
X155218000Y-97528000D03*
X155718000Y-96028000D03*
X155718000Y-97028000D03*
X155718000Y-98028000D03*
X156203900Y-97526281D03*
X156218000Y-96528000D03*
X156718000Y-96028000D03*
X156718000Y-97028000D03*
X156718000Y-98028000D03*
X157218000Y-96528000D03*
X157218000Y-97528000D03*
X157718000Y-96028000D03*
X157718000Y-97028000D03*
X157718000Y-98028000D03*
X158218000Y-96528000D03*
X158218000Y-97528000D03*
X158718000Y-96028000D03*
X158718000Y-97028000D03*
X158718000Y-98028000D03*
%TD*%
%TO.P,TP1,1,1*%
%TO.N,Net-(A1-VSYS)*%
X154718000Y-88662000D03*
X154718000Y-89662000D03*
X154718000Y-90662000D03*
X155218000Y-89162000D03*
X155218000Y-90162000D03*
X155718000Y-88662000D03*
X155718000Y-89662000D03*
X155718000Y-90662000D03*
X156203900Y-90160281D03*
X156218000Y-89162000D03*
X156718000Y-88662000D03*
X156718000Y-89662000D03*
X156718000Y-90662000D03*
X157218000Y-89162000D03*
X157218000Y-90162000D03*
X157718000Y-88662000D03*
X157718000Y-89662000D03*
X157718000Y-90662000D03*
X158218000Y-89162000D03*
X158218000Y-90162000D03*
X158718000Y-88662000D03*
X158718000Y-89662000D03*
X158718000Y-90662000D03*
%TD*%
D13*
%TO.P,A1,1,GPIO0*%
%TO.N,TX*%
X130673000Y-74615000D03*
D14*
%TO.P,A1,2,GPIO1*%
%TO.N,RX*%
X130673000Y-77155000D03*
D15*
%TO.P,A1,3,GND*%
%TO.N,GND*%
X130673000Y-79695000D03*
D14*
%TO.P,A1,4,GPIO2*%
%TO.N,SDA1*%
X130673000Y-82235000D03*
%TO.P,A1,5,GPIO3*%
%TO.N,SCL1*%
X130673000Y-84775000D03*
%TO.P,A1,6,GPIO4*%
%TO.N,SDA0*%
X130673000Y-87315000D03*
%TO.P,A1,7,GPIO5*%
%TO.N,SCL0*%
X130673000Y-89855000D03*
D15*
%TO.P,A1,8,GND*%
%TO.N,GND*%
X130673000Y-92395000D03*
D14*
%TO.P,A1,9,GPIO6*%
%TO.N,unconnected-(A1-GPIO6-Pad9)*%
X130673000Y-94935000D03*
%TO.P,A1,10,GPIO7*%
%TO.N,unconnected-(A1-GPIO7-Pad10)*%
X130673000Y-97475000D03*
%TO.P,A1,11,GPIO8*%
%TO.N,CS3*%
X130673000Y-100015000D03*
%TO.P,A1,12,GPIO9*%
%TO.N,CS2*%
X130673000Y-102555000D03*
D15*
%TO.P,A1,13,GND*%
%TO.N,GND*%
X130673000Y-105095000D03*
D14*
%TO.P,A1,14,GPIO10*%
%TO.N,unconnected-(A1-GPIO10-Pad14)*%
X130673000Y-107635000D03*
%TO.P,A1,15,GPIO11*%
%TO.N,unconnected-(A1-GPIO11-Pad15)*%
X130673000Y-110175000D03*
%TO.P,A1,16,GPIO12*%
%TO.N,MISO1*%
X130673000Y-112715000D03*
%TO.P,A1,17,GPIO13*%
%TO.N,CS1*%
X130673000Y-115255000D03*
D15*
%TO.P,A1,18,GND*%
%TO.N,GND*%
X130673000Y-117795000D03*
D14*
%TO.P,A1,19,GPIO14*%
%TO.N,SCK1*%
X130673000Y-120335000D03*
%TO.P,A1,20,GPIO15*%
%TO.N,unconnected-(A1-GPIO15-Pad20)*%
X130673000Y-122875000D03*
%TO.P,A1,21,GPIO16*%
%TO.N,MISO0*%
X148453000Y-122875000D03*
%TO.P,A1,22,GPIO17*%
%TO.N,CS0*%
X148453000Y-120335000D03*
D16*
%TO.P,A1,23,GND*%
%TO.N,GND*%
X148453000Y-117795000D03*
D14*
%TO.P,A1,24,GPIO18*%
%TO.N,SCK0*%
X148453000Y-115255000D03*
%TO.P,A1,25,GPIO19*%
%TO.N,MOSI0*%
X148453000Y-112715000D03*
%TO.P,A1,26,GPIO20*%
%TO.N,unconnected-(A1-GPIO20-Pad26)*%
X148453000Y-110175000D03*
%TO.P,A1,27,GPIO21*%
%TO.N,unconnected-(A1-GPIO21-Pad27)*%
X148453000Y-107635000D03*
D16*
%TO.P,A1,28,GND*%
%TO.N,GND*%
X148453000Y-105095000D03*
D14*
%TO.P,A1,29,GPIO22*%
%TO.N,unconnected-(A1-GPIO22-Pad29)*%
X148453000Y-102555000D03*
%TO.P,A1,30,RUN*%
%TO.N,unconnected-(A1-RUN-Pad30)*%
X148453000Y-100015000D03*
%TO.P,A1,31,GPIO26_ADC0*%
%TO.N,ADC0*%
X148453000Y-97475000D03*
%TO.P,A1,32,GPIO27_ADC1*%
%TO.N,ADC1*%
X148453000Y-94935000D03*
D16*
%TO.P,A1,33,AGND*%
%TO.N,GND*%
X148453000Y-92395000D03*
D14*
%TO.P,A1,34,GPIO28_ADC2*%
%TO.N,unconnected-(A1-GPIO28_ADC2-Pad34)*%
X148453000Y-89855000D03*
%TO.P,A1,35,ADC_VREF*%
%TO.N,unconnected-(A1-ADC_VREF-Pad35)*%
X148453000Y-87315000D03*
%TO.P,A1,36,3V3*%
%TO.N,+3.3V*%
X148453000Y-84775000D03*
%TO.P,A1,37,3V3_EN*%
%TO.N,unconnected-(A1-3V3_EN-Pad37)*%
X148453000Y-82235000D03*
D16*
%TO.P,A1,38,GND*%
%TO.N,GND*%
X148453000Y-79695000D03*
D14*
%TO.P,A1,39,VSYS*%
%TO.N,Net-(A1-VSYS)*%
X148453000Y-77155000D03*
%TO.P,A1,40,VBUS*%
%TO.N,+5V*%
X148453000Y-74615000D03*
%TD*%
D11*
%TO.P,J1,1,Pin_1*%
%TO.N,Net-(J1-Pin_1)*%
X105288500Y-106934000D03*
D12*
%TO.P,J1,2,Pin_2*%
%TO.N,Net-(J1-Pin_2)*%
X105288500Y-109474000D03*
%TD*%
D17*
%TO.P,J9,1,Pin_1*%
%TO.N,GND*%
X119151000Y-81798000D03*
D18*
%TO.P,J9,2,Pin_2*%
%TO.N,Net-(J9-Pin_2)*%
X119151000Y-84338000D03*
%TO.P,J9,3,Pin_3*%
%TO.N,SCL1*%
X119151000Y-86878000D03*
%TO.P,J9,4,Pin_4*%
%TO.N,SDA1*%
X119151000Y-89418000D03*
%TD*%
D19*
%TO.N,CS3*%
X118770400Y-124206000D03*
%TO.N,CS2*%
X121462800Y-112141000D03*
%TO.N,SDA0*%
X121793000Y-98161000D03*
%TO.N,SCL0*%
X122394500Y-96911000D03*
%TO.N,GND*%
X113538000Y-113538000D03*
X118618000Y-112014000D03*
X113538000Y-105918000D03*
X113538000Y-121158000D03*
X118618000Y-119634000D03*
X118618000Y-127254000D03*
X129286000Y-136665000D03*
X121412000Y-99568000D03*
X108712000Y-99568000D03*
X108712000Y-87630000D03*
X154432000Y-103632000D03*
X132334000Y-129540000D03*
%TO.N,MISO0*%
X135890000Y-136906000D03*
%TO.N,SCK0*%
X138176000Y-136906000D03*
%TO.N,GND*%
X137160000Y-136906000D03*
%TD*%
D20*
%TO.N,CS3*%
X130673000Y-100898800D02*
X130673000Y-100015000D01*
X120675400Y-110896400D02*
X130673000Y-100898800D01*
X120675400Y-122301000D02*
X120675400Y-110896400D01*
X118770400Y-124206000D02*
X120675400Y-122301000D01*
%TO.N,CS2*%
X121462800Y-111765200D02*
X130673000Y-102555000D01*
X121462800Y-112141000D02*
X121462800Y-111765200D01*
%TO.N,SDA0*%
X121793000Y-96195000D02*
X121793000Y-98161000D01*
X130673000Y-87315000D02*
X121793000Y-96195000D01*
%TO.N,SCL0*%
X129450500Y-89855000D02*
X122394500Y-96911000D01*
X130673000Y-89855000D02*
X129450500Y-89855000D01*
%TO.N,SDA1*%
X131826000Y-85344000D02*
X131826000Y-83388000D01*
X131146475Y-86023525D02*
X131826000Y-85344000D01*
X119151000Y-89418000D02*
X122545475Y-86023525D01*
X122545475Y-86023525D02*
X131146475Y-86023525D01*
X131826000Y-83388000D02*
X130673000Y-82235000D01*
%TO.N,SCL1*%
X121254000Y-84775000D02*
X130673000Y-84775000D01*
X119151000Y-86878000D02*
X121254000Y-84775000D01*
%TO.N,MISO0*%
X148453000Y-127478943D02*
X148453000Y-122875000D01*
X136491000Y-137507000D02*
X138424943Y-137507000D01*
X138424943Y-137507000D02*
X148453000Y-127478943D01*
X135890000Y-136906000D02*
X136491000Y-137507000D01*
%TO.N,SCK0*%
X148143000Y-115255000D02*
X148453000Y-115255000D01*
X147066000Y-116332000D02*
X148143000Y-115255000D01*
X147066000Y-128016000D02*
X147066000Y-116332000D01*
X138176000Y-136906000D02*
X147066000Y-128016000D01*
%TD*%
%TA.AperFunction,Conductor*%
%TO.N,GND*%
G36*
X159455039Y-71647685D02*
G01*
X159500794Y-71700489D01*
X159512000Y-71752000D01*
X159512000Y-80658559D01*
X159492315Y-80725598D01*
X159439511Y-80771353D01*
X159370353Y-80781297D01*
X159306797Y-80752272D01*
X159300319Y-80746240D01*
X159228292Y-80674213D01*
X159228288Y-80674210D01*
X159097185Y-80586609D01*
X159097172Y-80586602D01*
X158951501Y-80526264D01*
X158951489Y-80526261D01*
X158796845Y-80495500D01*
X158796842Y-80495500D01*
X158639158Y-80495500D01*
X158639155Y-80495500D01*
X158484510Y-80526261D01*
X158484498Y-80526264D01*
X158338827Y-80586602D01*
X158338814Y-80586609D01*
X158286891Y-80621304D01*
X158220214Y-80642182D01*
X158152833Y-80623698D01*
X158149109Y-80621304D01*
X158097185Y-80586609D01*
X158097172Y-80586602D01*
X157951501Y-80526264D01*
X157951489Y-80526261D01*
X157796845Y-80495500D01*
X157796842Y-80495500D01*
X157639158Y-80495500D01*
X157639155Y-80495500D01*
X157484510Y-80526261D01*
X157484498Y-80526264D01*
X157338827Y-80586602D01*
X157338814Y-80586609D01*
X157286891Y-80621304D01*
X157220214Y-80642182D01*
X157152833Y-80623698D01*
X157149109Y-80621304D01*
X157097185Y-80586609D01*
X157097172Y-80586602D01*
X156951501Y-80526264D01*
X156951489Y-80526261D01*
X156796845Y-80495500D01*
X156796842Y-80495500D01*
X156639158Y-80495500D01*
X156639155Y-80495500D01*
X156484510Y-80526261D01*
X156484498Y-80526264D01*
X156338827Y-80586602D01*
X156338814Y-80586609D01*
X156286891Y-80621304D01*
X156220214Y-80642182D01*
X156152833Y-80623698D01*
X156149109Y-80621304D01*
X156097185Y-80586609D01*
X156097172Y-80586602D01*
X155951501Y-80526264D01*
X155951489Y-80526261D01*
X155796845Y-80495500D01*
X155796842Y-80495500D01*
X155639158Y-80495500D01*
X155639155Y-80495500D01*
X155484510Y-80526261D01*
X155484498Y-80526264D01*
X155338827Y-80586602D01*
X155338814Y-80586609D01*
X155286891Y-80621304D01*
X155220214Y-80642182D01*
X155152833Y-80623698D01*
X155149109Y-80621304D01*
X155097185Y-80586609D01*
X155097172Y-80586602D01*
X154951501Y-80526264D01*
X154951489Y-80526261D01*
X154796845Y-80495500D01*
X154796842Y-80495500D01*
X154639158Y-80495500D01*
X154639155Y-80495500D01*
X154484510Y-80526261D01*
X154484498Y-80526264D01*
X154338827Y-80586602D01*
X154338814Y-80586609D01*
X154207711Y-80674210D01*
X154207707Y-80674213D01*
X154096213Y-80785707D01*
X154096210Y-80785711D01*
X154008609Y-80916814D01*
X154008602Y-80916827D01*
X153948264Y-81062498D01*
X153948261Y-81062510D01*
X153917500Y-81217153D01*
X153917500Y-81374846D01*
X153948261Y-81529489D01*
X153948264Y-81529501D01*
X154008602Y-81675172D01*
X154008609Y-81675185D01*
X154043304Y-81727109D01*
X154064182Y-81793786D01*
X154045698Y-81861167D01*
X154043304Y-81864891D01*
X154008609Y-81916814D01*
X154008602Y-81916827D01*
X153948264Y-82062498D01*
X153948261Y-82062510D01*
X153917500Y-82217153D01*
X153917500Y-82374846D01*
X153948261Y-82529489D01*
X153948264Y-82529501D01*
X154008602Y-82675172D01*
X154008609Y-82675185D01*
X154043304Y-82727109D01*
X154064182Y-82793786D01*
X154045698Y-82861167D01*
X154043304Y-82864891D01*
X154008609Y-82916814D01*
X154008602Y-82916827D01*
X153948264Y-83062498D01*
X153948261Y-83062510D01*
X153917500Y-83217153D01*
X153917500Y-83374846D01*
X153948261Y-83529489D01*
X153948264Y-83529501D01*
X154008602Y-83675172D01*
X154008609Y-83675185D01*
X154096210Y-83806288D01*
X154096213Y-83806292D01*
X154207707Y-83917786D01*
X154207711Y-83917789D01*
X154338814Y-84005390D01*
X154338827Y-84005397D01*
X154484498Y-84065735D01*
X154484503Y-84065737D01*
X154623498Y-84093385D01*
X154639153Y-84096499D01*
X154639156Y-84096500D01*
X154639158Y-84096500D01*
X154796844Y-84096500D01*
X154796845Y-84096499D01*
X154951497Y-84065737D01*
X155097179Y-84005394D01*
X155149110Y-83970694D01*
X155215785Y-83949816D01*
X155283165Y-83968300D01*
X155286863Y-83970676D01*
X155338821Y-84005394D01*
X155338823Y-84005395D01*
X155338825Y-84005396D01*
X155378332Y-84021760D01*
X155484503Y-84065737D01*
X155623498Y-84093385D01*
X155639153Y-84096499D01*
X155639156Y-84096500D01*
X155639158Y-84096500D01*
X155796844Y-84096500D01*
X155796845Y-84096499D01*
X155951497Y-84065737D01*
X156097179Y-84005394D01*
X156149110Y-83970694D01*
X156215785Y-83949816D01*
X156283165Y-83968300D01*
X156286863Y-83970676D01*
X156338821Y-84005394D01*
X156338823Y-84005395D01*
X156338825Y-84005396D01*
X156378332Y-84021760D01*
X156484503Y-84065737D01*
X156623498Y-84093385D01*
X156639153Y-84096499D01*
X156639156Y-84096500D01*
X156639158Y-84096500D01*
X156796844Y-84096500D01*
X156796845Y-84096499D01*
X156951497Y-84065737D01*
X157097179Y-84005394D01*
X157149110Y-83970694D01*
X157215785Y-83949816D01*
X157283165Y-83968300D01*
X157286863Y-83970676D01*
X157338821Y-84005394D01*
X157338823Y-84005395D01*
X157338825Y-84005396D01*
X157378332Y-84021760D01*
X157484503Y-84065737D01*
X157623498Y-84093385D01*
X157639153Y-84096499D01*
X157639156Y-84096500D01*
X157639158Y-84096500D01*
X157796844Y-84096500D01*
X157796845Y-84096499D01*
X157951497Y-84065737D01*
X158097179Y-84005394D01*
X158149110Y-83970694D01*
X158215785Y-83949816D01*
X158283165Y-83968300D01*
X158286863Y-83970676D01*
X158338821Y-84005394D01*
X158338823Y-84005395D01*
X158338825Y-84005396D01*
X158378332Y-84021760D01*
X158484503Y-84065737D01*
X158623498Y-84093385D01*
X158639153Y-84096499D01*
X158639156Y-84096500D01*
X158639158Y-84096500D01*
X158796844Y-84096500D01*
X158796845Y-84096499D01*
X158951497Y-84065737D01*
X159097179Y-84005394D01*
X159228289Y-83917789D01*
X159228292Y-83917786D01*
X159300319Y-83845760D01*
X159361642Y-83812275D01*
X159431334Y-83817259D01*
X159487267Y-83859131D01*
X159511684Y-83924595D01*
X159512000Y-83933441D01*
X159512000Y-88024559D01*
X159492315Y-88091598D01*
X159439511Y-88137353D01*
X159370353Y-88147297D01*
X159306797Y-88118272D01*
X159300319Y-88112240D01*
X159228292Y-88040213D01*
X159228288Y-88040210D01*
X159097185Y-87952609D01*
X159097172Y-87952602D01*
X158951501Y-87892264D01*
X158951489Y-87892261D01*
X158796845Y-87861500D01*
X158796842Y-87861500D01*
X158639158Y-87861500D01*
X158639155Y-87861500D01*
X158484510Y-87892261D01*
X158484498Y-87892264D01*
X158338827Y-87952602D01*
X158338814Y-87952609D01*
X158286891Y-87987304D01*
X158220214Y-88008182D01*
X158152833Y-87989698D01*
X158149109Y-87987304D01*
X158097185Y-87952609D01*
X158097172Y-87952602D01*
X157951501Y-87892264D01*
X157951489Y-87892261D01*
X157796845Y-87861500D01*
X157796842Y-87861500D01*
X157639158Y-87861500D01*
X157639155Y-87861500D01*
X157484510Y-87892261D01*
X157484498Y-87892264D01*
X157338827Y-87952602D01*
X157338814Y-87952609D01*
X157286891Y-87987304D01*
X157220214Y-88008182D01*
X157152833Y-87989698D01*
X157149109Y-87987304D01*
X157097185Y-87952609D01*
X157097172Y-87952602D01*
X156951501Y-87892264D01*
X156951489Y-87892261D01*
X156796845Y-87861500D01*
X156796842Y-87861500D01*
X156639158Y-87861500D01*
X156639155Y-87861500D01*
X156484510Y-87892261D01*
X156484498Y-87892264D01*
X156338827Y-87952602D01*
X156338814Y-87952609D01*
X156286891Y-87987304D01*
X156220214Y-88008182D01*
X156152833Y-87989698D01*
X156149109Y-87987304D01*
X156097185Y-87952609D01*
X156097172Y-87952602D01*
X155951501Y-87892264D01*
X155951489Y-87892261D01*
X155796845Y-87861500D01*
X155796842Y-87861500D01*
X155639158Y-87861500D01*
X155639155Y-87861500D01*
X155484510Y-87892261D01*
X155484498Y-87892264D01*
X155338827Y-87952602D01*
X155338814Y-87952609D01*
X155286891Y-87987304D01*
X155220214Y-88008182D01*
X155152833Y-87989698D01*
X155149109Y-87987304D01*
X155097185Y-87952609D01*
X155097172Y-87952602D01*
X154951501Y-87892264D01*
X154951489Y-87892261D01*
X154796845Y-87861500D01*
X154796842Y-87861500D01*
X154639158Y-87861500D01*
X154639155Y-87861500D01*
X154484510Y-87892261D01*
X154484498Y-87892264D01*
X154338827Y-87952602D01*
X154338814Y-87952609D01*
X154207711Y-88040210D01*
X154207707Y-88040213D01*
X154096213Y-88151707D01*
X154096210Y-88151711D01*
X154008609Y-88282814D01*
X154008602Y-88282827D01*
X153948264Y-88428498D01*
X153948261Y-88428510D01*
X153917500Y-88583153D01*
X153917500Y-88740846D01*
X153948261Y-88895489D01*
X153948264Y-88895501D01*
X154008602Y-89041172D01*
X154008609Y-89041185D01*
X154043304Y-89093109D01*
X154064182Y-89159786D01*
X154045698Y-89227167D01*
X154043304Y-89230891D01*
X154008609Y-89282814D01*
X154008602Y-89282827D01*
X153948264Y-89428498D01*
X153948261Y-89428510D01*
X153917500Y-89583153D01*
X153917500Y-89740846D01*
X153948261Y-89895489D01*
X153948264Y-89895501D01*
X154008602Y-90041172D01*
X154008609Y-90041185D01*
X154043304Y-90093109D01*
X154064182Y-90159786D01*
X154045698Y-90227167D01*
X154043304Y-90230891D01*
X154008609Y-90282814D01*
X154008602Y-90282827D01*
X153948264Y-90428498D01*
X153948261Y-90428510D01*
X153917500Y-90583153D01*
X153917500Y-90740846D01*
X153948261Y-90895489D01*
X153948264Y-90895501D01*
X154008602Y-91041172D01*
X154008609Y-91041185D01*
X154096210Y-91172288D01*
X154096213Y-91172292D01*
X154207707Y-91283786D01*
X154207711Y-91283789D01*
X154338814Y-91371390D01*
X154338827Y-91371397D01*
X154484498Y-91431735D01*
X154484503Y-91431737D01*
X154639153Y-91462499D01*
X154639156Y-91462500D01*
X154639158Y-91462500D01*
X154796844Y-91462500D01*
X154796845Y-91462499D01*
X154951497Y-91431737D01*
X155097179Y-91371394D01*
X155149110Y-91336694D01*
X155215785Y-91315816D01*
X155283165Y-91334300D01*
X155286863Y-91336676D01*
X155338821Y-91371394D01*
X155338823Y-91371395D01*
X155338825Y-91371396D01*
X155484498Y-91431735D01*
X155484503Y-91431737D01*
X155639153Y-91462499D01*
X155639156Y-91462500D01*
X155639158Y-91462500D01*
X155796844Y-91462500D01*
X155796845Y-91462499D01*
X155951497Y-91431737D01*
X156097179Y-91371394D01*
X156149110Y-91336694D01*
X156215785Y-91315816D01*
X156283165Y-91334300D01*
X156286863Y-91336676D01*
X156338821Y-91371394D01*
X156338823Y-91371395D01*
X156338825Y-91371396D01*
X156484498Y-91431735D01*
X156484503Y-91431737D01*
X156639153Y-91462499D01*
X156639156Y-91462500D01*
X156639158Y-91462500D01*
X156796844Y-91462500D01*
X156796845Y-91462499D01*
X156951497Y-91431737D01*
X157097179Y-91371394D01*
X157149110Y-91336694D01*
X157215785Y-91315816D01*
X157283165Y-91334300D01*
X157286863Y-91336676D01*
X157338821Y-91371394D01*
X157338823Y-91371395D01*
X157338825Y-91371396D01*
X157484498Y-91431735D01*
X157484503Y-91431737D01*
X157639153Y-91462499D01*
X157639156Y-91462500D01*
X157639158Y-91462500D01*
X157796844Y-91462500D01*
X157796845Y-91462499D01*
X157951497Y-91431737D01*
X158097179Y-91371394D01*
X158149110Y-91336694D01*
X158215785Y-91315816D01*
X158283165Y-91334300D01*
X158286863Y-91336676D01*
X158338821Y-91371394D01*
X158338823Y-91371395D01*
X158338825Y-91371396D01*
X158484498Y-91431735D01*
X158484503Y-91431737D01*
X158639153Y-91462499D01*
X158639156Y-91462500D01*
X158639158Y-91462500D01*
X158796844Y-91462500D01*
X158796845Y-91462499D01*
X158951497Y-91431737D01*
X159097179Y-91371394D01*
X159228289Y-91283789D01*
X159245923Y-91266155D01*
X159300319Y-91211760D01*
X159361642Y-91178275D01*
X159431334Y-91183259D01*
X159487267Y-91225131D01*
X159511684Y-91290595D01*
X159512000Y-91299441D01*
X159512000Y-95531446D01*
X159508692Y-95531446D01*
X159511420Y-95556811D01*
X159480147Y-95619292D01*
X159477071Y-95622480D01*
X159071553Y-96028000D01*
X159071553Y-96028001D01*
X159472074Y-96428522D01*
X159476703Y-96430636D01*
X159484565Y-96442870D01*
X159496053Y-96451788D01*
X159503075Y-96471673D01*
X159512000Y-96485559D01*
X159512000Y-96557190D01*
X159499815Y-96598688D01*
X159478784Y-96616911D01*
X159480712Y-96618839D01*
X159071553Y-97027999D01*
X159071553Y-97028001D01*
X159472074Y-97428522D01*
X159476703Y-97430636D01*
X159484565Y-97442870D01*
X159496053Y-97451788D01*
X159503075Y-97471673D01*
X159512000Y-97485559D01*
X159512000Y-97557190D01*
X159499815Y-97598688D01*
X159478784Y-97616911D01*
X159480712Y-97618839D01*
X159071553Y-98027999D01*
X159071553Y-98028001D01*
X159477070Y-98433518D01*
X159510555Y-98494841D01*
X159508430Y-98524553D01*
X159512000Y-98524553D01*
X159512000Y-139068000D01*
X159492315Y-139135039D01*
X159439511Y-139180794D01*
X159388000Y-139192000D01*
X102232000Y-139192000D01*
X102164961Y-139172315D01*
X102119206Y-139119511D01*
X102108000Y-139068000D01*
X102108000Y-136022711D01*
X103305500Y-136022711D01*
X103305500Y-136265288D01*
X103337161Y-136505785D01*
X103399947Y-136740104D01*
X103438845Y-136834011D01*
X103492776Y-136964212D01*
X103614064Y-137174289D01*
X103614066Y-137174292D01*
X103614067Y-137174293D01*
X103761733Y-137366736D01*
X103761739Y-137366743D01*
X103933256Y-137538260D01*
X103933262Y-137538265D01*
X104125711Y-137685936D01*
X104335788Y-137807224D01*
X104559900Y-137900054D01*
X104794211Y-137962838D01*
X104974586Y-137986584D01*
X105034711Y-137994500D01*
X105034712Y-137994500D01*
X105277289Y-137994500D01*
X105330315Y-137987519D01*
X105517789Y-137962838D01*
X105752100Y-137900054D01*
X105976212Y-137807224D01*
X106186289Y-137685936D01*
X106378738Y-137538265D01*
X106550265Y-137366738D01*
X106697936Y-137174289D01*
X106819224Y-136964212D01*
X106912054Y-136740100D01*
X106974838Y-136505789D01*
X107006500Y-136265288D01*
X107006500Y-136022712D01*
X106974838Y-135782211D01*
X106912054Y-135547900D01*
X106819224Y-135323788D01*
X106697936Y-135113711D01*
X106550265Y-134921262D01*
X106550260Y-134921256D01*
X106378743Y-134749739D01*
X106378736Y-134749733D01*
X106186293Y-134602067D01*
X106186292Y-134602066D01*
X106186289Y-134602064D01*
X105976212Y-134480776D01*
X105976205Y-134480773D01*
X105752104Y-134387947D01*
X105749073Y-134387135D01*
X105517789Y-134325162D01*
X105517788Y-134325161D01*
X105517785Y-134325161D01*
X105355869Y-134303845D01*
X112191706Y-134303845D01*
X112320652Y-134357257D01*
X112320656Y-134357258D01*
X112475202Y-134387999D01*
X112475206Y-134388000D01*
X112632794Y-134388000D01*
X112632797Y-134387999D01*
X112787343Y-134357258D01*
X112787347Y-134357257D01*
X112916293Y-134303845D01*
X113191706Y-134303845D01*
X113320652Y-134357257D01*
X113320656Y-134357258D01*
X113475202Y-134387999D01*
X113475206Y-134388000D01*
X113632794Y-134388000D01*
X113632797Y-134387999D01*
X113787343Y-134357258D01*
X113787347Y-134357257D01*
X113916293Y-134303845D01*
X114191706Y-134303845D01*
X114320652Y-134357257D01*
X114320656Y-134357258D01*
X114475202Y-134387999D01*
X114475206Y-134388000D01*
X114632794Y-134388000D01*
X114632797Y-134387999D01*
X114787343Y-134357258D01*
X114787347Y-134357257D01*
X114916293Y-134303845D01*
X115191706Y-134303845D01*
X115320652Y-134357257D01*
X115320656Y-134357258D01*
X115475202Y-134387999D01*
X115475206Y-134388000D01*
X115632794Y-134388000D01*
X115632797Y-134387999D01*
X115787343Y-134357258D01*
X115787347Y-134357257D01*
X115916293Y-134303845D01*
X116191706Y-134303845D01*
X116320652Y-134357257D01*
X116320656Y-134357258D01*
X116475202Y-134387999D01*
X116475206Y-134388000D01*
X116632794Y-134388000D01*
X116632797Y-134387999D01*
X116787343Y-134357258D01*
X116787347Y-134357257D01*
X116916293Y-134303845D01*
X116554001Y-133941553D01*
X116554000Y-133941553D01*
X116191706Y-134303845D01*
X115916293Y-134303845D01*
X115554001Y-133941553D01*
X115554000Y-133941553D01*
X115191706Y-134303845D01*
X114916293Y-134303845D01*
X114554001Y-133941553D01*
X114554000Y-133941553D01*
X114191706Y-134303845D01*
X113916293Y-134303845D01*
X113554001Y-133941553D01*
X113554000Y-133941553D01*
X113191706Y-134303845D01*
X112916293Y-134303845D01*
X112554001Y-133941553D01*
X112554000Y-133941553D01*
X112191706Y-134303845D01*
X105355869Y-134303845D01*
X105277289Y-134293500D01*
X105277288Y-134293500D01*
X105034712Y-134293500D01*
X105034711Y-134293500D01*
X104794214Y-134325161D01*
X104559895Y-134387947D01*
X104335794Y-134480773D01*
X104335785Y-134480777D01*
X104125706Y-134602067D01*
X103933263Y-134749733D01*
X103933256Y-134749739D01*
X103761739Y-134921256D01*
X103761733Y-134921263D01*
X103614067Y-135113706D01*
X103492777Y-135323785D01*
X103492773Y-135323794D01*
X103399947Y-135547895D01*
X103337161Y-135782214D01*
X103305500Y-136022711D01*
X102108000Y-136022711D01*
X102108000Y-133509202D01*
X111754000Y-133509202D01*
X111754000Y-133666797D01*
X111784741Y-133821343D01*
X111784743Y-133821351D01*
X111838153Y-133950293D01*
X112200446Y-133588001D01*
X112200446Y-133587999D01*
X112170610Y-133558163D01*
X112404000Y-133558163D01*
X112404000Y-133617837D01*
X112426836Y-133672968D01*
X112469032Y-133715164D01*
X112524163Y-133738000D01*
X112583837Y-133738000D01*
X112638968Y-133715164D01*
X112681164Y-133672968D01*
X112704000Y-133617837D01*
X112704000Y-133588000D01*
X112907553Y-133588000D01*
X113054000Y-133734446D01*
X113200446Y-133588000D01*
X113170609Y-133558163D01*
X113404000Y-133558163D01*
X113404000Y-133617837D01*
X113426836Y-133672968D01*
X113469032Y-133715164D01*
X113524163Y-133738000D01*
X113583837Y-133738000D01*
X113638968Y-133715164D01*
X113681164Y-133672968D01*
X113704000Y-133617837D01*
X113704000Y-133587999D01*
X113907553Y-133587999D01*
X114054000Y-133734445D01*
X114194255Y-133594189D01*
X114158229Y-133558163D01*
X114404000Y-133558163D01*
X114404000Y-133617837D01*
X114426836Y-133672968D01*
X114469032Y-133715164D01*
X114524163Y-133738000D01*
X114583837Y-133738000D01*
X114638968Y-133715164D01*
X114681164Y-133672968D01*
X114704000Y-133617837D01*
X114704000Y-133587999D01*
X114907553Y-133587999D01*
X115054000Y-133734446D01*
X115200446Y-133588000D01*
X115170609Y-133558163D01*
X115404000Y-133558163D01*
X115404000Y-133617837D01*
X115426836Y-133672968D01*
X115469032Y-133715164D01*
X115524163Y-133738000D01*
X115583837Y-133738000D01*
X115638968Y-133715164D01*
X115681164Y-133672968D01*
X115704000Y-133617837D01*
X115704000Y-133587999D01*
X115907553Y-133587999D01*
X116054000Y-133734446D01*
X116200446Y-133588001D01*
X116200446Y-133588000D01*
X116170609Y-133558163D01*
X116404000Y-133558163D01*
X116404000Y-133617837D01*
X116426836Y-133672968D01*
X116469032Y-133715164D01*
X116524163Y-133738000D01*
X116583837Y-133738000D01*
X116638968Y-133715164D01*
X116681164Y-133672968D01*
X116704000Y-133617837D01*
X116704000Y-133587999D01*
X116907553Y-133587999D01*
X116907553Y-133588001D01*
X117269845Y-133950293D01*
X117323257Y-133821347D01*
X117323258Y-133821343D01*
X117353999Y-133666797D01*
X117354000Y-133666794D01*
X117354000Y-133509206D01*
X117353999Y-133509202D01*
X117323258Y-133354656D01*
X117323257Y-133354652D01*
X117269845Y-133225706D01*
X116907553Y-133587999D01*
X116704000Y-133587999D01*
X116704000Y-133558163D01*
X116681164Y-133503032D01*
X116638968Y-133460836D01*
X116583837Y-133438000D01*
X116524163Y-133438000D01*
X116469032Y-133460836D01*
X116426836Y-133503032D01*
X116404000Y-133558163D01*
X116170609Y-133558163D01*
X116054000Y-133441553D01*
X115986397Y-133509157D01*
X115986396Y-133509158D01*
X115907553Y-133587999D01*
X115704000Y-133587999D01*
X115704000Y-133558163D01*
X115681164Y-133503032D01*
X115638968Y-133460836D01*
X115583837Y-133438000D01*
X115524163Y-133438000D01*
X115469032Y-133460836D01*
X115426836Y-133503032D01*
X115404000Y-133558163D01*
X115170609Y-133558163D01*
X115121604Y-133509158D01*
X115054000Y-133441553D01*
X114986397Y-133509157D01*
X114986396Y-133509158D01*
X114907553Y-133587999D01*
X114704000Y-133587999D01*
X114704000Y-133558163D01*
X114681164Y-133503032D01*
X114638968Y-133460836D01*
X114583837Y-133438000D01*
X114524163Y-133438000D01*
X114469032Y-133460836D01*
X114426836Y-133503032D01*
X114404000Y-133558163D01*
X114158229Y-133558163D01*
X114047809Y-133447744D01*
X113907553Y-133587999D01*
X113704000Y-133587999D01*
X113704000Y-133558163D01*
X113681164Y-133503032D01*
X113638968Y-133460836D01*
X113583837Y-133438000D01*
X113524163Y-133438000D01*
X113469032Y-133460836D01*
X113426836Y-133503032D01*
X113404000Y-133558163D01*
X113170609Y-133558163D01*
X113053999Y-133441553D01*
X112907553Y-133588000D01*
X112704000Y-133588000D01*
X112704000Y-133558163D01*
X112681164Y-133503032D01*
X112638968Y-133460836D01*
X112583837Y-133438000D01*
X112524163Y-133438000D01*
X112469032Y-133460836D01*
X112426836Y-133503032D01*
X112404000Y-133558163D01*
X112170610Y-133558163D01*
X111838153Y-133225705D01*
X111784743Y-133354648D01*
X111784741Y-133354656D01*
X111754000Y-133509202D01*
X102108000Y-133509202D01*
X102108000Y-133087999D01*
X112407553Y-133087999D01*
X112554000Y-133234446D01*
X112700446Y-133088000D01*
X112670609Y-133058163D01*
X112904000Y-133058163D01*
X112904000Y-133117837D01*
X112926836Y-133172968D01*
X112969032Y-133215164D01*
X113024163Y-133238000D01*
X113083837Y-133238000D01*
X113138968Y-133215164D01*
X113181164Y-133172968D01*
X113204000Y-133117837D01*
X113204000Y-133087999D01*
X113407553Y-133087999D01*
X113546089Y-133226535D01*
X113686346Y-133086280D01*
X113656510Y-133056444D01*
X113889900Y-133056444D01*
X113889900Y-133116118D01*
X113912736Y-133171249D01*
X113954932Y-133213445D01*
X114010063Y-133236281D01*
X114069737Y-133236281D01*
X114124868Y-133213445D01*
X114167064Y-133171249D01*
X114189900Y-133116118D01*
X114189900Y-133087999D01*
X114407553Y-133087999D01*
X114554000Y-133234446D01*
X114700446Y-133088000D01*
X114670609Y-133058163D01*
X114904000Y-133058163D01*
X114904000Y-133117837D01*
X114926836Y-133172968D01*
X114969032Y-133215164D01*
X115024163Y-133238000D01*
X115083837Y-133238000D01*
X115138968Y-133215164D01*
X115181164Y-133172968D01*
X115204000Y-133117837D01*
X115204000Y-133087999D01*
X115407553Y-133087999D01*
X115554000Y-133234446D01*
X115700446Y-133088000D01*
X115670609Y-133058163D01*
X115904000Y-133058163D01*
X115904000Y-133117837D01*
X115926836Y-133172968D01*
X115969032Y-133215164D01*
X116024163Y-133238000D01*
X116083837Y-133238000D01*
X116138968Y-133215164D01*
X116181164Y-133172968D01*
X116204000Y-133117837D01*
X116204000Y-133087999D01*
X116407553Y-133087999D01*
X116554000Y-133234446D01*
X116700446Y-133088001D01*
X116700446Y-133087999D01*
X116554000Y-132941553D01*
X116528614Y-132966940D01*
X116528612Y-132966942D01*
X116407553Y-133087999D01*
X116204000Y-133087999D01*
X116204000Y-133058163D01*
X116181164Y-133003032D01*
X116138968Y-132960836D01*
X116083837Y-132938000D01*
X116024163Y-132938000D01*
X115969032Y-132960836D01*
X115926836Y-133003032D01*
X115904000Y-133058163D01*
X115670609Y-133058163D01*
X115579388Y-132966942D01*
X115554000Y-132941553D01*
X115528614Y-132966940D01*
X115528612Y-132966942D01*
X115407553Y-133087999D01*
X115204000Y-133087999D01*
X115204000Y-133058163D01*
X115181164Y-133003032D01*
X115138968Y-132960836D01*
X115083837Y-132938000D01*
X115024163Y-132938000D01*
X114969032Y-132960836D01*
X114926836Y-133003032D01*
X114904000Y-133058163D01*
X114670609Y-133058163D01*
X114553999Y-132941553D01*
X114407553Y-133087999D01*
X114189900Y-133087999D01*
X114189900Y-133056444D01*
X114167064Y-133001313D01*
X114124868Y-132959117D01*
X114069737Y-132936281D01*
X114010063Y-132936281D01*
X113954932Y-132959117D01*
X113912736Y-133001313D01*
X113889900Y-133056444D01*
X113656510Y-133056444D01*
X113547809Y-132947743D01*
X113547809Y-132947744D01*
X113528614Y-132966940D01*
X113528612Y-132966942D01*
X113407553Y-133087999D01*
X113204000Y-133087999D01*
X113204000Y-133058163D01*
X113181164Y-133003032D01*
X113138968Y-132960836D01*
X113083837Y-132938000D01*
X113024163Y-132938000D01*
X112969032Y-132960836D01*
X112926836Y-133003032D01*
X112904000Y-133058163D01*
X112670609Y-133058163D01*
X112553999Y-132941553D01*
X112407553Y-133087999D01*
X102108000Y-133087999D01*
X102108000Y-132509202D01*
X111754000Y-132509202D01*
X111754000Y-132666797D01*
X111784741Y-132821343D01*
X111784743Y-132821351D01*
X111838153Y-132950293D01*
X111839490Y-132948957D01*
X112200446Y-132588001D01*
X112200446Y-132587999D01*
X112170610Y-132558163D01*
X112404000Y-132558163D01*
X112404000Y-132617837D01*
X112426836Y-132672968D01*
X112469032Y-132715164D01*
X112524163Y-132738000D01*
X112583837Y-132738000D01*
X112638968Y-132715164D01*
X112681164Y-132672968D01*
X112704000Y-132617837D01*
X112704000Y-132587999D01*
X112907553Y-132587999D01*
X113054000Y-132734446D01*
X113200446Y-132588000D01*
X113170609Y-132558163D01*
X113404000Y-132558163D01*
X113404000Y-132617837D01*
X113426836Y-132672968D01*
X113469032Y-132715164D01*
X113524163Y-132738000D01*
X113583837Y-132738000D01*
X113638968Y-132715164D01*
X113681164Y-132672968D01*
X113704000Y-132617837D01*
X113704000Y-132587999D01*
X113907553Y-132587999D01*
X114046090Y-132726536D01*
X114189958Y-132582668D01*
X114167136Y-132558163D01*
X114404000Y-132558163D01*
X114404000Y-132617837D01*
X114426836Y-132672968D01*
X114469032Y-132715164D01*
X114524163Y-132738000D01*
X114583837Y-132738000D01*
X114638968Y-132715164D01*
X114681164Y-132672968D01*
X114704000Y-132617837D01*
X114704000Y-132569570D01*
X114925983Y-132569570D01*
X114945277Y-132625723D01*
X115054000Y-132734446D01*
X115200446Y-132588000D01*
X115170609Y-132558163D01*
X115404000Y-132558163D01*
X115404000Y-132617837D01*
X115426836Y-132672968D01*
X115469032Y-132715164D01*
X115524163Y-132738000D01*
X115583837Y-132738000D01*
X115638968Y-132715164D01*
X115681164Y-132672968D01*
X115704000Y-132617837D01*
X115704000Y-132587999D01*
X115907553Y-132587999D01*
X116054000Y-132734446D01*
X116200446Y-132588000D01*
X116170609Y-132558163D01*
X116404000Y-132558163D01*
X116404000Y-132617837D01*
X116426836Y-132672968D01*
X116469032Y-132715164D01*
X116524163Y-132738000D01*
X116583837Y-132738000D01*
X116638968Y-132715164D01*
X116681164Y-132672968D01*
X116704000Y-132617837D01*
X116704000Y-132587999D01*
X116907553Y-132587999D01*
X116907553Y-132588001D01*
X117269845Y-132950293D01*
X117323257Y-132821347D01*
X117323258Y-132821343D01*
X117353999Y-132666797D01*
X117354000Y-132666794D01*
X117354000Y-132509206D01*
X117353999Y-132509202D01*
X117323258Y-132354656D01*
X117323257Y-132354652D01*
X117269845Y-132225706D01*
X116907553Y-132587999D01*
X116704000Y-132587999D01*
X116704000Y-132558163D01*
X116681164Y-132503032D01*
X116638968Y-132460836D01*
X116583837Y-132438000D01*
X116524163Y-132438000D01*
X116469032Y-132460836D01*
X116426836Y-132503032D01*
X116404000Y-132558163D01*
X116170609Y-132558163D01*
X116121604Y-132509158D01*
X116054000Y-132441553D01*
X115986397Y-132509157D01*
X115986396Y-132509158D01*
X115907553Y-132587999D01*
X115704000Y-132587999D01*
X115704000Y-132558163D01*
X115681164Y-132503032D01*
X115638968Y-132460836D01*
X115583837Y-132438000D01*
X115524163Y-132438000D01*
X115469032Y-132460836D01*
X115426836Y-132503032D01*
X115404000Y-132558163D01*
X115170609Y-132558163D01*
X115121604Y-132509158D01*
X115054000Y-132441553D01*
X114986397Y-132509157D01*
X114986396Y-132509158D01*
X114925983Y-132569570D01*
X114704000Y-132569570D01*
X114704000Y-132558163D01*
X114681164Y-132503032D01*
X114638968Y-132460836D01*
X114583837Y-132438000D01*
X114524163Y-132438000D01*
X114469032Y-132460836D01*
X114426836Y-132503032D01*
X114404000Y-132558163D01*
X114167136Y-132558163D01*
X114120047Y-132507601D01*
X114054000Y-132441553D01*
X113986397Y-132509157D01*
X113986396Y-132509158D01*
X113907553Y-132587999D01*
X113704000Y-132587999D01*
X113704000Y-132558163D01*
X113681164Y-132503032D01*
X113638968Y-132460836D01*
X113583837Y-132438000D01*
X113524163Y-132438000D01*
X113469032Y-132460836D01*
X113426836Y-132503032D01*
X113404000Y-132558163D01*
X113170609Y-132558163D01*
X113121604Y-132509158D01*
X113054000Y-132441553D01*
X112986397Y-132509157D01*
X112986396Y-132509158D01*
X112907553Y-132587999D01*
X112704000Y-132587999D01*
X112704000Y-132558163D01*
X112681164Y-132503032D01*
X112638968Y-132460836D01*
X112583837Y-132438000D01*
X112524163Y-132438000D01*
X112469032Y-132460836D01*
X112426836Y-132503032D01*
X112404000Y-132558163D01*
X112170610Y-132558163D01*
X111838153Y-132225705D01*
X111784743Y-132354648D01*
X111784741Y-132354656D01*
X111754000Y-132509202D01*
X102108000Y-132509202D01*
X102108000Y-132087999D01*
X112407553Y-132087999D01*
X112554000Y-132234446D01*
X112700445Y-132088000D01*
X112700446Y-132087999D01*
X112670610Y-132058163D01*
X112904000Y-132058163D01*
X112904000Y-132117837D01*
X112926836Y-132172968D01*
X112969032Y-132215164D01*
X113024163Y-132238000D01*
X113083837Y-132238000D01*
X113138968Y-132215164D01*
X113181164Y-132172968D01*
X113204000Y-132117837D01*
X113204000Y-132087999D01*
X113407553Y-132087999D01*
X113554000Y-132234446D01*
X113700446Y-132088000D01*
X113670609Y-132058163D01*
X113904000Y-132058163D01*
X113904000Y-132117837D01*
X113926836Y-132172968D01*
X113969032Y-132215164D01*
X114024163Y-132238000D01*
X114083837Y-132238000D01*
X114138968Y-132215164D01*
X114181164Y-132172968D01*
X114204000Y-132117837D01*
X114204000Y-132087999D01*
X114407553Y-132087999D01*
X114554000Y-132234446D01*
X114700446Y-132088000D01*
X114670609Y-132058163D01*
X114904000Y-132058163D01*
X114904000Y-132117837D01*
X114926836Y-132172968D01*
X114969032Y-132215164D01*
X115024163Y-132238000D01*
X115083837Y-132238000D01*
X115138968Y-132215164D01*
X115181164Y-132172968D01*
X115204000Y-132117837D01*
X115204000Y-132087999D01*
X115407553Y-132087999D01*
X115554000Y-132234446D01*
X115700446Y-132088000D01*
X115670609Y-132058163D01*
X115904000Y-132058163D01*
X115904000Y-132117837D01*
X115926836Y-132172968D01*
X115969032Y-132215164D01*
X116024163Y-132238000D01*
X116083837Y-132238000D01*
X116138968Y-132215164D01*
X116181164Y-132172968D01*
X116204000Y-132117837D01*
X116204000Y-132087999D01*
X116407553Y-132087999D01*
X116554000Y-132234446D01*
X116700446Y-132088000D01*
X116554000Y-131941553D01*
X116407553Y-132087999D01*
X116204000Y-132087999D01*
X116204000Y-132058163D01*
X116181164Y-132003032D01*
X116138968Y-131960836D01*
X116083837Y-131938000D01*
X116024163Y-131938000D01*
X115969032Y-131960836D01*
X115926836Y-132003032D01*
X115904000Y-132058163D01*
X115670609Y-132058163D01*
X115579388Y-131966942D01*
X115554000Y-131941553D01*
X115528614Y-131966940D01*
X115528612Y-131966942D01*
X115407553Y-132087999D01*
X115204000Y-132087999D01*
X115204000Y-132058163D01*
X115181164Y-132003032D01*
X115138968Y-131960836D01*
X115083837Y-131938000D01*
X115024163Y-131938000D01*
X114969032Y-131960836D01*
X114926836Y-132003032D01*
X114904000Y-132058163D01*
X114670609Y-132058163D01*
X114579388Y-131966942D01*
X114554000Y-131941553D01*
X114528614Y-131966940D01*
X114528612Y-131966942D01*
X114407553Y-132087999D01*
X114204000Y-132087999D01*
X114204000Y-132058163D01*
X114181164Y-132003032D01*
X114138968Y-131960836D01*
X114083837Y-131938000D01*
X114024163Y-131938000D01*
X113969032Y-131960836D01*
X113926836Y-132003032D01*
X113904000Y-132058163D01*
X113670609Y-132058163D01*
X113579388Y-131966942D01*
X113554000Y-131941553D01*
X113528614Y-131966940D01*
X113528612Y-131966942D01*
X113407553Y-132087999D01*
X113204000Y-132087999D01*
X113204000Y-132058163D01*
X113181164Y-132003032D01*
X113138968Y-131960836D01*
X113083837Y-131938000D01*
X113024163Y-131938000D01*
X112969032Y-131960836D01*
X112926836Y-132003032D01*
X112904000Y-132058163D01*
X112670610Y-132058163D01*
X112554000Y-131941553D01*
X112407553Y-132087999D01*
X102108000Y-132087999D01*
X102108000Y-131509202D01*
X111754000Y-131509202D01*
X111754000Y-131666797D01*
X111784741Y-131821343D01*
X111784743Y-131821351D01*
X111838153Y-131950293D01*
X111839490Y-131948957D01*
X112200446Y-131588001D01*
X112200446Y-131587999D01*
X112170610Y-131558163D01*
X112404000Y-131558163D01*
X112404000Y-131617837D01*
X112426836Y-131672968D01*
X112469032Y-131715164D01*
X112524163Y-131738000D01*
X112583837Y-131738000D01*
X112638968Y-131715164D01*
X112681164Y-131672968D01*
X112704000Y-131617837D01*
X112704000Y-131588000D01*
X112907553Y-131588000D01*
X113053998Y-131734446D01*
X113161299Y-131627145D01*
X113181627Y-131569182D01*
X113170608Y-131558163D01*
X113404000Y-131558163D01*
X113404000Y-131617837D01*
X113426836Y-131672968D01*
X113469032Y-131715164D01*
X113524163Y-131738000D01*
X113583837Y-131738000D01*
X113638968Y-131715164D01*
X113681164Y-131672968D01*
X113704000Y-131617837D01*
X113704000Y-131569180D01*
X113926371Y-131569180D01*
X113946703Y-131627149D01*
X114054000Y-131734446D01*
X114161299Y-131627146D01*
X114181627Y-131569182D01*
X114170608Y-131558163D01*
X114404000Y-131558163D01*
X114404000Y-131617837D01*
X114426836Y-131672968D01*
X114469032Y-131715164D01*
X114524163Y-131738000D01*
X114583837Y-131738000D01*
X114638968Y-131715164D01*
X114681164Y-131672968D01*
X114704000Y-131617837D01*
X114704000Y-131569180D01*
X114926371Y-131569180D01*
X114946703Y-131627149D01*
X115054000Y-131734446D01*
X115161299Y-131627146D01*
X115181627Y-131569182D01*
X115170608Y-131558163D01*
X115404000Y-131558163D01*
X115404000Y-131617837D01*
X115426836Y-131672968D01*
X115469032Y-131715164D01*
X115524163Y-131738000D01*
X115583837Y-131738000D01*
X115638968Y-131715164D01*
X115681164Y-131672968D01*
X115704000Y-131617837D01*
X115704000Y-131569180D01*
X115926371Y-131569180D01*
X115946703Y-131627149D01*
X116054000Y-131734446D01*
X116200446Y-131588000D01*
X116170609Y-131558163D01*
X116404000Y-131558163D01*
X116404000Y-131617837D01*
X116426836Y-131672968D01*
X116469032Y-131715164D01*
X116524163Y-131738000D01*
X116583837Y-131738000D01*
X116638968Y-131715164D01*
X116681164Y-131672968D01*
X116704000Y-131617837D01*
X116704000Y-131587999D01*
X116907553Y-131587999D01*
X116907553Y-131588001D01*
X117269845Y-131950293D01*
X117323257Y-131821347D01*
X117323258Y-131821343D01*
X117353999Y-131666797D01*
X117354000Y-131666794D01*
X117354000Y-131509204D01*
X117353999Y-131509203D01*
X117353989Y-131509153D01*
X118357500Y-131509153D01*
X118357500Y-131666846D01*
X118388261Y-131821489D01*
X118388264Y-131821501D01*
X118448602Y-131967172D01*
X118448609Y-131967185D01*
X118483304Y-132019109D01*
X118504182Y-132085786D01*
X118485698Y-132153167D01*
X118483304Y-132156891D01*
X118448609Y-132208814D01*
X118448602Y-132208827D01*
X118388264Y-132354498D01*
X118388261Y-132354510D01*
X118357500Y-132509153D01*
X118357500Y-132666846D01*
X118388261Y-132821489D01*
X118388264Y-132821501D01*
X118448602Y-132967172D01*
X118448609Y-132967185D01*
X118483304Y-133019109D01*
X118504182Y-133085786D01*
X118485698Y-133153167D01*
X118483304Y-133156891D01*
X118448609Y-133208814D01*
X118448602Y-133208827D01*
X118388264Y-133354498D01*
X118388261Y-133354510D01*
X118357500Y-133509153D01*
X118357500Y-133666846D01*
X118388261Y-133821489D01*
X118388264Y-133821501D01*
X118448602Y-133967172D01*
X118448609Y-133967185D01*
X118536210Y-134098288D01*
X118536213Y-134098292D01*
X118647707Y-134209786D01*
X118647711Y-134209789D01*
X118778814Y-134297390D01*
X118778827Y-134297397D01*
X118924498Y-134357735D01*
X118924503Y-134357737D01*
X119050533Y-134382806D01*
X119079153Y-134388499D01*
X119079156Y-134388500D01*
X119079158Y-134388500D01*
X119236844Y-134388500D01*
X119236845Y-134388499D01*
X119391497Y-134357737D01*
X119537179Y-134297394D01*
X119589110Y-134262694D01*
X119655785Y-134241816D01*
X119723165Y-134260300D01*
X119726863Y-134262676D01*
X119778821Y-134297394D01*
X119778823Y-134297395D01*
X119778825Y-134297396D01*
X119924498Y-134357735D01*
X119924503Y-134357737D01*
X120050533Y-134382806D01*
X120079153Y-134388499D01*
X120079156Y-134388500D01*
X120079158Y-134388500D01*
X120236844Y-134388500D01*
X120236845Y-134388499D01*
X120391497Y-134357737D01*
X120537179Y-134297394D01*
X120589110Y-134262694D01*
X120655785Y-134241816D01*
X120723165Y-134260300D01*
X120726863Y-134262676D01*
X120778821Y-134297394D01*
X120778823Y-134297395D01*
X120778825Y-134297396D01*
X120924498Y-134357735D01*
X120924503Y-134357737D01*
X121050533Y-134382806D01*
X121079153Y-134388499D01*
X121079156Y-134388500D01*
X121079158Y-134388500D01*
X121236844Y-134388500D01*
X121236845Y-134388499D01*
X121391497Y-134357737D01*
X121537179Y-134297394D01*
X121589110Y-134262694D01*
X121655785Y-134241816D01*
X121723165Y-134260300D01*
X121726863Y-134262676D01*
X121778821Y-134297394D01*
X121778823Y-134297395D01*
X121778825Y-134297396D01*
X121924498Y-134357735D01*
X121924503Y-134357737D01*
X122050533Y-134382806D01*
X122079153Y-134388499D01*
X122079156Y-134388500D01*
X122079158Y-134388500D01*
X122236844Y-134388500D01*
X122236845Y-134388499D01*
X122391497Y-134357737D01*
X122537179Y-134297394D01*
X122589110Y-134262694D01*
X122655785Y-134241816D01*
X122723165Y-134260300D01*
X122726863Y-134262676D01*
X122778821Y-134297394D01*
X122778823Y-134297395D01*
X122778825Y-134297396D01*
X122924498Y-134357735D01*
X122924503Y-134357737D01*
X123050533Y-134382806D01*
X123079153Y-134388499D01*
X123079156Y-134388500D01*
X123079158Y-134388500D01*
X123236844Y-134388500D01*
X123236845Y-134388499D01*
X123391497Y-134357737D01*
X123537179Y-134297394D01*
X123668289Y-134209789D01*
X123779789Y-134098289D01*
X123867394Y-133967179D01*
X123927737Y-133821497D01*
X123958500Y-133666842D01*
X123958500Y-133509158D01*
X123958500Y-133509157D01*
X123958500Y-133509155D01*
X123958499Y-133509153D01*
X123927767Y-133354656D01*
X123927737Y-133354503D01*
X123927735Y-133354498D01*
X123867396Y-133208825D01*
X123867394Y-133208822D01*
X123867394Y-133208821D01*
X123832694Y-133156889D01*
X123811816Y-133090215D01*
X123830300Y-133022835D01*
X123832676Y-133019136D01*
X123867394Y-132967179D01*
X123927737Y-132821497D01*
X123958500Y-132666842D01*
X123958500Y-132509158D01*
X123958500Y-132509157D01*
X123958500Y-132509155D01*
X123958499Y-132509153D01*
X123927767Y-132354656D01*
X123927737Y-132354503D01*
X123927735Y-132354498D01*
X123867396Y-132208825D01*
X123867394Y-132208822D01*
X123867394Y-132208821D01*
X123832694Y-132156889D01*
X123811816Y-132090215D01*
X123830300Y-132022835D01*
X123832676Y-132019136D01*
X123867394Y-131967179D01*
X123927737Y-131821497D01*
X123958500Y-131666842D01*
X123958500Y-131509158D01*
X123958500Y-131509155D01*
X123958499Y-131509153D01*
X123927767Y-131354656D01*
X123927737Y-131354503D01*
X123927735Y-131354498D01*
X123867397Y-131208827D01*
X123867390Y-131208814D01*
X123779789Y-131077711D01*
X123779786Y-131077707D01*
X123668292Y-130966213D01*
X123668288Y-130966210D01*
X123537185Y-130878609D01*
X123537172Y-130878602D01*
X123391501Y-130818264D01*
X123391489Y-130818261D01*
X123236845Y-130787500D01*
X123236842Y-130787500D01*
X123079158Y-130787500D01*
X123079155Y-130787500D01*
X122924510Y-130818261D01*
X122924498Y-130818264D01*
X122778827Y-130878602D01*
X122778814Y-130878609D01*
X122726891Y-130913304D01*
X122660214Y-130934182D01*
X122592833Y-130915698D01*
X122589109Y-130913304D01*
X122537185Y-130878609D01*
X122537172Y-130878602D01*
X122391501Y-130818264D01*
X122391489Y-130818261D01*
X122236845Y-130787500D01*
X122236842Y-130787500D01*
X122079158Y-130787500D01*
X122079155Y-130787500D01*
X121924510Y-130818261D01*
X121924498Y-130818264D01*
X121778827Y-130878602D01*
X121778814Y-130878609D01*
X121726891Y-130913304D01*
X121660214Y-130934182D01*
X121592833Y-130915698D01*
X121589109Y-130913304D01*
X121537185Y-130878609D01*
X121537172Y-130878602D01*
X121391501Y-130818264D01*
X121391489Y-130818261D01*
X121236845Y-130787500D01*
X121236842Y-130787500D01*
X121079158Y-130787500D01*
X121079155Y-130787500D01*
X120924510Y-130818261D01*
X120924498Y-130818264D01*
X120778827Y-130878602D01*
X120778814Y-130878609D01*
X120726891Y-130913304D01*
X120660214Y-130934182D01*
X120592833Y-130915698D01*
X120589109Y-130913304D01*
X120537185Y-130878609D01*
X120537172Y-130878602D01*
X120391501Y-130818264D01*
X120391489Y-130818261D01*
X120236845Y-130787500D01*
X120236842Y-130787500D01*
X120079158Y-130787500D01*
X120079155Y-130787500D01*
X119924510Y-130818261D01*
X119924498Y-130818264D01*
X119778827Y-130878602D01*
X119778814Y-130878609D01*
X119726891Y-130913304D01*
X119660214Y-130934182D01*
X119592833Y-130915698D01*
X119589109Y-130913304D01*
X119537185Y-130878609D01*
X119537172Y-130878602D01*
X119391501Y-130818264D01*
X119391489Y-130818261D01*
X119236845Y-130787500D01*
X119236842Y-130787500D01*
X119079158Y-130787500D01*
X119079155Y-130787500D01*
X118924510Y-130818261D01*
X118924498Y-130818264D01*
X118778827Y-130878602D01*
X118778814Y-130878609D01*
X118647711Y-130966210D01*
X118647707Y-130966213D01*
X118536213Y-131077707D01*
X118536210Y-131077711D01*
X118448609Y-131208814D01*
X118448602Y-131208827D01*
X118388264Y-131354498D01*
X118388261Y-131354510D01*
X118357500Y-131509153D01*
X117353989Y-131509153D01*
X117323258Y-131354656D01*
X117323257Y-131354652D01*
X117269845Y-131225706D01*
X116907553Y-131587999D01*
X116704000Y-131587999D01*
X116704000Y-131558163D01*
X116681164Y-131503032D01*
X116638968Y-131460836D01*
X116583837Y-131438000D01*
X116524163Y-131438000D01*
X116469032Y-131460836D01*
X116426836Y-131503032D01*
X116404000Y-131558163D01*
X116170609Y-131558163D01*
X116054000Y-131441553D01*
X115926371Y-131569180D01*
X115704000Y-131569180D01*
X115704000Y-131558163D01*
X115681164Y-131503032D01*
X115638968Y-131460836D01*
X115583837Y-131438000D01*
X115524163Y-131438000D01*
X115469032Y-131460836D01*
X115426836Y-131503032D01*
X115404000Y-131558163D01*
X115170608Y-131558163D01*
X115054000Y-131441553D01*
X114926371Y-131569180D01*
X114704000Y-131569180D01*
X114704000Y-131558163D01*
X114681164Y-131503032D01*
X114638968Y-131460836D01*
X114583837Y-131438000D01*
X114524163Y-131438000D01*
X114469032Y-131460836D01*
X114426836Y-131503032D01*
X114404000Y-131558163D01*
X114170608Y-131558163D01*
X114054000Y-131441553D01*
X113926371Y-131569180D01*
X113704000Y-131569180D01*
X113704000Y-131558163D01*
X113681164Y-131503032D01*
X113638968Y-131460836D01*
X113583837Y-131438000D01*
X113524163Y-131438000D01*
X113469032Y-131460836D01*
X113426836Y-131503032D01*
X113404000Y-131558163D01*
X113170608Y-131558163D01*
X113054000Y-131441553D01*
X112907553Y-131588000D01*
X112704000Y-131588000D01*
X112704000Y-131558163D01*
X112681164Y-131503032D01*
X112638968Y-131460836D01*
X112583837Y-131438000D01*
X112524163Y-131438000D01*
X112469032Y-131460836D01*
X112426836Y-131503032D01*
X112404000Y-131558163D01*
X112170610Y-131558163D01*
X111838153Y-131225705D01*
X111784743Y-131354648D01*
X111784741Y-131354656D01*
X111754000Y-131509202D01*
X102108000Y-131509202D01*
X102108000Y-130872153D01*
X112191705Y-130872153D01*
X112554000Y-131234446D01*
X112554001Y-131234446D01*
X112916293Y-130872153D01*
X113191705Y-130872153D01*
X113554000Y-131234446D01*
X113554001Y-131234446D01*
X113916293Y-130872153D01*
X114191705Y-130872153D01*
X114554000Y-131234446D01*
X114554001Y-131234446D01*
X114916293Y-130872153D01*
X115191705Y-130872153D01*
X115554000Y-131234446D01*
X115554001Y-131234446D01*
X115916293Y-130872153D01*
X116191705Y-130872153D01*
X116554000Y-131234446D01*
X116554001Y-131234446D01*
X116916293Y-130872153D01*
X116787351Y-130818743D01*
X116787343Y-130818741D01*
X116632797Y-130788000D01*
X116475202Y-130788000D01*
X116320656Y-130818741D01*
X116320648Y-130818743D01*
X116191705Y-130872153D01*
X115916293Y-130872153D01*
X115787351Y-130818743D01*
X115787343Y-130818741D01*
X115632797Y-130788000D01*
X115475202Y-130788000D01*
X115320656Y-130818741D01*
X115320648Y-130818743D01*
X115191705Y-130872153D01*
X114916293Y-130872153D01*
X114787351Y-130818743D01*
X114787343Y-130818741D01*
X114632797Y-130788000D01*
X114475202Y-130788000D01*
X114320656Y-130818741D01*
X114320648Y-130818743D01*
X114191705Y-130872153D01*
X113916293Y-130872153D01*
X113787351Y-130818743D01*
X113787343Y-130818741D01*
X113632797Y-130788000D01*
X113475202Y-130788000D01*
X113320656Y-130818741D01*
X113320648Y-130818743D01*
X113191705Y-130872153D01*
X112916293Y-130872153D01*
X112787351Y-130818743D01*
X112787343Y-130818741D01*
X112632797Y-130788000D01*
X112475202Y-130788000D01*
X112320656Y-130818741D01*
X112320648Y-130818743D01*
X112191705Y-130872153D01*
X102108000Y-130872153D01*
X102108000Y-125480772D01*
X102127685Y-125413733D01*
X102180489Y-125367978D01*
X102249647Y-125358034D01*
X102300892Y-125377671D01*
X102369312Y-125423389D01*
X102369327Y-125423397D01*
X102507845Y-125480772D01*
X102515003Y-125483737D01*
X102669653Y-125514499D01*
X102669656Y-125514500D01*
X102669658Y-125514500D01*
X102827344Y-125514500D01*
X102827345Y-125514499D01*
X102981997Y-125483737D01*
X103127679Y-125423394D01*
X103258789Y-125335789D01*
X103370289Y-125224289D01*
X103457894Y-125093179D01*
X103485109Y-125027475D01*
X103528947Y-124973073D01*
X103595241Y-124951007D01*
X103662940Y-124968285D01*
X103710552Y-125019421D01*
X103722142Y-125055528D01*
X103727410Y-125088787D01*
X103805260Y-125328383D01*
X103919632Y-125552848D01*
X104067701Y-125756649D01*
X104067705Y-125756654D01*
X104245845Y-125934794D01*
X104245850Y-125934798D01*
X104423617Y-126063952D01*
X104449655Y-126082870D01*
X104592684Y-126155747D01*
X104674116Y-126197239D01*
X104674118Y-126197239D01*
X104674121Y-126197241D01*
X104913715Y-126275090D01*
X105162538Y-126314500D01*
X105162539Y-126314500D01*
X105414461Y-126314500D01*
X105414462Y-126314500D01*
X105663285Y-126275090D01*
X105902879Y-126197241D01*
X106127345Y-126082870D01*
X106331156Y-125934793D01*
X106509293Y-125756656D01*
X106657370Y-125552845D01*
X106771741Y-125328379D01*
X106849590Y-125088785D01*
X106889000Y-124839962D01*
X106889000Y-124588038D01*
X106859300Y-124400522D01*
X106849590Y-124339214D01*
X106822141Y-124254735D01*
X106771741Y-124099621D01*
X106657370Y-123875155D01*
X106589733Y-123782060D01*
X106566254Y-123716257D01*
X106582079Y-123648203D01*
X106602371Y-123621495D01*
X106607150Y-123616715D01*
X106607156Y-123616712D01*
X106731212Y-123492656D01*
X106823314Y-123343335D01*
X106878499Y-123176798D01*
X106889000Y-123074010D01*
X106889000Y-121273990D01*
X106878499Y-121171202D01*
X106823314Y-121004665D01*
X106731212Y-120855344D01*
X106607156Y-120731288D01*
X106514390Y-120674070D01*
X106457837Y-120639187D01*
X106457832Y-120639185D01*
X106456363Y-120638698D01*
X106291298Y-120584001D01*
X106291296Y-120584000D01*
X106188517Y-120573500D01*
X106188510Y-120573500D01*
X104388490Y-120573500D01*
X104388482Y-120573500D01*
X104285703Y-120584000D01*
X104285702Y-120584001D01*
X104203169Y-120611349D01*
X104119167Y-120639185D01*
X104119162Y-120639187D01*
X103969842Y-120731289D01*
X103845789Y-120855342D01*
X103753687Y-121004662D01*
X103753686Y-121004665D01*
X103698501Y-121171202D01*
X103698501Y-121171203D01*
X103698500Y-121171203D01*
X103688000Y-121273982D01*
X103688000Y-121730424D01*
X103668315Y-121797463D01*
X103615511Y-121843218D01*
X103546353Y-121853162D01*
X103482797Y-121824137D01*
X103460898Y-121799315D01*
X103370289Y-121663711D01*
X103370286Y-121663707D01*
X103258792Y-121552213D01*
X103258788Y-121552210D01*
X103127685Y-121464609D01*
X103127672Y-121464602D01*
X102982001Y-121404264D01*
X102981989Y-121404261D01*
X102827345Y-121373500D01*
X102827342Y-121373500D01*
X102669658Y-121373500D01*
X102669655Y-121373500D01*
X102515010Y-121404261D01*
X102514998Y-121404264D01*
X102369327Y-121464602D01*
X102369314Y-121464609D01*
X102300891Y-121510329D01*
X102234214Y-121531207D01*
X102166833Y-121512723D01*
X102120143Y-121460744D01*
X102108000Y-121407227D01*
X102108000Y-117860772D01*
X102127685Y-117793733D01*
X102180489Y-117747978D01*
X102249647Y-117738034D01*
X102300892Y-117757671D01*
X102369312Y-117803389D01*
X102369327Y-117803397D01*
X102507845Y-117860772D01*
X102515003Y-117863737D01*
X102669653Y-117894499D01*
X102669656Y-117894500D01*
X102669658Y-117894500D01*
X102827344Y-117894500D01*
X102827345Y-117894499D01*
X102981997Y-117863737D01*
X103127679Y-117803394D01*
X103258789Y-117715789D01*
X103370289Y-117604289D01*
X103457894Y-117473179D01*
X103485109Y-117407475D01*
X103528947Y-117353073D01*
X103595241Y-117331007D01*
X103662940Y-117348285D01*
X103710552Y-117399421D01*
X103722142Y-117435528D01*
X103727410Y-117468787D01*
X103805260Y-117708383D01*
X103919632Y-117932848D01*
X104067701Y-118136649D01*
X104067705Y-118136654D01*
X104245845Y-118314794D01*
X104245850Y-118314798D01*
X104317973Y-118367198D01*
X104449655Y-118462870D01*
X104569457Y-118523912D01*
X104674116Y-118577239D01*
X104674118Y-118577239D01*
X104674121Y-118577241D01*
X104913715Y-118655090D01*
X105162538Y-118694500D01*
X105162539Y-118694500D01*
X105414461Y-118694500D01*
X105414462Y-118694500D01*
X105663285Y-118655090D01*
X105902879Y-118577241D01*
X106127345Y-118462870D01*
X106331156Y-118314793D01*
X106509293Y-118136656D01*
X106657370Y-117932845D01*
X106771741Y-117708379D01*
X106849590Y-117468785D01*
X106889000Y-117219962D01*
X106889000Y-116968038D01*
X106849590Y-116719215D01*
X106771741Y-116479621D01*
X106771739Y-116479618D01*
X106771739Y-116479616D01*
X106680767Y-116301074D01*
X106657370Y-116255155D01*
X106589733Y-116162060D01*
X106566254Y-116096257D01*
X106582079Y-116028203D01*
X106602371Y-116001495D01*
X106607150Y-115996715D01*
X106607156Y-115996712D01*
X106731212Y-115872656D01*
X106823314Y-115723335D01*
X106878499Y-115556798D01*
X106889000Y-115454010D01*
X106889000Y-113653990D01*
X106878499Y-113551202D01*
X106823314Y-113384665D01*
X106731212Y-113235344D01*
X106607156Y-113111288D01*
X106514390Y-113054070D01*
X106457837Y-113019187D01*
X106457832Y-113019185D01*
X106456363Y-113018698D01*
X106291298Y-112964001D01*
X106291296Y-112964000D01*
X106188517Y-112953500D01*
X106188510Y-112953500D01*
X104388490Y-112953500D01*
X104388482Y-112953500D01*
X104285703Y-112964000D01*
X104285702Y-112964001D01*
X104203169Y-112991349D01*
X104119167Y-113019185D01*
X104119162Y-113019187D01*
X103969842Y-113111289D01*
X103845789Y-113235342D01*
X103753687Y-113384662D01*
X103753686Y-113384665D01*
X103698501Y-113551202D01*
X103698501Y-113551203D01*
X103698500Y-113551203D01*
X103688000Y-113653982D01*
X103688000Y-114110424D01*
X103668315Y-114177463D01*
X103615511Y-114223218D01*
X103546353Y-114233162D01*
X103482797Y-114204137D01*
X103460898Y-114179315D01*
X103370289Y-114043711D01*
X103370286Y-114043707D01*
X103258792Y-113932213D01*
X103258788Y-113932210D01*
X103127685Y-113844609D01*
X103127672Y-113844602D01*
X102982001Y-113784264D01*
X102981989Y-113784261D01*
X102827345Y-113753500D01*
X102827342Y-113753500D01*
X102669658Y-113753500D01*
X102669655Y-113753500D01*
X102515010Y-113784261D01*
X102514998Y-113784264D01*
X102369327Y-113844602D01*
X102369314Y-113844609D01*
X102300891Y-113890329D01*
X102234214Y-113911207D01*
X102166833Y-113892723D01*
X102120143Y-113840744D01*
X102108000Y-113787227D01*
X102108000Y-110240772D01*
X102127685Y-110173733D01*
X102180489Y-110127978D01*
X102249647Y-110118034D01*
X102300892Y-110137671D01*
X102369312Y-110183389D01*
X102369327Y-110183397D01*
X102507845Y-110240772D01*
X102515003Y-110243737D01*
X102669653Y-110274499D01*
X102669656Y-110274500D01*
X102669658Y-110274500D01*
X102827344Y-110274500D01*
X102827345Y-110274499D01*
X102981997Y-110243737D01*
X103127679Y-110183394D01*
X103258789Y-110095789D01*
X103370289Y-109984289D01*
X103457894Y-109853179D01*
X103485109Y-109787475D01*
X103528947Y-109733073D01*
X103595241Y-109711007D01*
X103662940Y-109728285D01*
X103710552Y-109779421D01*
X103722142Y-109815528D01*
X103727410Y-109848787D01*
X103805260Y-110088383D01*
X103853673Y-110183397D01*
X103901545Y-110277352D01*
X103919632Y-110312848D01*
X104067701Y-110516649D01*
X104067705Y-110516654D01*
X104245845Y-110694794D01*
X104245850Y-110694798D01*
X104414520Y-110817343D01*
X104449655Y-110842870D01*
X104592684Y-110915747D01*
X104674116Y-110957239D01*
X104674118Y-110957239D01*
X104674121Y-110957241D01*
X104913715Y-111035090D01*
X105162538Y-111074500D01*
X105162539Y-111074500D01*
X105414461Y-111074500D01*
X105414462Y-111074500D01*
X105663285Y-111035090D01*
X105902879Y-110957241D01*
X106127345Y-110842870D01*
X106331156Y-110694793D01*
X106509293Y-110516656D01*
X106657370Y-110312845D01*
X106771741Y-110088379D01*
X106849590Y-109848785D01*
X106889000Y-109599962D01*
X106889000Y-109348038D01*
X106849590Y-109099215D01*
X106771741Y-108859621D01*
X106771739Y-108859618D01*
X106771739Y-108859616D01*
X106692581Y-108704261D01*
X106657370Y-108635155D01*
X106589733Y-108542060D01*
X106566254Y-108476257D01*
X106582079Y-108408203D01*
X106602371Y-108381495D01*
X106607150Y-108376715D01*
X106607156Y-108376712D01*
X106731212Y-108252656D01*
X106823314Y-108103335D01*
X106878499Y-107936798D01*
X106889000Y-107834010D01*
X106889000Y-106033990D01*
X106878499Y-105931202D01*
X106823314Y-105764665D01*
X106731212Y-105615344D01*
X106607156Y-105491288D01*
X106457835Y-105399186D01*
X106291298Y-105344001D01*
X106291296Y-105344000D01*
X106188517Y-105333500D01*
X106188510Y-105333500D01*
X104388490Y-105333500D01*
X104388482Y-105333500D01*
X104285703Y-105344000D01*
X104285702Y-105344001D01*
X104203169Y-105371349D01*
X104119167Y-105399185D01*
X104119162Y-105399187D01*
X103969842Y-105491289D01*
X103845789Y-105615342D01*
X103753687Y-105764662D01*
X103753686Y-105764665D01*
X103698501Y-105931202D01*
X103698501Y-105931203D01*
X103698500Y-105931203D01*
X103688000Y-106033982D01*
X103688000Y-106490424D01*
X103668315Y-106557463D01*
X103615511Y-106603218D01*
X103546353Y-106613162D01*
X103482797Y-106584137D01*
X103460898Y-106559315D01*
X103370289Y-106423711D01*
X103370286Y-106423707D01*
X103258792Y-106312213D01*
X103258788Y-106312210D01*
X103127685Y-106224609D01*
X103127672Y-106224602D01*
X102982001Y-106164264D01*
X102981989Y-106164261D01*
X102827345Y-106133500D01*
X102827342Y-106133500D01*
X102669658Y-106133500D01*
X102669655Y-106133500D01*
X102515010Y-106164261D01*
X102514998Y-106164264D01*
X102369327Y-106224602D01*
X102369314Y-106224609D01*
X102300891Y-106270329D01*
X102234214Y-106291207D01*
X102166833Y-106272723D01*
X102120143Y-106220744D01*
X102108000Y-106167227D01*
X102108000Y-84231713D01*
X117800500Y-84231713D01*
X117800500Y-84444287D01*
X117833754Y-84654243D01*
X117861321Y-84739086D01*
X117899444Y-84856414D01*
X117995951Y-85045820D01*
X118120890Y-85217786D01*
X118271213Y-85368109D01*
X118443182Y-85493050D01*
X118451946Y-85497516D01*
X118502742Y-85545491D01*
X118519536Y-85613312D01*
X118496998Y-85679447D01*
X118451946Y-85718484D01*
X118443182Y-85722949D01*
X118271213Y-85847890D01*
X118120890Y-85998213D01*
X117995951Y-86170179D01*
X117899444Y-86359585D01*
X117833753Y-86561760D01*
X117822409Y-86633386D01*
X117800500Y-86771713D01*
X117800500Y-86984287D01*
X117804031Y-87006582D01*
X117833753Y-87194239D01*
X117899444Y-87396414D01*
X117995951Y-87585820D01*
X118120890Y-87757786D01*
X118271213Y-87908109D01*
X118443182Y-88033050D01*
X118451946Y-88037516D01*
X118502742Y-88085491D01*
X118519536Y-88153312D01*
X118496998Y-88219447D01*
X118451946Y-88258484D01*
X118443182Y-88262949D01*
X118271213Y-88387890D01*
X118120890Y-88538213D01*
X117995951Y-88710179D01*
X117899444Y-88899585D01*
X117833753Y-89101760D01*
X117833753Y-89101762D01*
X117800500Y-89311713D01*
X117800500Y-89524287D01*
X117833754Y-89734243D01*
X117886146Y-89895489D01*
X117899444Y-89936414D01*
X117995951Y-90125820D01*
X118120890Y-90297786D01*
X118271213Y-90448109D01*
X118443179Y-90573048D01*
X118443181Y-90573049D01*
X118443184Y-90573051D01*
X118632588Y-90669557D01*
X118834757Y-90735246D01*
X119044713Y-90768500D01*
X119044714Y-90768500D01*
X119257286Y-90768500D01*
X119257287Y-90768500D01*
X119467243Y-90735246D01*
X119669412Y-90669557D01*
X119858816Y-90573051D01*
X119908973Y-90536610D01*
X120030786Y-90448109D01*
X120030788Y-90448106D01*
X120030792Y-90448104D01*
X120181104Y-90297792D01*
X120181106Y-90297788D01*
X120181109Y-90297786D01*
X120306048Y-90125820D01*
X120306047Y-90125820D01*
X120306051Y-90125816D01*
X120402557Y-89936412D01*
X120468246Y-89734243D01*
X120501500Y-89524287D01*
X120501500Y-89311713D01*
X120468246Y-89101757D01*
X120454506Y-89059473D01*
X120452512Y-88989635D01*
X120484755Y-88933478D01*
X122757892Y-86660344D01*
X122819215Y-86626859D01*
X122845573Y-86624025D01*
X129363135Y-86624025D01*
X129430174Y-86643710D01*
X129475929Y-86696514D01*
X129485873Y-86765672D01*
X129473618Y-86804322D01*
X129467783Y-86815772D01*
X129404522Y-87010465D01*
X129372500Y-87212648D01*
X129372500Y-87417351D01*
X129404522Y-87619534D01*
X129409173Y-87633848D01*
X129411165Y-87703690D01*
X129378921Y-87759842D01*
X121424286Y-95714478D01*
X121312481Y-95826282D01*
X121312480Y-95826284D01*
X121271623Y-95897051D01*
X121233423Y-95963215D01*
X121192499Y-96115943D01*
X121192499Y-96115945D01*
X121192499Y-96284046D01*
X121192500Y-96284059D01*
X121192500Y-97581234D01*
X121172815Y-97648273D01*
X121171602Y-97650125D01*
X121083609Y-97781814D01*
X121083602Y-97781827D01*
X121023264Y-97927498D01*
X121023261Y-97927510D01*
X120992500Y-98082153D01*
X120992500Y-98239846D01*
X121023261Y-98394489D01*
X121023264Y-98394501D01*
X121083602Y-98540172D01*
X121083609Y-98540185D01*
X121171210Y-98671288D01*
X121171213Y-98671292D01*
X121282707Y-98782786D01*
X121282711Y-98782789D01*
X121413814Y-98870390D01*
X121413827Y-98870397D01*
X121491851Y-98902715D01*
X121559503Y-98930737D01*
X121714153Y-98961499D01*
X121714156Y-98961500D01*
X121714158Y-98961500D01*
X121871844Y-98961500D01*
X121871845Y-98961499D01*
X122026497Y-98930737D01*
X122172179Y-98870394D01*
X122303289Y-98782789D01*
X122414789Y-98671289D01*
X122502394Y-98540179D01*
X122508867Y-98524553D01*
X122521173Y-98494841D01*
X122562737Y-98394497D01*
X122593500Y-98239842D01*
X122593500Y-98082158D01*
X122593500Y-98082155D01*
X122593499Y-98082153D01*
X122562738Y-97927510D01*
X122562737Y-97927503D01*
X122551691Y-97900836D01*
X122531093Y-97851106D01*
X122523624Y-97781637D01*
X122554899Y-97719158D01*
X122614989Y-97683506D01*
X122621454Y-97682038D01*
X122627997Y-97680737D01*
X122773679Y-97620394D01*
X122904789Y-97532789D01*
X123016289Y-97421289D01*
X123103894Y-97290179D01*
X123164237Y-97144497D01*
X123195000Y-96989842D01*
X123195138Y-96989150D01*
X123227523Y-96927239D01*
X123229018Y-96925716D01*
X129482211Y-90672522D01*
X129543532Y-90639039D01*
X129613224Y-90644023D01*
X129669157Y-90685895D01*
X129670208Y-90687319D01*
X129681032Y-90702217D01*
X129825786Y-90846971D01*
X129991388Y-90967286D01*
X129991390Y-90967287D01*
X130077294Y-91011057D01*
X130128090Y-91059031D01*
X130144886Y-91126852D01*
X130122349Y-91192987D01*
X130079455Y-91230899D01*
X130013497Y-91266155D01*
X129944086Y-91312534D01*
X129944085Y-91312534D01*
X130543589Y-91912037D01*
X130480007Y-91929075D01*
X130365993Y-91994901D01*
X130272901Y-92087993D01*
X130207075Y-92202007D01*
X130190037Y-92265588D01*
X129590534Y-91666085D01*
X129590534Y-91666086D01*
X129544158Y-91735493D01*
X129497490Y-91822801D01*
X129437185Y-91968387D01*
X129408444Y-92063135D01*
X129377701Y-92217697D01*
X129377701Y-92217700D01*
X129368000Y-92316210D01*
X129368000Y-92473789D01*
X129377701Y-92572299D01*
X129377701Y-92572302D01*
X129408444Y-92726864D01*
X129437185Y-92821612D01*
X129497490Y-92967198D01*
X129544155Y-93054501D01*
X129544161Y-93054511D01*
X129590534Y-93123912D01*
X130190037Y-92524410D01*
X130207075Y-92587993D01*
X130272901Y-92702007D01*
X130365993Y-92795099D01*
X130480007Y-92860925D01*
X130543589Y-92877962D01*
X129944085Y-93477465D01*
X130013488Y-93523838D01*
X130013498Y-93523844D01*
X130079454Y-93559099D01*
X130129298Y-93608062D01*
X130144758Y-93676200D01*
X130120926Y-93741879D01*
X130077295Y-93778942D01*
X129991386Y-93822715D01*
X129825786Y-93943028D01*
X129681028Y-94087786D01*
X129560715Y-94253386D01*
X129467781Y-94435776D01*
X129404522Y-94630465D01*
X129372500Y-94832648D01*
X129372500Y-95037351D01*
X129404522Y-95239534D01*
X129467781Y-95434223D01*
X129560715Y-95616613D01*
X129681028Y-95782213D01*
X129825786Y-95926971D01*
X129964845Y-96028001D01*
X129991390Y-96047287D01*
X130082840Y-96093883D01*
X130084080Y-96094515D01*
X130134876Y-96142490D01*
X130151671Y-96210311D01*
X130129134Y-96276446D01*
X130084080Y-96315485D01*
X129991386Y-96362715D01*
X129825786Y-96483028D01*
X129681028Y-96627786D01*
X129560715Y-96793386D01*
X129467781Y-96975776D01*
X129404522Y-97170465D01*
X129372500Y-97372648D01*
X129372500Y-97577351D01*
X129404522Y-97779534D01*
X129467781Y-97974223D01*
X129522775Y-98082153D01*
X129559976Y-98155164D01*
X129560715Y-98156613D01*
X129681028Y-98322213D01*
X129825786Y-98466971D01*
X129980749Y-98579556D01*
X129991390Y-98587287D01*
X130082840Y-98633883D01*
X130084080Y-98634515D01*
X130134876Y-98682490D01*
X130151671Y-98750311D01*
X130129134Y-98816446D01*
X130084080Y-98855485D01*
X129991386Y-98902715D01*
X129825786Y-99023028D01*
X129681028Y-99167786D01*
X129560715Y-99333386D01*
X129467781Y-99515776D01*
X129404522Y-99710465D01*
X129372500Y-99912648D01*
X129372500Y-100117351D01*
X129404522Y-100319534D01*
X129467781Y-100514223D01*
X129560715Y-100696613D01*
X129681028Y-100862213D01*
X129683008Y-100864193D01*
X129683518Y-100865127D01*
X129684191Y-100865915D01*
X129684025Y-100866056D01*
X129716493Y-100925516D01*
X129711509Y-100995208D01*
X129683008Y-101039555D01*
X120306686Y-110415878D01*
X120194881Y-110527682D01*
X120194879Y-110527685D01*
X120144761Y-110614494D01*
X120144759Y-110614496D01*
X120115825Y-110664609D01*
X120115824Y-110664610D01*
X120107737Y-110694793D01*
X120074899Y-110817343D01*
X120074899Y-110817345D01*
X120074899Y-110985446D01*
X120074900Y-110985459D01*
X120074900Y-122000903D01*
X120055215Y-122067942D01*
X120038581Y-122088584D01*
X118755739Y-123371425D01*
X118694416Y-123404910D01*
X118692250Y-123405361D01*
X118536908Y-123436261D01*
X118536898Y-123436264D01*
X118391227Y-123496602D01*
X118391214Y-123496609D01*
X118260111Y-123584210D01*
X118260107Y-123584213D01*
X118148613Y-123695707D01*
X118148610Y-123695711D01*
X118061009Y-123826814D01*
X118061002Y-123826827D01*
X118000664Y-123972498D01*
X118000661Y-123972510D01*
X117969900Y-124127153D01*
X117969900Y-124284846D01*
X118000661Y-124439489D01*
X118000664Y-124439501D01*
X118061002Y-124585172D01*
X118061009Y-124585185D01*
X118148610Y-124716288D01*
X118148613Y-124716292D01*
X118260107Y-124827786D01*
X118260111Y-124827789D01*
X118391214Y-124915390D01*
X118391227Y-124915397D01*
X118518912Y-124968285D01*
X118536903Y-124975737D01*
X118691553Y-125006499D01*
X118691556Y-125006500D01*
X118691558Y-125006500D01*
X118849244Y-125006500D01*
X118849245Y-125006499D01*
X119003897Y-124975737D01*
X119149579Y-124915394D01*
X119280689Y-124827789D01*
X119392189Y-124716289D01*
X119479794Y-124585179D01*
X119540137Y-124439497D01*
X119560085Y-124339211D01*
X119571038Y-124284150D01*
X119603423Y-124222239D01*
X119604919Y-124220715D01*
X121044113Y-122781521D01*
X121044116Y-122781520D01*
X121155920Y-122669716D01*
X121206039Y-122582904D01*
X121234977Y-122532785D01*
X121275901Y-122380057D01*
X121275901Y-122221943D01*
X121275901Y-122214348D01*
X121275900Y-122214330D01*
X121275900Y-113065500D01*
X121295585Y-112998461D01*
X121348389Y-112952706D01*
X121399900Y-112941500D01*
X121541644Y-112941500D01*
X121541645Y-112941499D01*
X121696297Y-112910737D01*
X121841979Y-112850394D01*
X121973089Y-112762789D01*
X122084589Y-112651289D01*
X122172194Y-112520179D01*
X122232537Y-112374497D01*
X122263300Y-112219842D01*
X122263300Y-112062158D01*
X122263300Y-112062155D01*
X122235047Y-111920123D01*
X122241274Y-111850531D01*
X122268981Y-111808252D01*
X129156559Y-104920675D01*
X129217878Y-104887193D01*
X129287570Y-104892177D01*
X129343503Y-104934049D01*
X129367920Y-104999513D01*
X129368087Y-105014443D01*
X129368000Y-105016213D01*
X129368000Y-105173789D01*
X129377701Y-105272299D01*
X129377701Y-105272302D01*
X129408444Y-105426864D01*
X129437185Y-105521612D01*
X129497490Y-105667198D01*
X129544155Y-105754501D01*
X129544161Y-105754511D01*
X129590534Y-105823912D01*
X130190037Y-105224409D01*
X130207075Y-105287993D01*
X130272901Y-105402007D01*
X130365993Y-105495099D01*
X130480007Y-105560925D01*
X130543589Y-105577962D01*
X129944085Y-106177465D01*
X130013488Y-106223838D01*
X130013498Y-106223844D01*
X130079454Y-106259099D01*
X130129298Y-106308062D01*
X130144758Y-106376200D01*
X130120926Y-106441879D01*
X130077295Y-106478942D01*
X129991386Y-106522715D01*
X129825786Y-106643028D01*
X129681028Y-106787786D01*
X129560715Y-106953386D01*
X129467781Y-107135776D01*
X129404522Y-107330465D01*
X129372500Y-107532648D01*
X129372500Y-107737351D01*
X129404522Y-107939534D01*
X129467781Y-108134223D01*
X129560715Y-108316613D01*
X129681028Y-108482213D01*
X129825786Y-108626971D01*
X129980749Y-108739556D01*
X129991390Y-108747287D01*
X130082840Y-108793883D01*
X130084080Y-108794515D01*
X130134876Y-108842490D01*
X130151671Y-108910311D01*
X130129134Y-108976446D01*
X130084080Y-109015485D01*
X129991386Y-109062715D01*
X129825786Y-109183028D01*
X129681028Y-109327786D01*
X129560715Y-109493386D01*
X129467781Y-109675776D01*
X129404522Y-109870465D01*
X129372500Y-110072648D01*
X129372500Y-110277351D01*
X129404522Y-110479534D01*
X129467781Y-110674223D01*
X129531691Y-110799653D01*
X129540706Y-110817345D01*
X129560715Y-110856613D01*
X129681028Y-111022213D01*
X129825786Y-111166971D01*
X129980749Y-111279556D01*
X129991390Y-111287287D01*
X130082840Y-111333883D01*
X130084080Y-111334515D01*
X130134876Y-111382490D01*
X130151671Y-111450311D01*
X130129134Y-111516446D01*
X130084080Y-111555485D01*
X129991386Y-111602715D01*
X129825786Y-111723028D01*
X129681028Y-111867786D01*
X129560715Y-112033386D01*
X129467781Y-112215776D01*
X129404522Y-112410465D01*
X129372500Y-112612648D01*
X129372500Y-112817351D01*
X129404522Y-113019534D01*
X129467781Y-113214223D01*
X129531691Y-113339653D01*
X129554625Y-113384662D01*
X129560715Y-113396613D01*
X129681028Y-113562213D01*
X129825786Y-113706971D01*
X129980749Y-113819556D01*
X129991390Y-113827287D01*
X130082840Y-113873883D01*
X130084080Y-113874515D01*
X130134876Y-113922490D01*
X130151671Y-113990311D01*
X130129134Y-114056446D01*
X130084080Y-114095485D01*
X129991386Y-114142715D01*
X129825786Y-114263028D01*
X129681028Y-114407786D01*
X129560715Y-114573386D01*
X129467781Y-114755776D01*
X129404522Y-114950465D01*
X129372500Y-115152648D01*
X129372500Y-115357351D01*
X129404522Y-115559534D01*
X129467781Y-115754223D01*
X129560715Y-115936613D01*
X129681028Y-116102213D01*
X129825786Y-116246971D01*
X129991388Y-116367286D01*
X129991390Y-116367287D01*
X130077294Y-116411057D01*
X130128090Y-116459031D01*
X130144886Y-116526852D01*
X130122349Y-116592987D01*
X130079455Y-116630899D01*
X130013497Y-116666155D01*
X129944086Y-116712534D01*
X129944085Y-116712534D01*
X130543589Y-117312037D01*
X130480007Y-117329075D01*
X130365993Y-117394901D01*
X130272901Y-117487993D01*
X130207075Y-117602007D01*
X130190037Y-117665588D01*
X129590534Y-117066085D01*
X129590534Y-117066086D01*
X129544158Y-117135493D01*
X129497490Y-117222801D01*
X129437185Y-117368387D01*
X129408444Y-117463135D01*
X129377701Y-117617697D01*
X129377701Y-117617700D01*
X129368000Y-117716210D01*
X129368000Y-117873789D01*
X129377701Y-117972299D01*
X129377701Y-117972302D01*
X129408444Y-118126864D01*
X129437185Y-118221612D01*
X129497490Y-118367198D01*
X129544155Y-118454501D01*
X129544161Y-118454511D01*
X129590534Y-118523912D01*
X130190037Y-117924410D01*
X130207075Y-117987993D01*
X130272901Y-118102007D01*
X130365993Y-118195099D01*
X130480007Y-118260925D01*
X130543589Y-118277962D01*
X129944085Y-118877465D01*
X130013488Y-118923838D01*
X130013498Y-118923844D01*
X130079454Y-118959099D01*
X130129298Y-119008062D01*
X130144758Y-119076200D01*
X130120926Y-119141879D01*
X130077295Y-119178942D01*
X129991386Y-119222715D01*
X129825786Y-119343028D01*
X129681028Y-119487786D01*
X129560715Y-119653386D01*
X129467781Y-119835776D01*
X129404522Y-120030465D01*
X129372500Y-120232648D01*
X129372500Y-120437351D01*
X129404522Y-120639534D01*
X129467781Y-120834223D01*
X129531691Y-120959653D01*
X129554625Y-121004662D01*
X129560715Y-121016613D01*
X129681028Y-121182213D01*
X129825786Y-121326971D01*
X129980749Y-121439556D01*
X129991390Y-121447287D01*
X130082840Y-121493883D01*
X130084080Y-121494515D01*
X130134876Y-121542490D01*
X130151671Y-121610311D01*
X130129134Y-121676446D01*
X130084080Y-121715485D01*
X129991386Y-121762715D01*
X129825786Y-121883028D01*
X129681028Y-122027786D01*
X129560715Y-122193386D01*
X129467781Y-122375776D01*
X129404522Y-122570465D01*
X129372500Y-122772648D01*
X129372500Y-122977351D01*
X129404522Y-123179534D01*
X129467781Y-123374223D01*
X129560715Y-123556613D01*
X129681028Y-123722213D01*
X129825786Y-123866971D01*
X129971041Y-123972503D01*
X129991390Y-123987287D01*
X130072499Y-124028614D01*
X130173776Y-124080218D01*
X130173778Y-124080218D01*
X130173781Y-124080220D01*
X130248818Y-124104601D01*
X130368465Y-124143477D01*
X130468891Y-124159383D01*
X130570648Y-124175500D01*
X130570649Y-124175500D01*
X130775351Y-124175500D01*
X130775352Y-124175500D01*
X130977534Y-124143477D01*
X131172219Y-124080220D01*
X131354610Y-123987287D01*
X131508948Y-123875155D01*
X131520213Y-123866971D01*
X131520215Y-123866968D01*
X131520219Y-123866966D01*
X131664966Y-123722219D01*
X131664968Y-123722215D01*
X131664971Y-123722213D01*
X131738145Y-123621496D01*
X131785287Y-123556610D01*
X131878220Y-123374219D01*
X131941477Y-123179534D01*
X131973500Y-122977352D01*
X131973500Y-122772648D01*
X131953292Y-122645061D01*
X131941477Y-122570465D01*
X131878218Y-122375776D01*
X131815579Y-122252842D01*
X131785287Y-122193390D01*
X131777556Y-122182749D01*
X131664971Y-122027786D01*
X131520213Y-121883028D01*
X131354614Y-121762715D01*
X131291239Y-121730424D01*
X131261917Y-121715483D01*
X131211123Y-121667511D01*
X131194328Y-121599690D01*
X131216865Y-121533555D01*
X131261917Y-121494516D01*
X131354610Y-121447287D01*
X131375770Y-121431913D01*
X131520213Y-121326971D01*
X131520215Y-121326968D01*
X131520219Y-121326966D01*
X131664966Y-121182219D01*
X131664968Y-121182215D01*
X131664971Y-121182213D01*
X131717732Y-121109590D01*
X131785287Y-121016610D01*
X131878220Y-120834219D01*
X131941477Y-120639534D01*
X131973500Y-120437352D01*
X131973500Y-120232648D01*
X131941477Y-120030466D01*
X131878220Y-119835781D01*
X131878218Y-119835778D01*
X131878218Y-119835776D01*
X131844503Y-119769607D01*
X131785287Y-119653390D01*
X131777556Y-119642749D01*
X131664971Y-119487786D01*
X131520217Y-119343032D01*
X131443415Y-119287232D01*
X131400750Y-119231902D01*
X131394771Y-119162288D01*
X131427377Y-119100494D01*
X131485640Y-119066765D01*
X131506039Y-119061559D01*
X131562584Y-119038136D01*
X131562584Y-119038135D01*
X130802410Y-118277962D01*
X130865993Y-118260925D01*
X130980007Y-118195099D01*
X131073099Y-118102007D01*
X131138925Y-117987993D01*
X131155962Y-117924411D01*
X131916135Y-118684584D01*
X131916136Y-118684584D01*
X131939552Y-118628053D01*
X131957544Y-118577053D01*
X131977999Y-118434780D01*
X131978000Y-118434779D01*
X131978000Y-117155214D01*
X131975106Y-117101237D01*
X131975106Y-117101235D01*
X131939561Y-116961969D01*
X131939559Y-116961962D01*
X131916135Y-116905414D01*
X131155962Y-117665588D01*
X131138925Y-117602007D01*
X131073099Y-117487993D01*
X130980007Y-117394901D01*
X130865993Y-117329075D01*
X130802410Y-117312037D01*
X131562584Y-116551862D01*
X131506059Y-116528449D01*
X131506048Y-116528445D01*
X131477374Y-116518329D01*
X131420703Y-116477462D01*
X131395122Y-116412443D01*
X131408754Y-116343916D01*
X131445745Y-116301074D01*
X131520215Y-116246969D01*
X131520215Y-116246968D01*
X131520219Y-116246966D01*
X131664966Y-116102219D01*
X131664968Y-116102215D01*
X131664971Y-116102213D01*
X131738145Y-116001496D01*
X131785287Y-115936610D01*
X131878220Y-115754219D01*
X131881215Y-115745000D01*
X132463000Y-115745000D01*
X132463000Y-120084895D01*
X137115057Y-123697663D01*
X137155931Y-123754327D01*
X137163000Y-123795597D01*
X137163000Y-124745000D01*
X141963000Y-124745000D01*
X141963000Y-123795597D01*
X141982685Y-123728558D01*
X142010941Y-123697664D01*
X146265445Y-120393633D01*
X146330465Y-120368062D01*
X146398990Y-120381703D01*
X146449263Y-120430225D01*
X146465500Y-120491570D01*
X146465500Y-127715902D01*
X146445815Y-127782941D01*
X146429181Y-127803583D01*
X138161339Y-136071425D01*
X138100016Y-136104910D01*
X138097850Y-136105361D01*
X137942508Y-136136261D01*
X137942498Y-136136264D01*
X137796827Y-136196602D01*
X137796814Y-136196609D01*
X137665711Y-136284210D01*
X137665707Y-136284213D01*
X137554213Y-136395707D01*
X137554210Y-136395711D01*
X137466609Y-136526814D01*
X137466602Y-136526827D01*
X137406264Y-136672498D01*
X137406261Y-136672510D01*
X137379571Y-136806691D01*
X137347186Y-136868602D01*
X137286471Y-136903176D01*
X137257954Y-136906500D01*
X136808046Y-136906500D01*
X136741007Y-136886815D01*
X136695252Y-136834011D01*
X136686429Y-136806691D01*
X136659738Y-136672510D01*
X136659737Y-136672503D01*
X136659735Y-136672498D01*
X136599397Y-136526827D01*
X136599390Y-136526814D01*
X136511789Y-136395711D01*
X136511786Y-136395707D01*
X136400292Y-136284213D01*
X136400288Y-136284210D01*
X136269185Y-136196609D01*
X136269172Y-136196602D01*
X136123501Y-136136264D01*
X136123489Y-136136261D01*
X135968845Y-136105500D01*
X135968842Y-136105500D01*
X135811158Y-136105500D01*
X135811155Y-136105500D01*
X135656510Y-136136261D01*
X135656498Y-136136264D01*
X135510827Y-136196602D01*
X135510814Y-136196609D01*
X135379711Y-136284210D01*
X135379707Y-136284213D01*
X135268213Y-136395707D01*
X135268210Y-136395711D01*
X135180609Y-136526814D01*
X135180602Y-136526827D01*
X135120264Y-136672498D01*
X135120261Y-136672510D01*
X135089500Y-136827153D01*
X135089500Y-136984846D01*
X135120261Y-137139489D01*
X135120264Y-137139501D01*
X135180602Y-137285172D01*
X135180609Y-137285185D01*
X135268210Y-137416288D01*
X135268213Y-137416292D01*
X135379707Y-137527786D01*
X135379711Y-137527789D01*
X135510814Y-137615390D01*
X135510827Y-137615397D01*
X135656498Y-137675735D01*
X135656503Y-137675737D01*
X135721147Y-137688595D01*
X135811849Y-137706638D01*
X135828605Y-137715402D01*
X135847085Y-137719423D01*
X135872123Y-137738167D01*
X135873760Y-137739023D01*
X135875339Y-137740574D01*
X136006139Y-137871374D01*
X136006149Y-137871385D01*
X136010479Y-137875715D01*
X136010480Y-137875716D01*
X136122284Y-137987520D01*
X136122286Y-137987521D01*
X136122290Y-137987524D01*
X136259209Y-138066573D01*
X136259216Y-138066577D01*
X136371019Y-138096534D01*
X136411942Y-138107500D01*
X136411943Y-138107500D01*
X138338274Y-138107500D01*
X138338290Y-138107501D01*
X138345886Y-138107501D01*
X138503997Y-138107501D01*
X138504000Y-138107501D01*
X138656728Y-138066577D01*
X138706847Y-138037639D01*
X138793659Y-137987520D01*
X138905463Y-137875716D01*
X138905463Y-137875714D01*
X138915671Y-137865507D01*
X138915673Y-137865504D01*
X140758466Y-136022711D01*
X154613500Y-136022711D01*
X154613500Y-136265288D01*
X154645161Y-136505785D01*
X154707947Y-136740104D01*
X154746845Y-136834011D01*
X154800776Y-136964212D01*
X154922064Y-137174289D01*
X154922066Y-137174292D01*
X154922067Y-137174293D01*
X155069733Y-137366736D01*
X155069739Y-137366743D01*
X155241256Y-137538260D01*
X155241262Y-137538265D01*
X155433711Y-137685936D01*
X155643788Y-137807224D01*
X155867900Y-137900054D01*
X156102211Y-137962838D01*
X156282586Y-137986584D01*
X156342711Y-137994500D01*
X156342712Y-137994500D01*
X156585289Y-137994500D01*
X156638315Y-137987519D01*
X156825789Y-137962838D01*
X157060100Y-137900054D01*
X157284212Y-137807224D01*
X157494289Y-137685936D01*
X157686738Y-137538265D01*
X157858265Y-137366738D01*
X158005936Y-137174289D01*
X158127224Y-136964212D01*
X158220054Y-136740100D01*
X158282838Y-136505789D01*
X158314500Y-136265288D01*
X158314500Y-136022712D01*
X158282838Y-135782211D01*
X158220054Y-135547900D01*
X158127224Y-135323788D01*
X158005936Y-135113711D01*
X157858265Y-134921262D01*
X157858260Y-134921256D01*
X157686743Y-134749739D01*
X157686736Y-134749733D01*
X157494293Y-134602067D01*
X157494292Y-134602066D01*
X157494289Y-134602064D01*
X157284212Y-134480776D01*
X157284205Y-134480773D01*
X157060104Y-134387947D01*
X156825785Y-134325161D01*
X156585289Y-134293500D01*
X156585288Y-134293500D01*
X156342712Y-134293500D01*
X156342711Y-134293500D01*
X156102214Y-134325161D01*
X155867895Y-134387947D01*
X155643794Y-134480773D01*
X155643785Y-134480777D01*
X155433706Y-134602067D01*
X155241263Y-134749733D01*
X155241256Y-134749739D01*
X155069739Y-134921256D01*
X155069733Y-134921263D01*
X154922067Y-135113706D01*
X154800777Y-135323785D01*
X154800773Y-135323794D01*
X154707947Y-135547895D01*
X154645161Y-135782214D01*
X154613500Y-136022711D01*
X140758466Y-136022711D01*
X148821713Y-127959464D01*
X148821716Y-127959463D01*
X148933520Y-127847659D01*
X148983639Y-127760847D01*
X149012577Y-127710728D01*
X149053500Y-127558001D01*
X149053500Y-127399886D01*
X149053500Y-124104601D01*
X149073185Y-124037562D01*
X149121206Y-123994116D01*
X149134610Y-123987287D01*
X149300219Y-123866966D01*
X149444966Y-123722219D01*
X149444968Y-123722215D01*
X149444971Y-123722213D01*
X149518145Y-123621496D01*
X149565287Y-123556610D01*
X149658220Y-123374219D01*
X149721477Y-123179534D01*
X149753500Y-122977352D01*
X149753500Y-122772648D01*
X149733292Y-122645061D01*
X149721477Y-122570465D01*
X149658218Y-122375776D01*
X149595579Y-122252842D01*
X149565287Y-122193390D01*
X149557556Y-122182749D01*
X149444971Y-122027786D01*
X149300213Y-121883028D01*
X149134614Y-121762715D01*
X149071239Y-121730424D01*
X149041917Y-121715483D01*
X148991123Y-121667511D01*
X148974328Y-121599690D01*
X148996865Y-121533555D01*
X149041917Y-121494516D01*
X149134610Y-121447287D01*
X149155770Y-121431913D01*
X149300213Y-121326971D01*
X149300215Y-121326968D01*
X149300219Y-121326966D01*
X149444966Y-121182219D01*
X149444968Y-121182215D01*
X149444971Y-121182213D01*
X149497732Y-121109590D01*
X149565287Y-121016610D01*
X149658220Y-120834219D01*
X149721477Y-120639534D01*
X149753500Y-120437352D01*
X149753500Y-120232648D01*
X149721477Y-120030466D01*
X149658220Y-119835781D01*
X149658218Y-119835778D01*
X149658218Y-119835776D01*
X149624503Y-119769607D01*
X149565287Y-119653390D01*
X149557556Y-119642749D01*
X149444971Y-119487786D01*
X149300213Y-119343028D01*
X149134614Y-119222715D01*
X149126410Y-119218535D01*
X149048703Y-119178941D01*
X148997908Y-119130968D01*
X148981113Y-119063147D01*
X149003650Y-118997012D01*
X149046546Y-118959099D01*
X149112503Y-118923843D01*
X149112515Y-118923837D01*
X149181913Y-118877465D01*
X148582410Y-118277962D01*
X148645993Y-118260925D01*
X148760007Y-118195099D01*
X148853099Y-118102007D01*
X148918925Y-117987993D01*
X148935962Y-117924410D01*
X149535465Y-118523913D01*
X149581837Y-118454515D01*
X149581838Y-118454511D01*
X149628509Y-118367198D01*
X149688814Y-118221612D01*
X149717555Y-118126864D01*
X149748298Y-117972302D01*
X149748298Y-117972299D01*
X149758000Y-117873789D01*
X149758000Y-117716210D01*
X149748298Y-117617700D01*
X149748298Y-117617697D01*
X149717555Y-117463135D01*
X149688814Y-117368387D01*
X149628509Y-117222801D01*
X149581844Y-117135498D01*
X149581838Y-117135488D01*
X149535465Y-117066085D01*
X148935962Y-117665588D01*
X148918925Y-117602007D01*
X148853099Y-117487993D01*
X148760007Y-117394901D01*
X148645993Y-117329075D01*
X148582408Y-117312037D01*
X149181912Y-116712534D01*
X149112511Y-116666161D01*
X149112500Y-116666155D01*
X149046545Y-116630900D01*
X148996701Y-116581937D01*
X148981241Y-116513799D01*
X149005073Y-116448119D01*
X149048702Y-116411059D01*
X149134610Y-116367287D01*
X149288944Y-116255158D01*
X149300213Y-116246971D01*
X149300215Y-116246968D01*
X149300219Y-116246966D01*
X149444966Y-116102219D01*
X149444968Y-116102215D01*
X149444971Y-116102213D01*
X149518145Y-116001496D01*
X149565287Y-115936610D01*
X149658220Y-115754219D01*
X149721477Y-115559534D01*
X149753500Y-115357352D01*
X149753500Y-115152648D01*
X149733292Y-115025061D01*
X149721477Y-114950465D01*
X149658218Y-114755776D01*
X149595579Y-114632842D01*
X149565287Y-114573390D01*
X149557556Y-114562749D01*
X149444971Y-114407786D01*
X149300213Y-114263028D01*
X149134614Y-114142715D01*
X149071239Y-114110424D01*
X149041917Y-114095483D01*
X148991123Y-114047511D01*
X148974328Y-113979690D01*
X148996865Y-113913555D01*
X149041917Y-113874516D01*
X149134610Y-113827287D01*
X149155770Y-113811913D01*
X149300213Y-113706971D01*
X149300215Y-113706968D01*
X149300219Y-113706966D01*
X149444966Y-113562219D01*
X149444968Y-113562215D01*
X149444971Y-113562213D01*
X149497732Y-113489590D01*
X149565287Y-113396610D01*
X149658220Y-113214219D01*
X149721477Y-113019534D01*
X149753500Y-112817352D01*
X149753500Y-112612648D01*
X149721477Y-112410466D01*
X149709787Y-112374489D01*
X149692127Y-112320137D01*
X149658220Y-112215781D01*
X149658218Y-112215778D01*
X149658218Y-112215776D01*
X149624503Y-112149607D01*
X149565287Y-112033390D01*
X149557556Y-112022749D01*
X149444971Y-111867786D01*
X149300213Y-111723028D01*
X149134614Y-111602715D01*
X149128006Y-111599348D01*
X149041917Y-111555483D01*
X148991123Y-111507511D01*
X148974328Y-111439690D01*
X148996865Y-111373555D01*
X149041917Y-111334516D01*
X149134610Y-111287287D01*
X149155770Y-111271913D01*
X149300213Y-111166971D01*
X149300215Y-111166968D01*
X149300219Y-111166966D01*
X149444966Y-111022219D01*
X149444968Y-111022215D01*
X149444971Y-111022213D01*
X149497732Y-110949590D01*
X149565287Y-110856610D01*
X149658220Y-110674219D01*
X149721477Y-110479534D01*
X149753500Y-110277352D01*
X149753500Y-110072648D01*
X149721477Y-109870466D01*
X149714432Y-109848785D01*
X149676835Y-109733073D01*
X149658220Y-109675781D01*
X149658218Y-109675778D01*
X149658218Y-109675776D01*
X149595579Y-109552842D01*
X149565287Y-109493390D01*
X149557556Y-109482749D01*
X149444971Y-109327786D01*
X149300213Y-109183028D01*
X149134614Y-109062715D01*
X149128006Y-109059348D01*
X149041917Y-109015483D01*
X148991123Y-108967511D01*
X148974328Y-108899690D01*
X148996865Y-108833555D01*
X149041917Y-108794516D01*
X149134610Y-108747287D01*
X149155770Y-108731913D01*
X149300213Y-108626971D01*
X149300215Y-108626968D01*
X149300219Y-108626966D01*
X149444966Y-108482219D01*
X149444968Y-108482215D01*
X149444971Y-108482213D01*
X149518145Y-108381496D01*
X149565287Y-108316610D01*
X149658220Y-108134219D01*
X149721477Y-107939534D01*
X149753500Y-107737352D01*
X149753500Y-107532648D01*
X149733292Y-107405061D01*
X149721477Y-107330465D01*
X149658218Y-107135776D01*
X149595579Y-107012842D01*
X149565287Y-106953390D01*
X149557556Y-106942749D01*
X149444971Y-106787786D01*
X149300213Y-106643028D01*
X149134614Y-106522715D01*
X149071239Y-106490424D01*
X149048703Y-106478941D01*
X148997908Y-106430968D01*
X148981113Y-106363147D01*
X149003650Y-106297012D01*
X149046546Y-106259099D01*
X149112503Y-106223843D01*
X149112515Y-106223837D01*
X149181913Y-106177465D01*
X148582410Y-105577962D01*
X148645993Y-105560925D01*
X148760007Y-105495099D01*
X148853099Y-105402007D01*
X148918925Y-105287993D01*
X148935962Y-105224410D01*
X149535465Y-105823913D01*
X149581837Y-105754515D01*
X149581838Y-105754511D01*
X149628509Y-105667198D01*
X149688814Y-105521612D01*
X149717555Y-105426864D01*
X149748298Y-105272302D01*
X149748298Y-105272299D01*
X149758000Y-105173789D01*
X149758000Y-105016210D01*
X149748298Y-104917700D01*
X149748298Y-104917697D01*
X149717555Y-104763135D01*
X149688814Y-104668387D01*
X149628509Y-104522801D01*
X149581844Y-104435498D01*
X149581838Y-104435488D01*
X149535465Y-104366085D01*
X148935962Y-104965588D01*
X148918925Y-104902007D01*
X148853099Y-104787993D01*
X148760007Y-104694901D01*
X148645993Y-104629075D01*
X148582410Y-104612037D01*
X149181912Y-104012534D01*
X149112511Y-103966161D01*
X149112500Y-103966155D01*
X149046545Y-103930900D01*
X148996701Y-103881937D01*
X148981241Y-103813799D01*
X149005073Y-103748119D01*
X149048702Y-103711059D01*
X149134610Y-103667287D01*
X149225745Y-103601074D01*
X149300213Y-103546971D01*
X149300215Y-103546968D01*
X149300219Y-103546966D01*
X149444966Y-103402219D01*
X149444968Y-103402215D01*
X149444971Y-103402213D01*
X149497732Y-103329590D01*
X149565287Y-103236610D01*
X149658220Y-103054219D01*
X149721477Y-102859534D01*
X149753500Y-102657352D01*
X149753500Y-102452648D01*
X149721477Y-102250466D01*
X149658220Y-102055781D01*
X149658218Y-102055778D01*
X149658218Y-102055776D01*
X149624503Y-101989607D01*
X149565287Y-101873390D01*
X149557556Y-101862749D01*
X149444971Y-101707786D01*
X149300213Y-101563028D01*
X149134614Y-101442715D01*
X149128006Y-101439348D01*
X149041917Y-101395483D01*
X148991123Y-101347511D01*
X148974328Y-101279690D01*
X148996865Y-101213555D01*
X149041917Y-101174516D01*
X149134610Y-101127287D01*
X149255364Y-101039555D01*
X149300213Y-101006971D01*
X149300215Y-101006968D01*
X149300219Y-101006966D01*
X149444966Y-100862219D01*
X149444968Y-100862215D01*
X149444971Y-100862213D01*
X149497732Y-100789590D01*
X149565287Y-100696610D01*
X149658220Y-100514219D01*
X149721477Y-100319534D01*
X149753500Y-100117352D01*
X149753500Y-99912648D01*
X149721477Y-99710466D01*
X149658220Y-99515781D01*
X149658218Y-99515778D01*
X149658218Y-99515776D01*
X149624503Y-99449607D01*
X149565287Y-99333390D01*
X149557556Y-99322749D01*
X149444971Y-99167786D01*
X149300213Y-99023028D01*
X149134614Y-98902715D01*
X149071180Y-98870394D01*
X149041917Y-98855483D01*
X149032765Y-98846840D01*
X149021099Y-98842105D01*
X149007846Y-98823305D01*
X148991123Y-98807511D01*
X148988096Y-98795288D01*
X148980842Y-98784998D01*
X148979856Y-98762016D01*
X148975357Y-98743845D01*
X154355706Y-98743845D01*
X154484652Y-98797257D01*
X154484656Y-98797258D01*
X154639202Y-98827999D01*
X154639206Y-98828000D01*
X154796794Y-98828000D01*
X154796797Y-98827999D01*
X154951343Y-98797258D01*
X154951347Y-98797257D01*
X155080293Y-98743845D01*
X155355706Y-98743845D01*
X155484652Y-98797257D01*
X155484656Y-98797258D01*
X155639202Y-98827999D01*
X155639206Y-98828000D01*
X155796794Y-98828000D01*
X155796797Y-98827999D01*
X155951343Y-98797258D01*
X155951347Y-98797257D01*
X156080293Y-98743845D01*
X156355706Y-98743845D01*
X156484652Y-98797257D01*
X156484656Y-98797258D01*
X156639202Y-98827999D01*
X156639206Y-98828000D01*
X156796794Y-98828000D01*
X156796797Y-98827999D01*
X156951343Y-98797258D01*
X156951347Y-98797257D01*
X157080293Y-98743845D01*
X157355706Y-98743845D01*
X157484652Y-98797257D01*
X157484656Y-98797258D01*
X157639202Y-98827999D01*
X157639206Y-98828000D01*
X157796794Y-98828000D01*
X157796797Y-98827999D01*
X157951343Y-98797258D01*
X157951347Y-98797257D01*
X158080293Y-98743845D01*
X158355706Y-98743845D01*
X158484652Y-98797257D01*
X158484656Y-98797258D01*
X158639202Y-98827999D01*
X158639206Y-98828000D01*
X158796794Y-98828000D01*
X158796797Y-98827999D01*
X158951343Y-98797258D01*
X158951347Y-98797257D01*
X159080293Y-98743845D01*
X158718001Y-98381553D01*
X158718000Y-98381553D01*
X158355706Y-98743845D01*
X158080293Y-98743845D01*
X157718001Y-98381553D01*
X157718000Y-98381553D01*
X157355706Y-98743845D01*
X157080293Y-98743845D01*
X156718001Y-98381553D01*
X156718000Y-98381553D01*
X156355706Y-98743845D01*
X156080293Y-98743845D01*
X155718001Y-98381553D01*
X155718000Y-98381553D01*
X155355706Y-98743845D01*
X155080293Y-98743845D01*
X154718001Y-98381553D01*
X154718000Y-98381553D01*
X154355706Y-98743845D01*
X148975357Y-98743845D01*
X148974328Y-98739690D01*
X148978389Y-98727772D01*
X148977850Y-98715193D01*
X148989445Y-98695327D01*
X148996865Y-98673555D01*
X149007567Y-98664280D01*
X149013072Y-98654851D01*
X149041916Y-98634516D01*
X149134610Y-98587287D01*
X149220957Y-98524553D01*
X149300213Y-98466971D01*
X149300215Y-98466968D01*
X149300219Y-98466966D01*
X149444966Y-98322219D01*
X149444968Y-98322215D01*
X149444971Y-98322213D01*
X149552329Y-98174445D01*
X149565287Y-98156610D01*
X149658220Y-97974219D01*
X149666349Y-97949202D01*
X153918000Y-97949202D01*
X153918000Y-98106797D01*
X153948741Y-98261343D01*
X153948743Y-98261351D01*
X154002153Y-98390293D01*
X154364446Y-98028001D01*
X154364446Y-98027999D01*
X154334610Y-97998163D01*
X154568000Y-97998163D01*
X154568000Y-98057837D01*
X154590836Y-98112968D01*
X154633032Y-98155164D01*
X154688163Y-98178000D01*
X154747837Y-98178000D01*
X154802968Y-98155164D01*
X154845164Y-98112968D01*
X154868000Y-98057837D01*
X154868000Y-98028000D01*
X155071553Y-98028000D01*
X155218000Y-98174446D01*
X155364446Y-98028000D01*
X155334609Y-97998163D01*
X155568000Y-97998163D01*
X155568000Y-98057837D01*
X155590836Y-98112968D01*
X155633032Y-98155164D01*
X155688163Y-98178000D01*
X155747837Y-98178000D01*
X155802968Y-98155164D01*
X155845164Y-98112968D01*
X155868000Y-98057837D01*
X155868000Y-98027999D01*
X156071553Y-98027999D01*
X156218000Y-98174445D01*
X156358255Y-98034189D01*
X156322229Y-97998163D01*
X156568000Y-97998163D01*
X156568000Y-98057837D01*
X156590836Y-98112968D01*
X156633032Y-98155164D01*
X156688163Y-98178000D01*
X156747837Y-98178000D01*
X156802968Y-98155164D01*
X156845164Y-98112968D01*
X156868000Y-98057837D01*
X156868000Y-98027999D01*
X157071553Y-98027999D01*
X157218000Y-98174446D01*
X157364446Y-98028000D01*
X157334609Y-97998163D01*
X157568000Y-97998163D01*
X157568000Y-98057837D01*
X157590836Y-98112968D01*
X157633032Y-98155164D01*
X157688163Y-98178000D01*
X157747837Y-98178000D01*
X157802968Y-98155164D01*
X157845164Y-98112968D01*
X157868000Y-98057837D01*
X157868000Y-98027999D01*
X158071553Y-98027999D01*
X158218000Y-98174446D01*
X158364446Y-98028001D01*
X158364446Y-98027999D01*
X158334610Y-97998163D01*
X158568000Y-97998163D01*
X158568000Y-98057837D01*
X158590836Y-98112968D01*
X158633032Y-98155164D01*
X158688163Y-98178000D01*
X158747837Y-98178000D01*
X158802968Y-98155164D01*
X158845164Y-98112968D01*
X158868000Y-98057837D01*
X158868000Y-97998163D01*
X158845164Y-97943032D01*
X158802968Y-97900836D01*
X158747837Y-97878000D01*
X158688163Y-97878000D01*
X158633032Y-97900836D01*
X158590836Y-97943032D01*
X158568000Y-97998163D01*
X158334610Y-97998163D01*
X158218000Y-97881553D01*
X158217999Y-97881553D01*
X158180513Y-97919040D01*
X158180512Y-97919042D01*
X158071553Y-98027999D01*
X157868000Y-98027999D01*
X157868000Y-97998163D01*
X157845164Y-97943032D01*
X157802968Y-97900836D01*
X157747837Y-97878000D01*
X157688163Y-97878000D01*
X157633032Y-97900836D01*
X157590836Y-97943032D01*
X157568000Y-97998163D01*
X157334609Y-97998163D01*
X157255487Y-97919041D01*
X157218000Y-97881553D01*
X157180513Y-97919041D01*
X157180512Y-97919042D01*
X157071553Y-98027999D01*
X156868000Y-98027999D01*
X156868000Y-97998163D01*
X156845164Y-97943032D01*
X156802968Y-97900836D01*
X156747837Y-97878000D01*
X156688163Y-97878000D01*
X156633032Y-97900836D01*
X156590836Y-97943032D01*
X156568000Y-97998163D01*
X156322229Y-97998163D01*
X156211809Y-97887744D01*
X156071553Y-98027999D01*
X155868000Y-98027999D01*
X155868000Y-97998163D01*
X155845164Y-97943032D01*
X155802968Y-97900836D01*
X155747837Y-97878000D01*
X155688163Y-97878000D01*
X155633032Y-97900836D01*
X155590836Y-97943032D01*
X155568000Y-97998163D01*
X155334609Y-97998163D01*
X155217999Y-97881553D01*
X155071553Y-98028000D01*
X154868000Y-98028000D01*
X154868000Y-97998163D01*
X154845164Y-97943032D01*
X154802968Y-97900836D01*
X154747837Y-97878000D01*
X154688163Y-97878000D01*
X154633032Y-97900836D01*
X154590836Y-97943032D01*
X154568000Y-97998163D01*
X154334610Y-97998163D01*
X154002153Y-97665705D01*
X153948743Y-97794648D01*
X153948741Y-97794656D01*
X153918000Y-97949202D01*
X149666349Y-97949202D01*
X149721477Y-97779534D01*
X149753500Y-97577352D01*
X149753500Y-97527999D01*
X154571553Y-97527999D01*
X154718000Y-97674446D01*
X154864446Y-97528000D01*
X154834609Y-97498163D01*
X155068000Y-97498163D01*
X155068000Y-97557837D01*
X155090836Y-97612968D01*
X155133032Y-97655164D01*
X155188163Y-97678000D01*
X155247837Y-97678000D01*
X155302968Y-97655164D01*
X155345164Y-97612968D01*
X155368000Y-97557837D01*
X155368000Y-97527999D01*
X155571553Y-97527999D01*
X155710089Y-97666535D01*
X155850346Y-97526280D01*
X155820510Y-97496444D01*
X156053900Y-97496444D01*
X156053900Y-97556118D01*
X156076736Y-97611249D01*
X156118932Y-97653445D01*
X156174063Y-97676281D01*
X156233737Y-97676281D01*
X156288868Y-97653445D01*
X156331064Y-97611249D01*
X156353900Y-97556118D01*
X156353900Y-97527999D01*
X156571553Y-97527999D01*
X156718000Y-97674446D01*
X156864446Y-97528000D01*
X156834609Y-97498163D01*
X157068000Y-97498163D01*
X157068000Y-97557837D01*
X157090836Y-97612968D01*
X157133032Y-97655164D01*
X157188163Y-97678000D01*
X157247837Y-97678000D01*
X157302968Y-97655164D01*
X157345164Y-97612968D01*
X157368000Y-97557837D01*
X157368000Y-97527999D01*
X157571553Y-97527999D01*
X157718000Y-97674446D01*
X157864446Y-97528000D01*
X157834609Y-97498163D01*
X158068000Y-97498163D01*
X158068000Y-97557837D01*
X158090836Y-97612968D01*
X158133032Y-97655164D01*
X158188163Y-97678000D01*
X158247837Y-97678000D01*
X158302968Y-97655164D01*
X158345164Y-97612968D01*
X158368000Y-97557837D01*
X158368000Y-97527999D01*
X158571553Y-97527999D01*
X158718000Y-97674446D01*
X158864446Y-97528001D01*
X158864446Y-97527999D01*
X158718000Y-97381553D01*
X158692614Y-97406940D01*
X158692612Y-97406942D01*
X158571553Y-97527999D01*
X158368000Y-97527999D01*
X158368000Y-97498163D01*
X158345164Y-97443032D01*
X158302968Y-97400836D01*
X158247837Y-97378000D01*
X158188163Y-97378000D01*
X158133032Y-97400836D01*
X158090836Y-97443032D01*
X158068000Y-97498163D01*
X157834609Y-97498163D01*
X157743388Y-97406942D01*
X157718000Y-97381553D01*
X157692614Y-97406940D01*
X157692612Y-97406942D01*
X157571553Y-97527999D01*
X157368000Y-97527999D01*
X157368000Y-97498163D01*
X157345164Y-97443032D01*
X157302968Y-97400836D01*
X157247837Y-97378000D01*
X157188163Y-97378000D01*
X157133032Y-97400836D01*
X157090836Y-97443032D01*
X157068000Y-97498163D01*
X156834609Y-97498163D01*
X156717999Y-97381553D01*
X156571553Y-97527999D01*
X156353900Y-97527999D01*
X156353900Y-97496444D01*
X156331064Y-97441313D01*
X156288868Y-97399117D01*
X156233737Y-97376281D01*
X156174063Y-97376281D01*
X156118932Y-97399117D01*
X156076736Y-97441313D01*
X156053900Y-97496444D01*
X155820510Y-97496444D01*
X155711809Y-97387743D01*
X155711809Y-97387744D01*
X155692614Y-97406940D01*
X155692612Y-97406942D01*
X155571553Y-97527999D01*
X155368000Y-97527999D01*
X155368000Y-97498163D01*
X155345164Y-97443032D01*
X155302968Y-97400836D01*
X155247837Y-97378000D01*
X155188163Y-97378000D01*
X155133032Y-97400836D01*
X155090836Y-97443032D01*
X155068000Y-97498163D01*
X154834609Y-97498163D01*
X154717999Y-97381553D01*
X154571553Y-97527999D01*
X149753500Y-97527999D01*
X149753500Y-97372648D01*
X149722670Y-97178000D01*
X149721477Y-97170465D01*
X149687444Y-97065723D01*
X149658220Y-96975781D01*
X149644677Y-96949202D01*
X153918000Y-96949202D01*
X153918000Y-97106797D01*
X153948741Y-97261343D01*
X153948743Y-97261351D01*
X154002153Y-97390293D01*
X154003490Y-97388957D01*
X154364446Y-97028001D01*
X154364446Y-97027999D01*
X154334610Y-96998163D01*
X154568000Y-96998163D01*
X154568000Y-97057837D01*
X154590836Y-97112968D01*
X154633032Y-97155164D01*
X154688163Y-97178000D01*
X154747837Y-97178000D01*
X154802968Y-97155164D01*
X154845164Y-97112968D01*
X154868000Y-97057837D01*
X154868000Y-97009569D01*
X155089983Y-97009569D01*
X155109277Y-97065723D01*
X155218000Y-97174446D01*
X155364446Y-97028000D01*
X155334609Y-96998163D01*
X155568000Y-96998163D01*
X155568000Y-97057837D01*
X155590836Y-97112968D01*
X155633032Y-97155164D01*
X155688163Y-97178000D01*
X155747837Y-97178000D01*
X155802968Y-97155164D01*
X155845164Y-97112968D01*
X155868000Y-97057837D01*
X155868000Y-97027999D01*
X156071553Y-97027999D01*
X156210090Y-97166536D01*
X156353673Y-97022952D01*
X156330234Y-96998163D01*
X156568000Y-96998163D01*
X156568000Y-97057837D01*
X156590836Y-97112968D01*
X156633032Y-97155164D01*
X156688163Y-97178000D01*
X156747837Y-97178000D01*
X156802968Y-97155164D01*
X156845164Y-97112968D01*
X156868000Y-97057837D01*
X156868000Y-97009569D01*
X157089983Y-97009569D01*
X157109277Y-97065723D01*
X157218000Y-97174446D01*
X157364446Y-97028000D01*
X157334609Y-96998163D01*
X157568000Y-96998163D01*
X157568000Y-97057837D01*
X157590836Y-97112968D01*
X157633032Y-97155164D01*
X157688163Y-97178000D01*
X157747837Y-97178000D01*
X157802968Y-97155164D01*
X157845164Y-97112968D01*
X157868000Y-97057837D01*
X157868000Y-97027999D01*
X158071553Y-97027999D01*
X158218000Y-97174446D01*
X158364446Y-97028000D01*
X158334609Y-96998163D01*
X158568000Y-96998163D01*
X158568000Y-97057837D01*
X158590836Y-97112968D01*
X158633032Y-97155164D01*
X158688163Y-97178000D01*
X158747837Y-97178000D01*
X158802968Y-97155164D01*
X158845164Y-97112968D01*
X158868000Y-97057837D01*
X158868000Y-96998163D01*
X158845164Y-96943032D01*
X158802968Y-96900836D01*
X158747837Y-96878000D01*
X158688163Y-96878000D01*
X158633032Y-96900836D01*
X158590836Y-96943032D01*
X158568000Y-96998163D01*
X158334609Y-96998163D01*
X158255487Y-96919041D01*
X158218000Y-96881553D01*
X158180513Y-96919041D01*
X158180512Y-96919042D01*
X158071553Y-97027999D01*
X157868000Y-97027999D01*
X157868000Y-96998163D01*
X157845164Y-96943032D01*
X157802968Y-96900836D01*
X157747837Y-96878000D01*
X157688163Y-96878000D01*
X157633032Y-96900836D01*
X157590836Y-96943032D01*
X157568000Y-96998163D01*
X157334609Y-96998163D01*
X157255487Y-96919041D01*
X157218000Y-96881553D01*
X157180513Y-96919041D01*
X157180512Y-96919042D01*
X157089983Y-97009569D01*
X156868000Y-97009569D01*
X156868000Y-96998163D01*
X156845164Y-96943032D01*
X156802968Y-96900836D01*
X156747837Y-96878000D01*
X156688163Y-96878000D01*
X156633032Y-96900836D01*
X156590836Y-96943032D01*
X156568000Y-96998163D01*
X156330234Y-96998163D01*
X156254249Y-96917803D01*
X156218000Y-96881553D01*
X156180513Y-96919041D01*
X156180512Y-96919042D01*
X156071553Y-97027999D01*
X155868000Y-97027999D01*
X155868000Y-96998163D01*
X155845164Y-96943032D01*
X155802968Y-96900836D01*
X155747837Y-96878000D01*
X155688163Y-96878000D01*
X155633032Y-96900836D01*
X155590836Y-96943032D01*
X155568000Y-96998163D01*
X155334609Y-96998163D01*
X155255487Y-96919041D01*
X155218000Y-96881553D01*
X155180513Y-96919041D01*
X155180512Y-96919042D01*
X155089983Y-97009569D01*
X154868000Y-97009569D01*
X154868000Y-96998163D01*
X154845164Y-96943032D01*
X154802968Y-96900836D01*
X154747837Y-96878000D01*
X154688163Y-96878000D01*
X154633032Y-96900836D01*
X154590836Y-96943032D01*
X154568000Y-96998163D01*
X154334610Y-96998163D01*
X154002153Y-96665705D01*
X153948743Y-96794648D01*
X153948741Y-96794656D01*
X153918000Y-96949202D01*
X149644677Y-96949202D01*
X149565287Y-96793390D01*
X149557556Y-96782749D01*
X149444971Y-96627786D01*
X149345184Y-96527999D01*
X154571553Y-96527999D01*
X154718000Y-96674446D01*
X154864445Y-96528000D01*
X154864446Y-96527999D01*
X154834610Y-96498163D01*
X155068000Y-96498163D01*
X155068000Y-96557837D01*
X155090836Y-96612968D01*
X155133032Y-96655164D01*
X155188163Y-96678000D01*
X155247837Y-96678000D01*
X155302968Y-96655164D01*
X155345164Y-96612968D01*
X155368000Y-96557837D01*
X155368000Y-96527999D01*
X155571553Y-96527999D01*
X155718000Y-96674446D01*
X155864446Y-96528000D01*
X155834609Y-96498163D01*
X156068000Y-96498163D01*
X156068000Y-96557837D01*
X156090836Y-96612968D01*
X156133032Y-96655164D01*
X156188163Y-96678000D01*
X156247837Y-96678000D01*
X156302968Y-96655164D01*
X156345164Y-96612968D01*
X156368000Y-96557837D01*
X156368000Y-96527999D01*
X156571553Y-96527999D01*
X156718000Y-96674446D01*
X156864446Y-96528000D01*
X156834609Y-96498163D01*
X157068000Y-96498163D01*
X157068000Y-96557837D01*
X157090836Y-96612968D01*
X157133032Y-96655164D01*
X157188163Y-96678000D01*
X157247837Y-96678000D01*
X157302968Y-96655164D01*
X157345164Y-96612968D01*
X157368000Y-96557837D01*
X157368000Y-96527999D01*
X157571553Y-96527999D01*
X157718000Y-96674446D01*
X157864446Y-96528000D01*
X157834609Y-96498163D01*
X158068000Y-96498163D01*
X158068000Y-96557837D01*
X158090836Y-96612968D01*
X158133032Y-96655164D01*
X158188163Y-96678000D01*
X158247837Y-96678000D01*
X158302968Y-96655164D01*
X158345164Y-96612968D01*
X158368000Y-96557837D01*
X158368000Y-96527999D01*
X158571553Y-96527999D01*
X158718000Y-96674446D01*
X158864446Y-96528000D01*
X158718000Y-96381553D01*
X158571553Y-96527999D01*
X158368000Y-96527999D01*
X158368000Y-96498163D01*
X158345164Y-96443032D01*
X158302968Y-96400836D01*
X158247837Y-96378000D01*
X158188163Y-96378000D01*
X158133032Y-96400836D01*
X158090836Y-96443032D01*
X158068000Y-96498163D01*
X157834609Y-96498163D01*
X157743388Y-96406942D01*
X157718000Y-96381553D01*
X157692614Y-96406940D01*
X157692612Y-96406942D01*
X157571553Y-96527999D01*
X157368000Y-96527999D01*
X157368000Y-96498163D01*
X157345164Y-96443032D01*
X157302968Y-96400836D01*
X157247837Y-96378000D01*
X157188163Y-96378000D01*
X157133032Y-96400836D01*
X157090836Y-96443032D01*
X157068000Y-96498163D01*
X156834609Y-96498163D01*
X156743388Y-96406942D01*
X156718000Y-96381553D01*
X156692614Y-96406940D01*
X156692612Y-96406942D01*
X156571553Y-96527999D01*
X156368000Y-96527999D01*
X156368000Y-96498163D01*
X156345164Y-96443032D01*
X156302968Y-96400836D01*
X156247837Y-96378000D01*
X156188163Y-96378000D01*
X156133032Y-96400836D01*
X156090836Y-96443032D01*
X156068000Y-96498163D01*
X155834609Y-96498163D01*
X155743388Y-96406942D01*
X155718000Y-96381553D01*
X155692614Y-96406940D01*
X155692612Y-96406942D01*
X155571553Y-96527999D01*
X155368000Y-96527999D01*
X155368000Y-96498163D01*
X155345164Y-96443032D01*
X155302968Y-96400836D01*
X155247837Y-96378000D01*
X155188163Y-96378000D01*
X155133032Y-96400836D01*
X155090836Y-96443032D01*
X155068000Y-96498163D01*
X154834610Y-96498163D01*
X154718000Y-96381553D01*
X154571553Y-96527999D01*
X149345184Y-96527999D01*
X149300213Y-96483028D01*
X149134614Y-96362715D01*
X149128006Y-96359348D01*
X149041917Y-96315483D01*
X148991123Y-96267511D01*
X148974328Y-96199690D01*
X148996865Y-96133555D01*
X149041917Y-96094516D01*
X149134610Y-96047287D01*
X149161155Y-96028001D01*
X149269614Y-95949202D01*
X153918000Y-95949202D01*
X153918000Y-96106797D01*
X153948741Y-96261343D01*
X153948743Y-96261351D01*
X154002153Y-96390293D01*
X154003490Y-96388957D01*
X154364446Y-96028001D01*
X154364446Y-96027999D01*
X154334610Y-95998163D01*
X154568000Y-95998163D01*
X154568000Y-96057837D01*
X154590836Y-96112968D01*
X154633032Y-96155164D01*
X154688163Y-96178000D01*
X154747837Y-96178000D01*
X154802968Y-96155164D01*
X154845164Y-96112968D01*
X154868000Y-96057837D01*
X154868000Y-96028000D01*
X155071553Y-96028000D01*
X155217998Y-96174446D01*
X155325299Y-96067145D01*
X155345627Y-96009182D01*
X155334608Y-95998163D01*
X155568000Y-95998163D01*
X155568000Y-96057837D01*
X155590836Y-96112968D01*
X155633032Y-96155164D01*
X155688163Y-96178000D01*
X155747837Y-96178000D01*
X155802968Y-96155164D01*
X155845164Y-96112968D01*
X155868000Y-96057837D01*
X155868000Y-96009180D01*
X156090371Y-96009180D01*
X156110703Y-96067149D01*
X156218000Y-96174446D01*
X156325299Y-96067146D01*
X156345627Y-96009182D01*
X156334608Y-95998163D01*
X156568000Y-95998163D01*
X156568000Y-96057837D01*
X156590836Y-96112968D01*
X156633032Y-96155164D01*
X156688163Y-96178000D01*
X156747837Y-96178000D01*
X156802968Y-96155164D01*
X156845164Y-96112968D01*
X156868000Y-96057837D01*
X156868000Y-96009180D01*
X157090371Y-96009180D01*
X157110703Y-96067149D01*
X157218000Y-96174446D01*
X157325299Y-96067146D01*
X157345627Y-96009182D01*
X157334608Y-95998163D01*
X157568000Y-95998163D01*
X157568000Y-96057837D01*
X157590836Y-96112968D01*
X157633032Y-96155164D01*
X157688163Y-96178000D01*
X157747837Y-96178000D01*
X157802968Y-96155164D01*
X157845164Y-96112968D01*
X157868000Y-96057837D01*
X157868000Y-96009180D01*
X158090371Y-96009180D01*
X158110703Y-96067149D01*
X158218000Y-96174446D01*
X158364446Y-96028000D01*
X158334609Y-95998163D01*
X158568000Y-95998163D01*
X158568000Y-96057837D01*
X158590836Y-96112968D01*
X158633032Y-96155164D01*
X158688163Y-96178000D01*
X158747837Y-96178000D01*
X158802968Y-96155164D01*
X158845164Y-96112968D01*
X158868000Y-96057837D01*
X158868000Y-95998163D01*
X158845164Y-95943032D01*
X158802968Y-95900836D01*
X158747837Y-95878000D01*
X158688163Y-95878000D01*
X158633032Y-95900836D01*
X158590836Y-95943032D01*
X158568000Y-95998163D01*
X158334609Y-95998163D01*
X158218000Y-95881553D01*
X158090371Y-96009180D01*
X157868000Y-96009180D01*
X157868000Y-95998163D01*
X157845164Y-95943032D01*
X157802968Y-95900836D01*
X157747837Y-95878000D01*
X157688163Y-95878000D01*
X157633032Y-95900836D01*
X157590836Y-95943032D01*
X157568000Y-95998163D01*
X157334608Y-95998163D01*
X157218000Y-95881553D01*
X157090371Y-96009180D01*
X156868000Y-96009180D01*
X156868000Y-95998163D01*
X156845164Y-95943032D01*
X156802968Y-95900836D01*
X156747837Y-95878000D01*
X156688163Y-95878000D01*
X156633032Y-95900836D01*
X156590836Y-95943032D01*
X156568000Y-95998163D01*
X156334608Y-95998163D01*
X156218000Y-95881553D01*
X156090371Y-96009180D01*
X155868000Y-96009180D01*
X155868000Y-95998163D01*
X155845164Y-95943032D01*
X155802968Y-95900836D01*
X155747837Y-95878000D01*
X155688163Y-95878000D01*
X155633032Y-95900836D01*
X155590836Y-95943032D01*
X155568000Y-95998163D01*
X155334608Y-95998163D01*
X155218000Y-95881553D01*
X155071553Y-96028000D01*
X154868000Y-96028000D01*
X154868000Y-95998163D01*
X154845164Y-95943032D01*
X154802968Y-95900836D01*
X154747837Y-95878000D01*
X154688163Y-95878000D01*
X154633032Y-95900836D01*
X154590836Y-95943032D01*
X154568000Y-95998163D01*
X154334610Y-95998163D01*
X154002153Y-95665705D01*
X153948743Y-95794648D01*
X153948741Y-95794656D01*
X153918000Y-95949202D01*
X149269614Y-95949202D01*
X149300213Y-95926971D01*
X149300215Y-95926968D01*
X149300219Y-95926966D01*
X149444966Y-95782219D01*
X149444968Y-95782215D01*
X149444971Y-95782213D01*
X149523267Y-95674446D01*
X149565287Y-95616610D01*
X149658220Y-95434219D01*
X149697882Y-95312153D01*
X154355705Y-95312153D01*
X154718000Y-95674446D01*
X154718001Y-95674446D01*
X155080293Y-95312153D01*
X155355705Y-95312153D01*
X155718000Y-95674446D01*
X155718001Y-95674446D01*
X156080293Y-95312153D01*
X156355705Y-95312153D01*
X156718000Y-95674446D01*
X156718001Y-95674446D01*
X157080293Y-95312153D01*
X157355705Y-95312153D01*
X157718000Y-95674446D01*
X157718001Y-95674446D01*
X158080293Y-95312153D01*
X158355705Y-95312153D01*
X158718000Y-95674446D01*
X158718001Y-95674446D01*
X159080293Y-95312153D01*
X158951351Y-95258743D01*
X158951343Y-95258741D01*
X158796797Y-95228000D01*
X158639202Y-95228000D01*
X158484656Y-95258741D01*
X158484648Y-95258743D01*
X158355705Y-95312153D01*
X158080293Y-95312153D01*
X157951351Y-95258743D01*
X157951343Y-95258741D01*
X157796797Y-95228000D01*
X157639202Y-95228000D01*
X157484656Y-95258741D01*
X157484648Y-95258743D01*
X157355705Y-95312153D01*
X157080293Y-95312153D01*
X156951351Y-95258743D01*
X156951343Y-95258741D01*
X156796797Y-95228000D01*
X156639202Y-95228000D01*
X156484656Y-95258741D01*
X156484648Y-95258743D01*
X156355705Y-95312153D01*
X156080293Y-95312153D01*
X155951351Y-95258743D01*
X155951343Y-95258741D01*
X155796797Y-95228000D01*
X155639202Y-95228000D01*
X155484656Y-95258741D01*
X155484648Y-95258743D01*
X155355705Y-95312153D01*
X155080293Y-95312153D01*
X154951351Y-95258743D01*
X154951343Y-95258741D01*
X154796797Y-95228000D01*
X154639202Y-95228000D01*
X154484656Y-95258741D01*
X154484648Y-95258743D01*
X154355705Y-95312153D01*
X149697882Y-95312153D01*
X149721477Y-95239534D01*
X149753500Y-95037352D01*
X149753500Y-94832648D01*
X149721477Y-94630466D01*
X149658220Y-94435781D01*
X149658218Y-94435778D01*
X149658218Y-94435776D01*
X149624503Y-94369607D01*
X149565287Y-94253390D01*
X149557556Y-94242749D01*
X149444971Y-94087786D01*
X149300213Y-93943028D01*
X149134614Y-93822715D01*
X149126410Y-93818535D01*
X149048703Y-93778941D01*
X148997908Y-93730968D01*
X148981113Y-93663147D01*
X149003650Y-93597012D01*
X149046546Y-93559099D01*
X149112503Y-93523843D01*
X149112515Y-93523837D01*
X149181913Y-93477465D01*
X148582410Y-92877962D01*
X148645993Y-92860925D01*
X148760007Y-92795099D01*
X148853099Y-92702007D01*
X148918925Y-92587993D01*
X148935962Y-92524410D01*
X149535465Y-93123913D01*
X149581837Y-93054515D01*
X149581838Y-93054511D01*
X149628509Y-92967198D01*
X149688814Y-92821612D01*
X149717555Y-92726864D01*
X149748298Y-92572302D01*
X149748298Y-92572299D01*
X149758000Y-92473789D01*
X149758000Y-92316210D01*
X149748298Y-92217700D01*
X149748298Y-92217697D01*
X149717555Y-92063135D01*
X149688814Y-91968387D01*
X149628509Y-91822801D01*
X149581844Y-91735498D01*
X149581838Y-91735488D01*
X149535465Y-91666085D01*
X148935962Y-92265588D01*
X148918925Y-92202007D01*
X148853099Y-92087993D01*
X148760007Y-91994901D01*
X148645993Y-91929075D01*
X148582410Y-91912037D01*
X149181912Y-91312534D01*
X149112511Y-91266161D01*
X149112500Y-91266155D01*
X149046545Y-91230900D01*
X148996701Y-91181937D01*
X148981241Y-91113799D01*
X149005073Y-91048119D01*
X149048702Y-91011059D01*
X149134610Y-90967287D01*
X149233416Y-90895501D01*
X149300213Y-90846971D01*
X149300215Y-90846968D01*
X149300219Y-90846966D01*
X149444966Y-90702219D01*
X149444968Y-90702215D01*
X149444971Y-90702213D01*
X149531468Y-90583158D01*
X149565287Y-90536610D01*
X149658220Y-90354219D01*
X149721477Y-90159534D01*
X149753500Y-89957352D01*
X149753500Y-89752648D01*
X149721477Y-89550466D01*
X149658220Y-89355781D01*
X149658218Y-89355778D01*
X149658218Y-89355776D01*
X149594585Y-89230891D01*
X149565287Y-89173390D01*
X149513247Y-89101762D01*
X149444971Y-89007786D01*
X149300213Y-88863028D01*
X149134614Y-88742715D01*
X149070768Y-88710184D01*
X149041917Y-88695483D01*
X148991123Y-88647511D01*
X148974328Y-88579690D01*
X148996865Y-88513555D01*
X149041917Y-88474516D01*
X149134610Y-88427287D01*
X149188836Y-88387890D01*
X149300213Y-88306971D01*
X149300215Y-88306968D01*
X149300219Y-88306966D01*
X149444966Y-88162219D01*
X149444968Y-88162215D01*
X149444971Y-88162213D01*
X149500712Y-88085491D01*
X149565287Y-87996610D01*
X149658220Y-87814219D01*
X149721477Y-87619534D01*
X149753500Y-87417352D01*
X149753500Y-87212648D01*
X149750584Y-87194239D01*
X149721477Y-87010465D01*
X149658218Y-86815776D01*
X149597450Y-86696514D01*
X149565287Y-86633390D01*
X149513247Y-86561762D01*
X149444971Y-86467786D01*
X149300213Y-86323028D01*
X149134614Y-86202715D01*
X149070768Y-86170184D01*
X149041917Y-86155483D01*
X148991123Y-86107511D01*
X148974328Y-86039690D01*
X148996865Y-85973555D01*
X149041917Y-85934516D01*
X149134610Y-85887287D01*
X149188836Y-85847890D01*
X149300213Y-85766971D01*
X149300215Y-85766968D01*
X149300219Y-85766966D01*
X149444966Y-85622219D01*
X149444968Y-85622215D01*
X149444971Y-85622213D01*
X149502518Y-85543005D01*
X149565287Y-85456610D01*
X149658220Y-85274219D01*
X149721477Y-85079534D01*
X149753500Y-84877352D01*
X149753500Y-84672648D01*
X149721477Y-84470466D01*
X149720215Y-84466583D01*
X149664296Y-84294481D01*
X149658220Y-84275781D01*
X149658218Y-84275778D01*
X149658218Y-84275776D01*
X149624503Y-84209607D01*
X149565287Y-84093390D01*
X149545195Y-84065735D01*
X149444971Y-83927786D01*
X149300213Y-83783028D01*
X149134614Y-83662715D01*
X149070768Y-83630184D01*
X149041917Y-83615483D01*
X148991123Y-83567511D01*
X148974328Y-83499690D01*
X148996865Y-83433555D01*
X149041917Y-83394516D01*
X149134610Y-83347287D01*
X149177631Y-83316031D01*
X149300213Y-83226971D01*
X149300215Y-83226968D01*
X149300219Y-83226966D01*
X149444966Y-83082219D01*
X149444968Y-83082215D01*
X149444971Y-83082213D01*
X149565129Y-82916827D01*
X149565287Y-82916610D01*
X149658220Y-82734219D01*
X149721477Y-82539534D01*
X149753500Y-82337352D01*
X149753500Y-82132648D01*
X149721477Y-81930466D01*
X149717045Y-81916827D01*
X149658218Y-81735776D01*
X149591587Y-81605007D01*
X149565287Y-81553390D01*
X149547922Y-81529489D01*
X149444971Y-81387786D01*
X149300213Y-81243028D01*
X149134614Y-81122715D01*
X149126410Y-81118535D01*
X149048703Y-81078941D01*
X148997908Y-81030968D01*
X148981113Y-80963147D01*
X149003650Y-80897012D01*
X149046546Y-80859099D01*
X149112503Y-80823843D01*
X149112515Y-80823837D01*
X149181913Y-80777465D01*
X148582410Y-80177962D01*
X148645993Y-80160925D01*
X148760007Y-80095099D01*
X148853099Y-80002007D01*
X148918925Y-79887993D01*
X148935962Y-79824410D01*
X149535465Y-80423913D01*
X149581837Y-80354515D01*
X149581838Y-80354511D01*
X149628509Y-80267198D01*
X149688814Y-80121612D01*
X149717555Y-80026864D01*
X149748298Y-79872302D01*
X149748298Y-79872299D01*
X149758000Y-79773789D01*
X149758000Y-79616210D01*
X149748298Y-79517700D01*
X149748298Y-79517697D01*
X149717555Y-79363135D01*
X149688814Y-79268387D01*
X149628509Y-79122801D01*
X149581844Y-79035498D01*
X149581838Y-79035488D01*
X149535465Y-78966085D01*
X148935962Y-79565588D01*
X148918925Y-79502007D01*
X148853099Y-79387993D01*
X148760007Y-79294901D01*
X148645993Y-79229075D01*
X148582410Y-79212037D01*
X149181912Y-78612534D01*
X149112511Y-78566161D01*
X149112500Y-78566155D01*
X149046545Y-78530900D01*
X148996701Y-78481937D01*
X148981241Y-78413799D01*
X149005073Y-78348119D01*
X149048702Y-78311059D01*
X149134610Y-78267287D01*
X149225745Y-78201074D01*
X149300213Y-78146971D01*
X149300215Y-78146968D01*
X149300219Y-78146966D01*
X149444966Y-78002219D01*
X149444968Y-78002215D01*
X149444971Y-78002213D01*
X149542834Y-77867514D01*
X149565287Y-77836610D01*
X149658220Y-77654219D01*
X149721477Y-77459534D01*
X149753500Y-77257352D01*
X149753500Y-77052648D01*
X149746620Y-77009210D01*
X149721477Y-76850465D01*
X149692127Y-76760137D01*
X149658220Y-76655781D01*
X149658218Y-76655778D01*
X149658218Y-76655776D01*
X149624503Y-76589607D01*
X149565287Y-76473390D01*
X149535255Y-76432054D01*
X149444971Y-76307786D01*
X149300213Y-76163028D01*
X149134614Y-76042715D01*
X149128006Y-76039348D01*
X149041917Y-75995483D01*
X148991123Y-75947511D01*
X148974328Y-75879690D01*
X148996865Y-75813555D01*
X149041917Y-75774516D01*
X149134610Y-75727287D01*
X149240733Y-75650185D01*
X149300213Y-75606971D01*
X149300215Y-75606968D01*
X149300219Y-75606966D01*
X149444966Y-75462219D01*
X149444968Y-75462215D01*
X149444971Y-75462213D01*
X149532170Y-75342192D01*
X149565287Y-75296610D01*
X149658220Y-75114219D01*
X149721477Y-74919534D01*
X149753500Y-74717352D01*
X149753500Y-74554711D01*
X154613500Y-74554711D01*
X154613500Y-74797288D01*
X154629593Y-74919534D01*
X154645162Y-75037789D01*
X154651447Y-75061243D01*
X154707947Y-75272104D01*
X154800773Y-75496205D01*
X154800776Y-75496212D01*
X154922064Y-75706289D01*
X154922066Y-75706292D01*
X154922067Y-75706293D01*
X155069733Y-75898736D01*
X155069739Y-75898743D01*
X155241256Y-76070260D01*
X155241262Y-76070265D01*
X155433711Y-76217936D01*
X155643788Y-76339224D01*
X155867900Y-76432054D01*
X156102211Y-76494838D01*
X156282586Y-76518584D01*
X156342711Y-76526500D01*
X156342712Y-76526500D01*
X156585289Y-76526500D01*
X156633388Y-76520167D01*
X156825789Y-76494838D01*
X157060100Y-76432054D01*
X157284212Y-76339224D01*
X157494289Y-76217936D01*
X157686738Y-76070265D01*
X157858265Y-75898738D01*
X158005936Y-75706289D01*
X158127224Y-75496212D01*
X158220054Y-75272100D01*
X158282838Y-75037789D01*
X158314500Y-74797288D01*
X158314500Y-74554712D01*
X158282838Y-74314211D01*
X158220054Y-74079900D01*
X158127224Y-73855788D01*
X158005936Y-73645711D01*
X157858265Y-73453262D01*
X157858260Y-73453256D01*
X157686743Y-73281739D01*
X157686736Y-73281733D01*
X157494293Y-73134067D01*
X157494292Y-73134066D01*
X157494289Y-73134064D01*
X157284212Y-73012776D01*
X157284205Y-73012773D01*
X157060104Y-72919947D01*
X156825785Y-72857161D01*
X156585289Y-72825500D01*
X156585288Y-72825500D01*
X156342712Y-72825500D01*
X156342711Y-72825500D01*
X156102214Y-72857161D01*
X155867895Y-72919947D01*
X155643794Y-73012773D01*
X155643785Y-73012777D01*
X155433706Y-73134067D01*
X155241263Y-73281733D01*
X155241256Y-73281739D01*
X155069739Y-73453256D01*
X155069733Y-73453263D01*
X154922067Y-73645706D01*
X154800777Y-73855785D01*
X154800773Y-73855794D01*
X154707947Y-74079895D01*
X154645161Y-74314214D01*
X154613500Y-74554711D01*
X149753500Y-74554711D01*
X149753500Y-74512648D01*
X149721477Y-74310466D01*
X149658220Y-74115781D01*
X149658218Y-74115778D01*
X149658218Y-74115776D01*
X149600768Y-74003026D01*
X149565287Y-73933390D01*
X149557556Y-73922749D01*
X149444971Y-73767786D01*
X149300213Y-73623028D01*
X149134613Y-73502715D01*
X149134612Y-73502714D01*
X149134610Y-73502713D01*
X149049855Y-73459528D01*
X148952223Y-73409781D01*
X148757534Y-73346522D01*
X148582995Y-73318878D01*
X148555352Y-73314500D01*
X148350648Y-73314500D01*
X148326329Y-73318351D01*
X148148465Y-73346522D01*
X147953776Y-73409781D01*
X147771386Y-73502715D01*
X147605786Y-73623028D01*
X147461028Y-73767786D01*
X147340715Y-73933386D01*
X147247781Y-74115776D01*
X147184522Y-74310465D01*
X147152500Y-74512648D01*
X147152500Y-74717351D01*
X147184522Y-74919534D01*
X147247781Y-75114223D01*
X147311691Y-75239653D01*
X147327976Y-75271613D01*
X147340715Y-75296613D01*
X147461028Y-75462213D01*
X147605786Y-75606971D01*
X147742488Y-75706289D01*
X147771390Y-75727287D01*
X147856139Y-75770469D01*
X147864080Y-75774515D01*
X147914876Y-75822490D01*
X147931671Y-75890311D01*
X147909134Y-75956446D01*
X147864080Y-75995485D01*
X147771386Y-76042715D01*
X147605786Y-76163028D01*
X147461028Y-76307786D01*
X147340715Y-76473386D01*
X147247781Y-76655776D01*
X147184522Y-76850465D01*
X147152500Y-77052648D01*
X147152500Y-77257351D01*
X147184522Y-77459534D01*
X147247781Y-77654223D01*
X147340715Y-77836613D01*
X147461028Y-78002213D01*
X147605782Y-78146967D01*
X147605787Y-78146971D01*
X147682583Y-78202767D01*
X147725249Y-78258097D01*
X147731228Y-78327710D01*
X147698622Y-78389505D01*
X147640365Y-78423233D01*
X147619973Y-78428437D01*
X147619962Y-78428441D01*
X147563415Y-78451863D01*
X148323589Y-79212037D01*
X148260007Y-79229075D01*
X148145993Y-79294901D01*
X148052901Y-79387993D01*
X147987075Y-79502007D01*
X147970037Y-79565589D01*
X147209863Y-78805415D01*
X147209862Y-78805415D01*
X147186446Y-78861947D01*
X147186431Y-78861987D01*
X147168457Y-78912939D01*
X147168455Y-78912946D01*
X147148000Y-79055219D01*
X147148000Y-80334785D01*
X147150893Y-80388762D01*
X147150893Y-80388764D01*
X147186438Y-80528030D01*
X147186442Y-80528043D01*
X147209862Y-80584584D01*
X147970037Y-79824410D01*
X147987075Y-79887993D01*
X148052901Y-80002007D01*
X148145993Y-80095099D01*
X148260007Y-80160925D01*
X148323589Y-80177962D01*
X147563414Y-80938135D01*
X147619960Y-80961557D01*
X147619986Y-80961567D01*
X147648621Y-80971669D01*
X147705294Y-81012534D01*
X147730876Y-81077552D01*
X147717246Y-81146080D01*
X147680256Y-81188924D01*
X147605782Y-81243032D01*
X147461028Y-81387786D01*
X147340715Y-81553386D01*
X147247781Y-81735776D01*
X147184522Y-81930465D01*
X147152500Y-82132648D01*
X147152500Y-82337351D01*
X147184522Y-82539534D01*
X147247781Y-82734223D01*
X147279259Y-82796000D01*
X147327198Y-82890086D01*
X147340715Y-82916613D01*
X147461028Y-83082213D01*
X147605786Y-83226971D01*
X147728369Y-83316031D01*
X147771390Y-83347287D01*
X147862840Y-83393883D01*
X147864080Y-83394515D01*
X147914876Y-83442490D01*
X147931671Y-83510311D01*
X147909134Y-83576446D01*
X147864080Y-83615485D01*
X147771386Y-83662715D01*
X147605786Y-83783028D01*
X147461028Y-83927786D01*
X147340715Y-84093386D01*
X147247781Y-84275776D01*
X147184522Y-84470465D01*
X147152500Y-84672648D01*
X147152500Y-84877351D01*
X147184522Y-85079534D01*
X147247781Y-85274223D01*
X147295617Y-85368104D01*
X147336320Y-85447989D01*
X147340715Y-85456613D01*
X147461028Y-85622213D01*
X147605786Y-85766971D01*
X147717164Y-85847890D01*
X147771390Y-85887287D01*
X147862840Y-85933883D01*
X147864080Y-85934515D01*
X147914876Y-85982490D01*
X147931671Y-86050311D01*
X147909134Y-86116446D01*
X147864080Y-86155485D01*
X147771386Y-86202715D01*
X147605786Y-86323028D01*
X147461028Y-86467786D01*
X147340715Y-86633386D01*
X147247781Y-86815776D01*
X147184522Y-87010465D01*
X147152500Y-87212648D01*
X147152500Y-87417351D01*
X147184522Y-87619534D01*
X147247781Y-87814223D01*
X147287544Y-87892261D01*
X147337191Y-87989698D01*
X147340715Y-87996613D01*
X147461028Y-88162213D01*
X147605786Y-88306971D01*
X147717164Y-88387890D01*
X147771390Y-88427287D01*
X147862840Y-88473883D01*
X147864080Y-88474515D01*
X147914876Y-88522490D01*
X147931671Y-88590311D01*
X147909134Y-88656446D01*
X147864080Y-88695485D01*
X147771386Y-88742715D01*
X147605786Y-88863028D01*
X147461028Y-89007786D01*
X147340715Y-89173386D01*
X147247781Y-89355776D01*
X147184522Y-89550465D01*
X147152500Y-89752648D01*
X147152500Y-89957351D01*
X147184522Y-90159534D01*
X147247781Y-90354223D01*
X147340715Y-90536613D01*
X147461028Y-90702213D01*
X147605782Y-90846967D01*
X147605787Y-90846971D01*
X147682583Y-90902767D01*
X147725249Y-90958097D01*
X147731228Y-91027710D01*
X147698622Y-91089505D01*
X147640365Y-91123233D01*
X147619973Y-91128437D01*
X147619962Y-91128441D01*
X147563415Y-91151863D01*
X148323589Y-91912037D01*
X148260007Y-91929075D01*
X148145993Y-91994901D01*
X148052901Y-92087993D01*
X147987075Y-92202007D01*
X147970037Y-92265589D01*
X147209863Y-91505415D01*
X147209862Y-91505415D01*
X147186446Y-91561947D01*
X147186431Y-91561987D01*
X147168457Y-91612939D01*
X147168455Y-91612946D01*
X147148000Y-91755219D01*
X147148000Y-93034785D01*
X147150893Y-93088762D01*
X147150893Y-93088764D01*
X147186438Y-93228030D01*
X147186442Y-93228043D01*
X147209862Y-93284584D01*
X147970037Y-92524410D01*
X147987075Y-92587993D01*
X148052901Y-92702007D01*
X148145993Y-92795099D01*
X148260007Y-92860925D01*
X148323589Y-92877962D01*
X147563414Y-93638135D01*
X147619960Y-93661557D01*
X147619986Y-93661567D01*
X147648621Y-93671669D01*
X147705294Y-93712534D01*
X147730876Y-93777552D01*
X147717246Y-93846080D01*
X147680256Y-93888924D01*
X147605782Y-93943032D01*
X147461028Y-94087786D01*
X147340715Y-94253386D01*
X147247781Y-94435776D01*
X147184522Y-94630465D01*
X147152500Y-94832648D01*
X147152500Y-95037351D01*
X147184522Y-95239534D01*
X147247781Y-95434223D01*
X147340715Y-95616613D01*
X147461028Y-95782213D01*
X147605786Y-95926971D01*
X147744845Y-96028001D01*
X147771390Y-96047287D01*
X147862840Y-96093883D01*
X147864080Y-96094515D01*
X147914876Y-96142490D01*
X147931671Y-96210311D01*
X147909134Y-96276446D01*
X147864080Y-96315485D01*
X147771386Y-96362715D01*
X147605786Y-96483028D01*
X147461028Y-96627786D01*
X147340715Y-96793386D01*
X147247781Y-96975776D01*
X147184522Y-97170465D01*
X147152500Y-97372648D01*
X147152500Y-97577351D01*
X147184522Y-97779534D01*
X147247781Y-97974223D01*
X147302775Y-98082153D01*
X147339976Y-98155164D01*
X147340715Y-98156613D01*
X147461028Y-98322213D01*
X147605786Y-98466971D01*
X147760749Y-98579556D01*
X147771390Y-98587287D01*
X147862840Y-98633883D01*
X147864080Y-98634515D01*
X147914876Y-98682490D01*
X147931671Y-98750311D01*
X147909134Y-98816446D01*
X147864080Y-98855485D01*
X147771386Y-98902715D01*
X147605786Y-99023028D01*
X147461028Y-99167786D01*
X147340715Y-99333386D01*
X147247781Y-99515776D01*
X147184522Y-99710465D01*
X147152500Y-99912648D01*
X147152500Y-100117351D01*
X147184522Y-100319534D01*
X147247781Y-100514223D01*
X147340715Y-100696613D01*
X147461028Y-100862213D01*
X147605786Y-101006971D01*
X147760749Y-101119556D01*
X147771390Y-101127287D01*
X147862840Y-101173883D01*
X147864080Y-101174515D01*
X147914876Y-101222490D01*
X147931671Y-101290311D01*
X147909134Y-101356446D01*
X147864080Y-101395485D01*
X147771386Y-101442715D01*
X147605786Y-101563028D01*
X147461028Y-101707786D01*
X147340715Y-101873386D01*
X147247781Y-102055776D01*
X147184522Y-102250465D01*
X147152500Y-102452648D01*
X147152500Y-102657351D01*
X147184522Y-102859534D01*
X147247781Y-103054223D01*
X147340715Y-103236613D01*
X147461028Y-103402213D01*
X147605782Y-103546967D01*
X147605787Y-103546971D01*
X147682583Y-103602767D01*
X147725249Y-103658097D01*
X147731228Y-103727710D01*
X147698622Y-103789505D01*
X147640365Y-103823233D01*
X147619973Y-103828437D01*
X147619962Y-103828441D01*
X147563415Y-103851863D01*
X148323589Y-104612037D01*
X148260007Y-104629075D01*
X148145993Y-104694901D01*
X148052901Y-104787993D01*
X147987075Y-104902007D01*
X147970037Y-104965589D01*
X147209863Y-104205415D01*
X147209862Y-104205415D01*
X147186446Y-104261947D01*
X147186431Y-104261987D01*
X147168457Y-104312939D01*
X147168455Y-104312946D01*
X147148000Y-104455219D01*
X147148000Y-105734785D01*
X147150893Y-105788762D01*
X147150893Y-105788764D01*
X147186438Y-105928030D01*
X147186442Y-105928043D01*
X147209862Y-105984584D01*
X147970037Y-105224410D01*
X147987075Y-105287993D01*
X148052901Y-105402007D01*
X148145993Y-105495099D01*
X148260007Y-105560925D01*
X148323589Y-105577962D01*
X147563414Y-106338135D01*
X147619960Y-106361557D01*
X147619986Y-106361567D01*
X147648621Y-106371669D01*
X147705294Y-106412534D01*
X147730876Y-106477552D01*
X147717246Y-106546080D01*
X147680256Y-106588924D01*
X147605782Y-106643032D01*
X147461028Y-106787786D01*
X147340715Y-106953386D01*
X147247781Y-107135776D01*
X147184522Y-107330465D01*
X147152500Y-107532648D01*
X147152500Y-107737351D01*
X147184522Y-107939534D01*
X147247781Y-108134223D01*
X147340715Y-108316613D01*
X147461028Y-108482213D01*
X147605786Y-108626971D01*
X147760749Y-108739556D01*
X147771390Y-108747287D01*
X147862840Y-108793883D01*
X147864080Y-108794515D01*
X147914876Y-108842490D01*
X147931671Y-108910311D01*
X147909134Y-108976446D01*
X147864080Y-109015485D01*
X147771386Y-109062715D01*
X147605786Y-109183028D01*
X147461028Y-109327786D01*
X147340715Y-109493386D01*
X147247781Y-109675776D01*
X147184522Y-109870465D01*
X147152500Y-110072648D01*
X147152500Y-110277351D01*
X147184522Y-110479534D01*
X147247781Y-110674223D01*
X147311691Y-110799653D01*
X147320706Y-110817345D01*
X147340715Y-110856613D01*
X147461028Y-111022213D01*
X147605786Y-111166971D01*
X147760749Y-111279556D01*
X147771390Y-111287287D01*
X147862840Y-111333883D01*
X147864080Y-111334515D01*
X147914876Y-111382490D01*
X147931671Y-111450311D01*
X147909134Y-111516446D01*
X147864080Y-111555485D01*
X147771386Y-111602715D01*
X147605786Y-111723028D01*
X147461028Y-111867786D01*
X147340715Y-112033386D01*
X147247781Y-112215776D01*
X147184522Y-112410465D01*
X147152500Y-112612648D01*
X147152500Y-112817351D01*
X147184522Y-113019534D01*
X147247781Y-113214223D01*
X147311691Y-113339653D01*
X147334625Y-113384662D01*
X147340715Y-113396613D01*
X147461028Y-113562213D01*
X147605786Y-113706971D01*
X147760749Y-113819556D01*
X147771390Y-113827287D01*
X147862840Y-113873883D01*
X147864080Y-113874515D01*
X147914876Y-113922490D01*
X147931671Y-113990311D01*
X147909134Y-114056446D01*
X147864080Y-114095485D01*
X147771386Y-114142715D01*
X147605786Y-114263028D01*
X147461028Y-114407786D01*
X147340715Y-114573386D01*
X147247781Y-114755776D01*
X147184522Y-114950465D01*
X147152500Y-115152648D01*
X147152500Y-115344902D01*
X147132815Y-115411941D01*
X147116181Y-115432583D01*
X146821063Y-115727701D01*
X146759740Y-115761186D01*
X146690048Y-115756202D01*
X146672618Y-115745000D01*
X146663000Y-115745000D01*
X132463000Y-115745000D01*
X131881215Y-115745000D01*
X131941477Y-115559534D01*
X131973500Y-115357352D01*
X131973500Y-115152648D01*
X131953292Y-115025061D01*
X131941477Y-114950465D01*
X131878218Y-114755776D01*
X131815579Y-114632842D01*
X131785287Y-114573390D01*
X131777556Y-114562749D01*
X131664971Y-114407786D01*
X131520213Y-114263028D01*
X131354614Y-114142715D01*
X131291239Y-114110424D01*
X131261917Y-114095483D01*
X131211123Y-114047511D01*
X131194328Y-113979690D01*
X131216865Y-113913555D01*
X131261917Y-113874516D01*
X131354610Y-113827287D01*
X131375770Y-113811913D01*
X131520213Y-113706971D01*
X131520215Y-113706968D01*
X131520219Y-113706966D01*
X131664966Y-113562219D01*
X131664968Y-113562215D01*
X131664971Y-113562213D01*
X131717732Y-113489590D01*
X131785287Y-113396610D01*
X131878220Y-113214219D01*
X131941477Y-113019534D01*
X131973500Y-112817352D01*
X131973500Y-112612648D01*
X131941477Y-112410466D01*
X131929787Y-112374489D01*
X131912127Y-112320137D01*
X131878220Y-112215781D01*
X131878218Y-112215778D01*
X131878218Y-112215776D01*
X131844503Y-112149607D01*
X131785287Y-112033390D01*
X131777556Y-112022749D01*
X131664971Y-111867786D01*
X131520213Y-111723028D01*
X131354614Y-111602715D01*
X131348006Y-111599348D01*
X131261917Y-111555483D01*
X131211123Y-111507511D01*
X131194328Y-111439690D01*
X131216865Y-111373555D01*
X131261917Y-111334516D01*
X131354610Y-111287287D01*
X131375770Y-111271913D01*
X131520213Y-111166971D01*
X131520215Y-111166968D01*
X131520219Y-111166966D01*
X131664966Y-111022219D01*
X131664968Y-111022215D01*
X131664971Y-111022213D01*
X131717732Y-110949590D01*
X131785287Y-110856610D01*
X131878220Y-110674219D01*
X131941477Y-110479534D01*
X131973500Y-110277352D01*
X131973500Y-110072648D01*
X131941477Y-109870466D01*
X131934432Y-109848785D01*
X131896835Y-109733073D01*
X131878220Y-109675781D01*
X131878218Y-109675778D01*
X131878218Y-109675776D01*
X131815579Y-109552842D01*
X131785287Y-109493390D01*
X131777556Y-109482749D01*
X131664971Y-109327786D01*
X131520213Y-109183028D01*
X131354614Y-109062715D01*
X131348006Y-109059348D01*
X131261917Y-109015483D01*
X131211123Y-108967511D01*
X131194328Y-108899690D01*
X131216865Y-108833555D01*
X131261917Y-108794516D01*
X131354610Y-108747287D01*
X131375770Y-108731913D01*
X131520213Y-108626971D01*
X131520215Y-108626968D01*
X131520219Y-108626966D01*
X131664966Y-108482219D01*
X131664968Y-108482215D01*
X131664971Y-108482213D01*
X131738145Y-108381496D01*
X131785287Y-108316610D01*
X131878220Y-108134219D01*
X131941477Y-107939534D01*
X131973500Y-107737352D01*
X131973500Y-107532648D01*
X131953292Y-107405061D01*
X131941477Y-107330465D01*
X131878218Y-107135776D01*
X131815579Y-107012842D01*
X131785287Y-106953390D01*
X131777556Y-106942749D01*
X131664971Y-106787786D01*
X131520217Y-106643032D01*
X131443415Y-106587232D01*
X131400750Y-106531902D01*
X131394771Y-106462288D01*
X131427377Y-106400494D01*
X131485640Y-106366765D01*
X131506039Y-106361559D01*
X131562584Y-106338136D01*
X131562584Y-106338135D01*
X130802410Y-105577962D01*
X130865993Y-105560925D01*
X130980007Y-105495099D01*
X131073099Y-105402007D01*
X131138925Y-105287993D01*
X131155962Y-105224411D01*
X131916135Y-105984584D01*
X131916136Y-105984584D01*
X131939552Y-105928053D01*
X131957544Y-105877053D01*
X131977999Y-105734780D01*
X131978000Y-105734779D01*
X131978000Y-104455224D01*
X131977999Y-104455204D01*
X131975106Y-104401237D01*
X131975106Y-104401235D01*
X131939561Y-104261969D01*
X131939559Y-104261962D01*
X131916135Y-104205414D01*
X131155962Y-104965588D01*
X131138925Y-104902007D01*
X131073099Y-104787993D01*
X130980007Y-104694901D01*
X130865993Y-104629075D01*
X130802409Y-104612037D01*
X131562584Y-103851862D01*
X131506059Y-103828449D01*
X131506048Y-103828445D01*
X131477374Y-103818329D01*
X131420703Y-103777462D01*
X131395122Y-103712443D01*
X131408754Y-103643916D01*
X131445745Y-103601074D01*
X131520215Y-103546969D01*
X131520215Y-103546968D01*
X131520219Y-103546966D01*
X131664966Y-103402219D01*
X131664968Y-103402215D01*
X131664971Y-103402213D01*
X131717732Y-103329590D01*
X131785287Y-103236610D01*
X131878220Y-103054219D01*
X131941477Y-102859534D01*
X131973500Y-102657352D01*
X131973500Y-102452648D01*
X131941477Y-102250466D01*
X131878220Y-102055781D01*
X131878218Y-102055778D01*
X131878218Y-102055776D01*
X131844503Y-101989607D01*
X131785287Y-101873390D01*
X131777556Y-101862749D01*
X131664971Y-101707786D01*
X131520213Y-101563028D01*
X131354613Y-101442715D01*
X131354612Y-101442714D01*
X131354610Y-101442713D01*
X131261917Y-101395483D01*
X131211122Y-101347509D01*
X131194327Y-101279688D01*
X131216864Y-101213553D01*
X131261916Y-101174516D01*
X131354610Y-101127287D01*
X131520219Y-101006966D01*
X131664966Y-100862219D01*
X131664968Y-100862215D01*
X131664971Y-100862213D01*
X131717732Y-100789590D01*
X131785287Y-100696610D01*
X131878220Y-100514219D01*
X131941477Y-100319534D01*
X131973500Y-100117352D01*
X131973500Y-99912648D01*
X131941477Y-99710466D01*
X131878220Y-99515781D01*
X131878218Y-99515778D01*
X131878218Y-99515776D01*
X131844503Y-99449607D01*
X131785287Y-99333390D01*
X131777556Y-99322749D01*
X131664971Y-99167786D01*
X131520213Y-99023028D01*
X131354614Y-98902715D01*
X131291180Y-98870394D01*
X131261917Y-98855483D01*
X131211123Y-98807511D01*
X131194328Y-98739690D01*
X131216865Y-98673555D01*
X131261917Y-98634516D01*
X131354610Y-98587287D01*
X131440957Y-98524553D01*
X131520213Y-98466971D01*
X131520215Y-98466968D01*
X131520219Y-98466966D01*
X131664966Y-98322219D01*
X131664968Y-98322215D01*
X131664971Y-98322213D01*
X131772329Y-98174445D01*
X131785287Y-98156610D01*
X131878220Y-97974219D01*
X131941477Y-97779534D01*
X131973500Y-97577352D01*
X131973500Y-97372648D01*
X131942670Y-97178000D01*
X131941477Y-97170465D01*
X131895187Y-97028000D01*
X131878220Y-96975781D01*
X131878218Y-96975778D01*
X131878218Y-96975776D01*
X131844503Y-96909607D01*
X131785287Y-96793390D01*
X131777556Y-96782749D01*
X131664971Y-96627786D01*
X131520213Y-96483028D01*
X131354614Y-96362715D01*
X131348006Y-96359348D01*
X131261917Y-96315483D01*
X131211123Y-96267511D01*
X131194328Y-96199690D01*
X131216865Y-96133555D01*
X131261917Y-96094516D01*
X131354610Y-96047287D01*
X131381155Y-96028001D01*
X131520213Y-95926971D01*
X131520215Y-95926968D01*
X131520219Y-95926966D01*
X131664966Y-95782219D01*
X131664968Y-95782215D01*
X131664971Y-95782213D01*
X131743267Y-95674446D01*
X131785287Y-95616610D01*
X131878220Y-95434219D01*
X131941477Y-95239534D01*
X131973500Y-95037352D01*
X131973500Y-94832648D01*
X131941477Y-94630466D01*
X131878220Y-94435781D01*
X131878218Y-94435778D01*
X131878218Y-94435776D01*
X131844503Y-94369607D01*
X131785287Y-94253390D01*
X131777556Y-94242749D01*
X131664971Y-94087786D01*
X131520217Y-93943032D01*
X131443415Y-93887232D01*
X131400750Y-93831902D01*
X131394771Y-93762288D01*
X131427377Y-93700494D01*
X131485640Y-93666765D01*
X131506039Y-93661559D01*
X131562584Y-93638136D01*
X131562584Y-93638135D01*
X130802410Y-92877962D01*
X130865993Y-92860925D01*
X130980007Y-92795099D01*
X131073099Y-92702007D01*
X131138925Y-92587993D01*
X131155962Y-92524411D01*
X131916135Y-93284584D01*
X131916136Y-93284584D01*
X131939552Y-93228053D01*
X131957544Y-93177053D01*
X131977999Y-93034780D01*
X131978000Y-93034779D01*
X131978000Y-91755224D01*
X131977999Y-91755204D01*
X131975106Y-91701237D01*
X131975106Y-91701235D01*
X131939561Y-91561969D01*
X131939559Y-91561962D01*
X131916135Y-91505414D01*
X131155962Y-92265588D01*
X131138925Y-92202007D01*
X131073099Y-92087993D01*
X130980007Y-91994901D01*
X130865993Y-91929075D01*
X130802410Y-91912037D01*
X131562584Y-91151862D01*
X131506059Y-91128449D01*
X131506048Y-91128445D01*
X131477374Y-91118329D01*
X131420703Y-91077462D01*
X131395122Y-91012443D01*
X131408754Y-90943916D01*
X131445745Y-90901074D01*
X131520215Y-90846969D01*
X131520215Y-90846968D01*
X131520219Y-90846966D01*
X131664966Y-90702219D01*
X131664968Y-90702215D01*
X131664971Y-90702213D01*
X131751468Y-90583158D01*
X131785287Y-90536610D01*
X131878220Y-90354219D01*
X131941477Y-90159534D01*
X131973500Y-89957352D01*
X131973500Y-89752648D01*
X131941477Y-89550466D01*
X131878220Y-89355781D01*
X131878218Y-89355778D01*
X131878218Y-89355776D01*
X131814585Y-89230891D01*
X131785287Y-89173390D01*
X131733247Y-89101762D01*
X131664971Y-89007786D01*
X131520213Y-88863028D01*
X131354614Y-88742715D01*
X131290768Y-88710184D01*
X131261917Y-88695483D01*
X131211123Y-88647511D01*
X131194328Y-88579690D01*
X131216865Y-88513555D01*
X131261917Y-88474516D01*
X131354610Y-88427287D01*
X131408836Y-88387890D01*
X131520213Y-88306971D01*
X131520215Y-88306968D01*
X131520219Y-88306966D01*
X131664966Y-88162219D01*
X131664968Y-88162215D01*
X131664971Y-88162213D01*
X131720712Y-88085491D01*
X131785287Y-87996610D01*
X131878220Y-87814219D01*
X131941477Y-87619534D01*
X131973500Y-87417352D01*
X131973500Y-87212648D01*
X131970584Y-87194239D01*
X131941477Y-87010465D01*
X131878218Y-86815776D01*
X131785287Y-86633390D01*
X131679448Y-86487713D01*
X131655969Y-86421906D01*
X131671795Y-86353852D01*
X131692082Y-86327151D01*
X132184506Y-85834728D01*
X132184511Y-85834724D01*
X132194714Y-85824520D01*
X132194716Y-85824520D01*
X132306520Y-85712716D01*
X132385577Y-85575784D01*
X132426500Y-85423057D01*
X132426500Y-83308943D01*
X132426499Y-83308936D01*
X132426228Y-83307924D01*
X132426228Y-83307925D01*
X132410106Y-83247758D01*
X132385577Y-83156215D01*
X132312416Y-83029497D01*
X132306520Y-83019284D01*
X132194716Y-82907480D01*
X132194713Y-82907478D01*
X131967077Y-82679842D01*
X131933592Y-82618519D01*
X131936828Y-82553841D01*
X131941477Y-82539534D01*
X131973500Y-82337352D01*
X131973500Y-82132648D01*
X131941477Y-81930466D01*
X131937045Y-81916827D01*
X131878218Y-81735776D01*
X131811587Y-81605007D01*
X131785287Y-81553390D01*
X131767922Y-81529489D01*
X131664971Y-81387786D01*
X131520217Y-81243032D01*
X131443415Y-81187232D01*
X131400750Y-81131902D01*
X131394771Y-81062288D01*
X131427377Y-81000494D01*
X131485640Y-80966765D01*
X131506039Y-80961559D01*
X131562584Y-80938136D01*
X131562584Y-80938135D01*
X130802410Y-80177962D01*
X130865993Y-80160925D01*
X130980007Y-80095099D01*
X131073099Y-80002007D01*
X131138925Y-79887993D01*
X131155962Y-79824411D01*
X131916135Y-80584584D01*
X131916136Y-80584584D01*
X131939552Y-80528053D01*
X131957544Y-80477053D01*
X131977999Y-80334780D01*
X131978000Y-80334779D01*
X131978000Y-79055214D01*
X131975106Y-79001237D01*
X131975106Y-79001235D01*
X131939561Y-78861969D01*
X131939559Y-78861962D01*
X131916135Y-78805414D01*
X131155962Y-79565588D01*
X131138925Y-79502007D01*
X131073099Y-79387993D01*
X130980007Y-79294901D01*
X130865993Y-79229075D01*
X130802410Y-79212037D01*
X131562584Y-78451862D01*
X131506059Y-78428449D01*
X131506048Y-78428445D01*
X131477374Y-78418329D01*
X131420703Y-78377462D01*
X131395122Y-78312443D01*
X131408754Y-78243916D01*
X131445745Y-78201074D01*
X131520215Y-78146969D01*
X131520215Y-78146968D01*
X131520219Y-78146966D01*
X131664966Y-78002219D01*
X131664968Y-78002215D01*
X131664971Y-78002213D01*
X131762834Y-77867514D01*
X131785287Y-77836610D01*
X131863817Y-77682486D01*
X135962500Y-77682486D01*
X135962500Y-77867513D01*
X135991445Y-78050265D01*
X136048619Y-78226232D01*
X136048620Y-78226235D01*
X136091840Y-78311057D01*
X136132622Y-78391096D01*
X136241379Y-78540787D01*
X136372213Y-78671621D01*
X136521904Y-78780378D01*
X136571040Y-78805414D01*
X136686764Y-78864379D01*
X136686767Y-78864380D01*
X136774750Y-78892967D01*
X136862736Y-78921555D01*
X137045486Y-78950500D01*
X137045487Y-78950500D01*
X137230513Y-78950500D01*
X137230514Y-78950500D01*
X137413264Y-78921555D01*
X137589235Y-78864379D01*
X137754096Y-78780378D01*
X137903787Y-78671621D01*
X138034621Y-78540787D01*
X138143378Y-78391096D01*
X138227379Y-78226235D01*
X138284555Y-78050264D01*
X138313500Y-77867514D01*
X138313500Y-77682486D01*
X140812500Y-77682486D01*
X140812500Y-77867513D01*
X140841445Y-78050265D01*
X140898619Y-78226232D01*
X140898620Y-78226235D01*
X140941840Y-78311057D01*
X140982622Y-78391096D01*
X141091379Y-78540787D01*
X141222213Y-78671621D01*
X141371904Y-78780378D01*
X141421040Y-78805414D01*
X141536764Y-78864379D01*
X141536767Y-78864380D01*
X141624750Y-78892967D01*
X141712736Y-78921555D01*
X141895486Y-78950500D01*
X141895487Y-78950500D01*
X142080513Y-78950500D01*
X142080514Y-78950500D01*
X142153660Y-78938914D01*
X142220578Y-78928316D01*
X142226847Y-78927322D01*
X142263264Y-78921555D01*
X142439235Y-78864379D01*
X142604096Y-78780378D01*
X142753787Y-78671621D01*
X142884621Y-78540787D01*
X142993378Y-78391096D01*
X143077379Y-78226235D01*
X143134555Y-78050264D01*
X143163500Y-77867514D01*
X143163500Y-77682486D01*
X143134555Y-77499736D01*
X143077379Y-77323765D01*
X143077379Y-77323764D01*
X142993377Y-77158903D01*
X142884621Y-77009213D01*
X142753787Y-76878379D01*
X142604096Y-76769622D01*
X142439235Y-76685620D01*
X142439232Y-76685619D01*
X142263265Y-76628445D01*
X142171889Y-76613972D01*
X142080514Y-76599500D01*
X141895486Y-76599500D01*
X141834569Y-76609148D01*
X141712734Y-76628445D01*
X141536767Y-76685619D01*
X141536764Y-76685620D01*
X141371903Y-76769622D01*
X141286499Y-76831672D01*
X141222213Y-76878379D01*
X141222211Y-76878381D01*
X141222210Y-76878381D01*
X141091381Y-77009210D01*
X141091381Y-77009211D01*
X141091379Y-77009213D01*
X141059822Y-77052648D01*
X140982622Y-77158903D01*
X140898620Y-77323764D01*
X140898619Y-77323767D01*
X140841445Y-77499734D01*
X140812500Y-77682486D01*
X138313500Y-77682486D01*
X138284555Y-77499736D01*
X138227379Y-77323765D01*
X138227379Y-77323764D01*
X138143377Y-77158903D01*
X138034621Y-77009213D01*
X137903787Y-76878379D01*
X137754096Y-76769622D01*
X137589235Y-76685620D01*
X137589232Y-76685619D01*
X137413265Y-76628445D01*
X137321889Y-76613972D01*
X137230514Y-76599500D01*
X137045486Y-76599500D01*
X136984569Y-76609148D01*
X136862734Y-76628445D01*
X136686767Y-76685619D01*
X136686764Y-76685620D01*
X136521903Y-76769622D01*
X136436499Y-76831672D01*
X136372213Y-76878379D01*
X136372211Y-76878381D01*
X136372210Y-76878381D01*
X136241381Y-77009210D01*
X136241381Y-77009211D01*
X136241379Y-77009213D01*
X136209822Y-77052648D01*
X136132622Y-77158903D01*
X136048620Y-77323764D01*
X136048619Y-77323767D01*
X135991445Y-77499734D01*
X135962500Y-77682486D01*
X131863817Y-77682486D01*
X131878220Y-77654219D01*
X131928415Y-77499736D01*
X131941476Y-77459538D01*
X131941476Y-77459537D01*
X131941477Y-77459534D01*
X131973500Y-77257352D01*
X131973500Y-77052648D01*
X131966620Y-77009210D01*
X131941477Y-76850465D01*
X131912127Y-76760137D01*
X131878220Y-76655781D01*
X131878218Y-76655778D01*
X131878218Y-76655776D01*
X131844503Y-76589607D01*
X131785287Y-76473390D01*
X131755255Y-76432054D01*
X131664971Y-76307786D01*
X131520217Y-76163032D01*
X131520212Y-76163028D01*
X131439440Y-76104344D01*
X131396774Y-76049015D01*
X131390795Y-75979401D01*
X131423400Y-75917606D01*
X131475433Y-75885641D01*
X131562606Y-75858478D01*
X131708185Y-75770472D01*
X131828472Y-75650185D01*
X131916478Y-75504606D01*
X131967086Y-75342196D01*
X131973500Y-75271616D01*
X131973500Y-74638713D01*
X135487500Y-74638713D01*
X135487500Y-74851286D01*
X135517038Y-75037785D01*
X135520754Y-75061243D01*
X135537968Y-75114223D01*
X135586444Y-75263414D01*
X135682951Y-75452820D01*
X135807890Y-75624786D01*
X135958213Y-75775109D01*
X136130179Y-75900048D01*
X136130181Y-75900049D01*
X136130184Y-75900051D01*
X136319588Y-75996557D01*
X136521757Y-76062246D01*
X136731713Y-76095500D01*
X136731714Y-76095500D01*
X136944286Y-76095500D01*
X136944287Y-76095500D01*
X137154243Y-76062246D01*
X137356412Y-75996557D01*
X137545816Y-75900051D01*
X137603038Y-75858477D01*
X137717786Y-75775109D01*
X137717788Y-75775106D01*
X137717792Y-75775104D01*
X137868104Y-75624792D01*
X137868106Y-75624788D01*
X137868109Y-75624786D01*
X137993048Y-75452820D01*
X137993047Y-75452820D01*
X137993051Y-75452816D01*
X138089557Y-75263412D01*
X138155246Y-75061243D01*
X138188500Y-74851287D01*
X138188500Y-74638713D01*
X140937500Y-74638713D01*
X140937500Y-74851286D01*
X140967038Y-75037785D01*
X140970754Y-75061243D01*
X140987968Y-75114223D01*
X141036444Y-75263414D01*
X141132951Y-75452820D01*
X141257890Y-75624786D01*
X141408213Y-75775109D01*
X141580179Y-75900048D01*
X141580181Y-75900049D01*
X141580184Y-75900051D01*
X141769588Y-75996557D01*
X141971757Y-76062246D01*
X142181713Y-76095500D01*
X142181714Y-76095500D01*
X142394286Y-76095500D01*
X142394287Y-76095500D01*
X142604243Y-76062246D01*
X142806412Y-75996557D01*
X142995816Y-75900051D01*
X143053038Y-75858477D01*
X143167786Y-75775109D01*
X143167788Y-75775106D01*
X143167792Y-75775104D01*
X143318104Y-75624792D01*
X143318106Y-75624788D01*
X143318109Y-75624786D01*
X143443048Y-75452820D01*
X143443047Y-75452820D01*
X143443051Y-75452816D01*
X143539557Y-75263412D01*
X143605246Y-75061243D01*
X143638500Y-74851287D01*
X143638500Y-74638713D01*
X143620834Y-74527174D01*
X143605246Y-74428760D01*
X143605246Y-74428757D01*
X143539557Y-74226588D01*
X143443051Y-74037184D01*
X143443049Y-74037181D01*
X143443048Y-74037179D01*
X143318109Y-73865213D01*
X143167786Y-73714890D01*
X142995820Y-73589951D01*
X142806414Y-73493444D01*
X142806413Y-73493443D01*
X142806412Y-73493443D01*
X142604243Y-73427754D01*
X142604241Y-73427753D01*
X142604240Y-73427753D01*
X142442957Y-73402208D01*
X142394287Y-73394500D01*
X142181713Y-73394500D01*
X142133042Y-73402208D01*
X141971760Y-73427753D01*
X141769585Y-73493444D01*
X141580179Y-73589951D01*
X141408213Y-73714890D01*
X141257890Y-73865213D01*
X141132951Y-74037179D01*
X141036444Y-74226585D01*
X140970753Y-74428760D01*
X140937500Y-74638713D01*
X138188500Y-74638713D01*
X138155246Y-74428757D01*
X138089557Y-74226588D01*
X137993051Y-74037184D01*
X137993049Y-74037181D01*
X137993048Y-74037179D01*
X137868109Y-73865213D01*
X137717786Y-73714890D01*
X137545820Y-73589951D01*
X137356414Y-73493444D01*
X137356413Y-73493443D01*
X137356412Y-73493443D01*
X137154243Y-73427754D01*
X137154241Y-73427753D01*
X137154240Y-73427753D01*
X136992957Y-73402208D01*
X136944287Y-73394500D01*
X136731713Y-73394500D01*
X136683042Y-73402208D01*
X136521760Y-73427753D01*
X136319585Y-73493444D01*
X136130179Y-73589951D01*
X135958213Y-73714890D01*
X135807890Y-73865213D01*
X135682951Y-74037179D01*
X135586444Y-74226585D01*
X135520753Y-74428760D01*
X135487500Y-74638713D01*
X131973500Y-74638713D01*
X131973500Y-73958384D01*
X131967086Y-73887804D01*
X131916478Y-73725394D01*
X131828472Y-73579815D01*
X131828470Y-73579813D01*
X131828469Y-73579811D01*
X131708188Y-73459530D01*
X131655624Y-73427754D01*
X131562606Y-73371522D01*
X131400196Y-73320914D01*
X131400194Y-73320913D01*
X131400192Y-73320913D01*
X131350778Y-73316423D01*
X131329616Y-73314500D01*
X130016384Y-73314500D01*
X129997145Y-73316248D01*
X129945807Y-73320913D01*
X129783393Y-73371522D01*
X129637811Y-73459530D01*
X129517530Y-73579811D01*
X129429522Y-73725393D01*
X129378913Y-73887807D01*
X129374772Y-73933386D01*
X129372500Y-73958384D01*
X129372500Y-75271616D01*
X129374423Y-75292778D01*
X129378913Y-75342192D01*
X129429522Y-75504606D01*
X129517530Y-75650188D01*
X129637811Y-75770469D01*
X129637813Y-75770470D01*
X129637815Y-75770472D01*
X129783394Y-75858478D01*
X129870566Y-75885641D01*
X129928712Y-75924378D01*
X129956686Y-75988403D01*
X129945605Y-76057388D01*
X129906560Y-76104344D01*
X129825782Y-76163032D01*
X129681028Y-76307786D01*
X129560715Y-76473386D01*
X129467781Y-76655776D01*
X129404522Y-76850465D01*
X129372500Y-77052648D01*
X129372500Y-77257351D01*
X129404522Y-77459534D01*
X129467781Y-77654223D01*
X129560715Y-77836613D01*
X129681028Y-78002213D01*
X129825786Y-78146971D01*
X129991388Y-78267286D01*
X129991390Y-78267287D01*
X130077294Y-78311057D01*
X130128090Y-78359031D01*
X130144886Y-78426852D01*
X130122349Y-78492987D01*
X130079455Y-78530899D01*
X130013497Y-78566155D01*
X129944086Y-78612534D01*
X129944085Y-78612534D01*
X130543589Y-79212037D01*
X130480007Y-79229075D01*
X130365993Y-79294901D01*
X130272901Y-79387993D01*
X130207075Y-79502007D01*
X130190037Y-79565588D01*
X129590534Y-78966085D01*
X129590534Y-78966086D01*
X129544158Y-79035493D01*
X129497490Y-79122801D01*
X129437185Y-79268387D01*
X129408444Y-79363135D01*
X129377701Y-79517697D01*
X129377701Y-79517700D01*
X129368000Y-79616210D01*
X129368000Y-79773789D01*
X129377701Y-79872299D01*
X129377701Y-79872302D01*
X129408444Y-80026864D01*
X129437185Y-80121612D01*
X129497490Y-80267198D01*
X129544155Y-80354501D01*
X129544161Y-80354511D01*
X129590534Y-80423912D01*
X130190037Y-79824410D01*
X130207075Y-79887993D01*
X130272901Y-80002007D01*
X130365993Y-80095099D01*
X130480007Y-80160925D01*
X130543589Y-80177962D01*
X129944085Y-80777465D01*
X130013488Y-80823838D01*
X130013498Y-80823844D01*
X130079454Y-80859099D01*
X130129298Y-80908062D01*
X130144758Y-80976200D01*
X130120926Y-81041879D01*
X130077295Y-81078942D01*
X129991386Y-81122715D01*
X129825786Y-81243028D01*
X129681028Y-81387786D01*
X129560715Y-81553386D01*
X129467781Y-81735776D01*
X129404522Y-81930465D01*
X129372500Y-82132648D01*
X129372500Y-82337351D01*
X129404522Y-82539534D01*
X129467781Y-82734223D01*
X129499259Y-82796000D01*
X129547198Y-82890086D01*
X129560715Y-82916613D01*
X129681028Y-83082213D01*
X129825786Y-83226971D01*
X129948369Y-83316031D01*
X129991390Y-83347287D01*
X130082840Y-83393883D01*
X130084080Y-83394515D01*
X130134876Y-83442490D01*
X130151671Y-83510311D01*
X130129134Y-83576446D01*
X130084080Y-83615485D01*
X129991386Y-83662715D01*
X129825786Y-83783028D01*
X129681028Y-83927786D01*
X129560715Y-84093385D01*
X129553883Y-84106795D01*
X129505909Y-84157591D01*
X129443398Y-84174500D01*
X121174943Y-84174500D01*
X121022213Y-84215423D01*
X120980584Y-84239459D01*
X120980583Y-84239459D01*
X120885287Y-84294477D01*
X120885282Y-84294481D01*
X120713181Y-84466583D01*
X120651858Y-84500068D01*
X120582166Y-84495084D01*
X120526233Y-84453212D01*
X120501816Y-84387748D01*
X120501500Y-84378902D01*
X120501500Y-84231713D01*
X120480084Y-84096499D01*
X120468246Y-84021757D01*
X120402557Y-83819588D01*
X120306051Y-83630184D01*
X120306049Y-83630181D01*
X120306048Y-83630179D01*
X120181109Y-83458213D01*
X120067181Y-83344285D01*
X120033696Y-83282962D01*
X120038680Y-83213270D01*
X120080552Y-83157337D01*
X120111529Y-83140422D01*
X120243086Y-83091354D01*
X120243093Y-83091350D01*
X120358187Y-83005190D01*
X120358190Y-83005187D01*
X120444350Y-82890093D01*
X120444354Y-82890086D01*
X120494596Y-82755379D01*
X120494598Y-82755372D01*
X120500999Y-82695844D01*
X120501000Y-82695827D01*
X120501000Y-82048000D01*
X119584012Y-82048000D01*
X119616925Y-81990993D01*
X119651000Y-81863826D01*
X119651000Y-81732174D01*
X119616925Y-81605007D01*
X119584012Y-81548000D01*
X120501000Y-81548000D01*
X120501000Y-80900172D01*
X120500999Y-80900155D01*
X120494598Y-80840627D01*
X120494596Y-80840620D01*
X120444354Y-80705913D01*
X120444350Y-80705906D01*
X120358190Y-80590812D01*
X120358187Y-80590809D01*
X120243093Y-80504649D01*
X120243086Y-80504645D01*
X120108379Y-80454403D01*
X120108372Y-80454401D01*
X120048844Y-80448000D01*
X119401000Y-80448000D01*
X119401000Y-81364988D01*
X119343993Y-81332075D01*
X119216826Y-81298000D01*
X119085174Y-81298000D01*
X118958007Y-81332075D01*
X118901000Y-81364988D01*
X118901000Y-80448000D01*
X118253155Y-80448000D01*
X118193627Y-80454401D01*
X118193620Y-80454403D01*
X118058913Y-80504645D01*
X118058906Y-80504649D01*
X117943812Y-80590809D01*
X117943809Y-80590812D01*
X117857649Y-80705906D01*
X117857645Y-80705913D01*
X117807403Y-80840620D01*
X117807401Y-80840627D01*
X117801000Y-80900155D01*
X117801000Y-81548000D01*
X118717988Y-81548000D01*
X118685075Y-81605007D01*
X118651000Y-81732174D01*
X118651000Y-81863826D01*
X118685075Y-81990993D01*
X118717988Y-82048000D01*
X117801000Y-82048000D01*
X117801000Y-82695844D01*
X117807401Y-82755372D01*
X117807403Y-82755379D01*
X117857645Y-82890086D01*
X117857649Y-82890093D01*
X117943809Y-83005187D01*
X117943812Y-83005190D01*
X118058906Y-83091350D01*
X118058913Y-83091354D01*
X118190470Y-83140422D01*
X118246404Y-83182293D01*
X118270821Y-83247758D01*
X118255969Y-83316031D01*
X118234819Y-83344285D01*
X118120889Y-83458215D01*
X117995951Y-83630179D01*
X117899444Y-83819585D01*
X117833753Y-84021760D01*
X117820285Y-84106795D01*
X117800500Y-84231713D01*
X102108000Y-84231713D01*
X102108000Y-74554711D01*
X103305500Y-74554711D01*
X103305500Y-74797288D01*
X103321593Y-74919534D01*
X103337162Y-75037789D01*
X103343447Y-75061243D01*
X103399947Y-75272104D01*
X103492773Y-75496205D01*
X103492776Y-75496212D01*
X103614064Y-75706289D01*
X103614066Y-75706292D01*
X103614067Y-75706293D01*
X103761733Y-75898736D01*
X103761739Y-75898743D01*
X103933256Y-76070260D01*
X103933262Y-76070265D01*
X104125711Y-76217936D01*
X104335788Y-76339224D01*
X104559900Y-76432054D01*
X104794211Y-76494838D01*
X104974586Y-76518584D01*
X105034711Y-76526500D01*
X105034712Y-76526500D01*
X105277289Y-76526500D01*
X105325388Y-76520167D01*
X105517789Y-76494838D01*
X105752100Y-76432054D01*
X105976212Y-76339224D01*
X106186289Y-76217936D01*
X106378738Y-76070265D01*
X106550265Y-75898738D01*
X106697936Y-75706289D01*
X106819224Y-75496212D01*
X106912054Y-75272100D01*
X106974838Y-75037789D01*
X107006500Y-74797288D01*
X107006500Y-74554712D01*
X106974838Y-74314211D01*
X106912054Y-74079900D01*
X106912051Y-74079892D01*
X106880213Y-74003026D01*
X106819227Y-73855794D01*
X106819222Y-73855785D01*
X106697936Y-73645711D01*
X106550265Y-73453262D01*
X106550260Y-73453256D01*
X106378743Y-73281739D01*
X106378736Y-73281733D01*
X106186293Y-73134067D01*
X106186292Y-73134066D01*
X106186289Y-73134064D01*
X105976212Y-73012776D01*
X105976205Y-73012773D01*
X105752104Y-72919947D01*
X105517785Y-72857161D01*
X105277289Y-72825500D01*
X105277288Y-72825500D01*
X105034712Y-72825500D01*
X105034711Y-72825500D01*
X104794214Y-72857161D01*
X104559895Y-72919947D01*
X104335794Y-73012773D01*
X104335785Y-73012777D01*
X104125706Y-73134067D01*
X103933263Y-73281733D01*
X103933256Y-73281739D01*
X103761739Y-73453256D01*
X103761733Y-73453263D01*
X103614067Y-73645706D01*
X103492777Y-73855785D01*
X103492773Y-73855794D01*
X103399947Y-74079895D01*
X103337161Y-74314214D01*
X103305500Y-74554711D01*
X102108000Y-74554711D01*
X102108000Y-71752000D01*
X102127685Y-71684961D01*
X102180489Y-71639206D01*
X102232000Y-71628000D01*
X159388000Y-71628000D01*
X159455039Y-71647685D01*
G37*
%TD.AperFunction*%
%TD*%
M02*
